{
.appVersion = "1271";
classes = (
{
automatic = 1;
code = "Alif-adlam Daali-adlam Laam-adlam Miim-adlam Ba-adlam Sinnyiiyhe-adlam Pe-adlam Bhe-adlam Ra-adlam E-adlam Fa-adlam I-adlam O-adlam Dha-adlam Yhe-adlam Waw-adlam Nun-adlam Kaf-adlam Ya-adlam U-adlam Jiim-adlam Chi-adlam Ha-adlam Qaaf-adlam Ga-adlam Nya-adlam Tu-adlam Nha-adlam Va-adlam Kha-adlam Gbe-adlam Zal-adlam Kpo-adlam Sha-adlam Alif-adlam.fina Daali-adlam.fina Laam-adlam.fina Miim-adlam.fina Ba-adlam.fina Sinnyiiyhe-adlam.fina Pe-adlam.fina Bhe-adlam.fina Ra-adlam.fina E-adlam.fina Fa-adlam.fina I-adlam.fina O-adlam.fina Dha-adlam.fina Yhe-adlam.fina Waw-adlam.fina Nun-adlam.fina Kaf-adlam.fina Ya-adlam.fina U-adlam.fina Jiim-adlam.fina Chi-adlam.fina Ha-adlam.fina Qaaf-adlam.fina Ga-adlam.fina Nya-adlam.fina Tu-adlam.fina Nha-adlam.fina Va-adlam.fina Kha-adlam.fina Gbe-adlam.fina Zal-adlam.fina Kpo-adlam.fina Sha-adlam.fina Alif-adlam.init Daali-adlam.init Laam-adlam.init Miim-adlam.init Ba-adlam.init Sinnyiiyhe-adlam.init Pe-adlam.init Bhe-adlam.init Ra-adlam.init E-adlam.init Fa-adlam.init I-adlam.init O-adlam.init Dha-adlam.init Yhe-adlam.init Waw-adlam.init Nun-adlam.init Kaf-adlam.init Ya-adlam.init U-adlam.init Jiim-adlam.init Chi-adlam.init Ha-adlam.init Qaaf-adlam.init Ga-adlam.init Nya-adlam.init Tu-adlam.init Nha-adlam.init Va-adlam.init Kha-adlam.init Gbe-adlam.init Zal-adlam.init Kpo-adlam.init Sha-adlam.init Alif-adlam.medi Daali-adlam.medi Laam-adlam.medi Miim-adlam.medi Ba-adlam.medi Sinnyiiyhe-adlam.medi Pe-adlam.medi Bhe-adlam.medi Ra-adlam.medi E-adlam.medi Fa-adlam.medi I-adlam.medi O-adlam.medi Dha-adlam.medi Yhe-adlam.medi Waw-adlam.medi Nun-adlam.medi Kaf-adlam.medi Ya-adlam.medi U-adlam.medi Jiim-adlam.medi Chi-adlam.medi Ha-adlam.medi Qaaf-adlam.medi Ga-adlam.medi Nya-adlam.medi Tu-adlam.medi Nha-adlam.medi Va-adlam.medi Kha-adlam.medi Gbe-adlam.medi Zal-adlam.medi Kpo-adlam.medi Sha-adlam.medi";
name = Uppercase;
},
{
automatic = 1;

glyphs = (
{
glyphname = .notdef;
lastChange = "2019-09-11 15:27:06 +0000";
layers = (
{
layerId = master01;
paths = (
{
closed = 1;
nodes = (
"479 0 LINE",
"479 714 LINE",
"94 714 LINE",
"94 0 LINE"
);
},
{
closed = 1;
nodes = (
"118 690 LINE",
"455 690 LINE",
"455 24 LINE",
"118 24 LINE"
);
}
);
userData = {
com.schriftgestaltung.Glyphs.lastChange = "2017/01/05 17:36:54";
};
width = 574;
},
{
layerId = "201D1995-4E5E-441E-AFED-969F1360B126";
paths = (
{
closed = 1;
nodes = (
"505 0 LINE",
"505 714 LINE",
"94 714 LINE",
"94 0 LINE"
);
},
{
closed = 1;
nodes = (
"145 663 LINE",
"454 663 LINE",
"454 51 LINE",
"145 51 LINE"
);
}
);
width = 600;
}
);
},
{
export = 0;
glyphname = A;
lastChange = "2019-11-21 14:59:09 +0000";
layers = (
{
anchors = (
{
name = bottom;
position = "{324, 0}";
},
{
name = top;
position = "{318, 714}";
},
{
name = topright;
position = "{519, 714}";
}
);
layerId = master01;
paths = (
{
closed = 1;
nodes = (
"91 0 LINE",
"176 221 LINE",
"459 221 LINE",
"545 0 LINE",
"638 0 LINE",
"360 717 LINE",
"279 717 LINE",
"0 0 LINE"
);
},
{
closed = 1;
nodes = (
"287 517 LINE SMOOTH",
"295 540 OFFCURVE",
"308 583 OFFCURVE",
"318 624 CURVE",
"325 599 OFFCURVE",
"346 533 OFFCURVE",
"352 517 CURVE SMOOTH",
"432 301 LINE",
"206 301 LINE"
);
}
);
userData = {
com.schriftgestaltung.Glyphs.category = Letter;
com.schriftgestaltung.Glyphs.lastChange = "2017/12/05 22:37:38";
com.schriftgestaltung.Glyphs.script = latin;
com.schriftgestaltung.Glyphs.subCategory = Uppercase;
};
width = 639;
},
{
anchors = (
{
name = bottom;
position = "{351, 0}";
},
{
name = top;
position = "{345, 714}";
},
{
name = topright;
position = "{546, 714}";
}
);
layerId = "201D1995-4E5E-441E-AFED-969F1360B126";
paths = (
{
closed = 1;
nodes = (
"163 0 LINE",
"215 170 LINE",
"475 170 LINE",
"527 0 LINE",
"690 0 LINE",
"437 717 LINE",
"252 717 LINE",
"0 0 LINE"
);
},
{
closed = 1;
nodes = (
"304 463 LINE",
"310.776 481.633 OFFCURVE",
"337.821 577.284 OFFCURVE",
"345 606 CURVE",
"351.706 579.175 OFFCURVE",
"378.25 492.75 OFFCURVE",
"387 463 CURVE SMOOTH",
"439 297 LINE",
"253 297 LINE"
);
}
);
width = 690;
}
);
leftKerningGroup = A;
rightKerningGroup = A;
unicode = 0041;
},
{
export = 0;
glyphname = B;
lastChange = "2019-11-21 14:59:09 +0000";
layers = (
{
anchors = (
{
name = bottom;
position = "{315, 0}";
},
{
name = top;
position = "{322, 714}";
},
{
name = topright;
position = "{630, 714}";
}
);
layerId = master01;
paths = (
{
closed = 1;
nodes = (
"348 0 LINE SMOOTH",
"501 0 OFFCURVE",
"596 73 OFFCURVE",
"596 203 CURVE SMOOTH",
"596 314 OFFCURVE",
"526 359 OFFCURVE",
"436 374 CURVE",
"436 379 LINE",
"524 395 OFFCURVE",
"572 453 OFFCURVE",
"572 537 CURVE SMOOTH",
"572 667 OFFCURVE",
"479 714 OFFCURVE",
"301 714 CURVE SMOOTH",
"97 714 LINE",
"97 0 LINE"
);
},
{
closed = 1;
nodes = (
"187 335 LINE",
"324 335 LINE SMOOTH",
"456 335 OFFCURVE",
"500 285 OFFCURVE",
"500 210 CURVE SMOOTH",
"500 130 OFFCURVE",
"457 76 OFFCURVE",
"331 76 CURVE SMOOTH",
"187 76 LINE"
);
},
{
closed = 1;
nodes = (
"187 637 LINE",
"305 637 LINE SMOOTH",
"426 637 OFFCURVE",
"479 605 OFFCURVE",
"479 527 CURVE SMOOTH",
"479 450 OFFCURVE",
"441 410 OFFCURVE",
"319 410 CURVE SMOOTH",
"187 410 LINE"
);
}
);
userData = {
com.schriftgestaltung.Glyphs.category = Letter;
com.schriftgestaltung.Glyphs.lastChange = "2017/12/05 22:37:38";
com.schriftgestaltung.Glyphs.script = latin;
com.schriftgestaltung.Glyphs.subCategory = Uppercase;
};
width = 650;
},
{
anchors = (
{
name = bottom;
position = "{318, 0}";
},
{
name = top;
position = "{325, 714}";
},
{
name = topright;
position = "{633, 714}";
}
);
layerId = "201D1995-4E5E-441E-AFED-969F1360B126";
paths = (
{
closed = 1;
nodes = (
"357 0 LINE SMOOTH",
"518.333 0 OFFCURVE",
"619 77.667 OFFCURVE",
"619 207 CURVE SMOOTH",
"619 299 OFFCURVE",
"585 353 OFFCURVE",
"491 374 CURVE",
"491 379 LINE",
"561.667 391 OFFCURVE",
"601 451.667 OFFCURVE",
"601 533 CURVE SMOOTH",
"601 667.667 OFFCURVE",
"501.333 714 OFFCURVE",
"312 714 CURVE SMOOTH",
"90 714 LINE",
"90 0 LINE"
);
},
{
closed = 1;
nodes = (
"241 311 LINE",
"335 311 LINE SMOOTH",
"431 311 OFFCURVE",
"462 275.333 OFFCURVE",
"462 222 CURVE SMOOTH",
"462 163.333 OFFCURVE",
"430.667 125 OFFCURVE",
"340 125 CURVE SMOOTH",
"241 125 LINE"
);
},
{
closed = 1;
nodes = (
"241 590 LINE",
"321 590 LINE SMOOTH",
"407.667 590 OFFCURVE",
"446 567.667 OFFCURVE",
"446 513 CURVE SMOOTH",
"446 458.333 OFFCURVE",
"417 431 OFFCURVE",
"329 431 CURVE SMOOTH",
"241 431 LINE"
);
}
);
width = 672;
}
);
unicode = 0042;
},
{
export = 0;
glyphname = C;
lastChange = "2019-11-21 14:59:09 +0000";
layers = (
{
anchors = (
{
name = bottom;
position = "{372, 0}";
},
{
name = top;
position = "{380, 714}";
},
{
name = topright;
position = "{612, 714}";
}
);
layerId = master01;
paths = (
{
closed = 1;
nodes = (
"468 -10 OFFCURVE",
"520 -1 OFFCURVE",
"573 19 CURVE",
"573 97 LINE",
"519 81 OFFCURVE",
"464 69 OFFCURVE",
"402 69 CURVE SMOOTH",
"238 69 OFFCURVE",
"156 180 OFFCURVE",
"156 357 CURVE SMOOTH",
"156 536 OFFCURVE",
"250 645 OFFCURVE",
"403 645 CURVE SMOOTH",
"467 645 OFFCURVE",
"521 626 OFFCURVE",
"565 606 CURVE",
"601 682 LINE",
"547 709 OFFCURVE",
"477 724 OFFCURVE",
"404 724 CURVE SMOOTH",
"183 724 OFFCURVE",
"61 574 OFFCURVE",
"61 358 CURVE SMOOTH",
"61 133 OFFCURVE",
"170 -10 OFFCURVE",
"389 -10 CURVE SMOOTH"
);
}
);
userData = {
com.schriftgestaltung.Glyphs.category = Letter;
com.schriftgestaltung.Glyphs.lastChange = "2017/12/05 22:37:38";
com.schriftgestaltung.Glyphs.script = latin;
com.schriftgestaltung.Glyphs.subCategory = Uppercase;
};
width = 632;
},
{
anchors = (
{
name = bottom;
position = "{379, 0}";
},
{
name = top;
position = "{387, 714}";
},
{
name = topright;
position = "{619, 714}";
}
);
layerId = "201D1995-4E5E-441E-AFED-969F1360B126";
paths = (
{
closed = 1;
nodes = (
"455 -10 OFFCURVE",
"512.333 1.667 OFFCURVE",
"575 27 CURVE",
"575 154 LINE",
"507 130 OFFCURVE",
"450.333 116 OFFCURVE",
"393 116 CURVE SMOOTH",
"267.667 116 OFFCURVE",
"214 203 OFFCURVE",
"214 355 CURVE SMOOTH",
"214 505.667 OFFCURVE",
"277 598 OFFCURVE",
"393 598 CURVE SMOOTH",
"445 598 OFFCURVE",
"499.667 576.333 OFFCURVE",
"553 551 CURVE",
"602 674 LINE",
"536.667 704.667 OFFCURVE",
"463.667 724 OFFCURVE",
"393 724 CURVE SMOOTH",
"180 724 OFFCURVE",
"58 575 OFFCURVE",
"58 356 CURVE SMOOTH",
"58 135 OFFCURVE",
"157 -10 OFFCURVE",
"379 -10 CURVE SMOOTH"
);
}
);
width = 637;
}
);
leftKerningGroup = C;
rightKerningGroup = C;
unicode = 0043;
},
{
export = 0;
glyphname = D;
lastChange = "2019-11-21 14:59:09 +0000";
layers = (
{
anchors = (
{
name = bottom;
position = "{342, 0}";
},
{
name = center;
position = "{365, 357}";
},
{
name = top;
position = "{361, 714}";
},
{
name = topright;
position = "{710, 714}";
}
);
layerId = master01;
paths = (
{
closed = 1;
nodes = (
"296 0 LINE SMOOTH",
"531 0 OFFCURVE",
"669 123 OFFCURVE",
"669 364 CURVE SMOOTH",
"669 593 OFFCURVE",
"532 714 OFFCURVE",
"317 714 CURVE SMOOTH",
"97 714 LINE",
"97 0 LINE"
);
},
{
closed = 1;
nodes = (
"187 637 LINE",
"304 637 LINE SMOOTH",
"476 637 OFFCURVE",
"574 551 OFFCURVE",
"574 361 CURVE SMOOTH",
"574 173 OFFCURVE",
"477 77 OFFCURVE",
"284 77 CURVE SMOOTH",
"187 77 LINE"
);
}
);
userData = {
com.schriftgestaltung.Glyphs.category = Letter;
com.schriftgestaltung.Glyphs.lastChange = "2017/12/05 22:37:38";
com.schriftgestaltung.Glyphs.script = latin;
com.schriftgestaltung.Glyphs.subCategory = Uppercase;
};
width = 730;
},
{
anchors = (
{
name = bottom;
position = "{345, 0}";
},
{
name = center;
position = "{368, 357}";
},
{
name = top;
position = "{364, 714}";
},
{
name = topright;
position = "{713, 714}";
}
);
layerId = "201D1995-4E5E-441E-AFED-969F1360B126";
paths = (
{
closed = 1;
nodes = (
"292 0 LINE SMOOTH",
"537.333 0 OFFCURVE",
"682 122.667 OFFCURVE",
"682 364 CURVE SMOOTH",
"682 588 OFFCURVE",
"542 714 OFFCURVE",
"314 714 CURVE SMOOTH",
"90 714 LINE",
"90 0 LINE"
);
},
{
closed = 1;
nodes = (
"241 590 LINE",
"322 590 LINE SMOOTH",
"454 590 OFFCURVE",
"525 517.333 OFFCURVE",
"525 360 CURVE SMOOTH",
"525 203.333 OFFCURVE",
"452 125 OFFCURVE",
"306 125 CURVE SMOOTH",
"241 125 LINE"
);
}
);
width = 740;
}
);
rightKerningGroup = D;
unicode = 0044;
},
{
export = 0;
glyphname = E;
lastChange = "2019-11-21 14:59:09 +0000";
layers = (
{
anchors = (
{
name = bottom;
position = "{300, 0}";
},
{
name = top;
position = "{305, 714}";
},
{
name = topright;
position = "{536, 714}";
}
);
layerId = master01;
paths = (
{
closed = 1;
nodes = (
"496 0 LINE",
"496 79 LINE",
"187 79 LINE",
"187 334 LINE",
"478 334 LINE",
"478 412 LINE",
"187 412 LINE",
"187 635 LINE",
"496 635 LINE",
"496 714 LINE",
"97 714 LINE",
"97 0 LINE"
);
}
);
userData = {
com.schriftgestaltung.Glyphs.category = Letter;
com.schriftgestaltung.Glyphs.lastChange = "2017/12/05 22:37:38";
com.schriftgestaltung.Glyphs.script = latin;
com.schriftgestaltung.Glyphs.subCategory = Uppercase;
};
width = 556;
},
{
anchors = (
{
name = bottom;
position = "{303, 0}";
},
{
name = top;
position = "{308, 714}";
},
{
name = topright;
position = "{539, 714}";
}
);
layerId = "201D1995-4E5E-441E-AFED-969F1360B126";
paths = (
{
closed = 1;
nodes = (
"501 0 LINE",
"501 125 LINE",
"241 125 LINE",
"241 309 LINE",
"483 309 LINE",
"483 433 LINE",
"241 433 LINE",
"241 590 LINE",
"501 590 LINE",
"501 714 LINE",
"90 714 LINE",
"90 0 LINE"
);
}
);
width = 560;
}
);
rightKerningGroup = E;
unicode = 0045;
},
{
export = 0;
glyphname = F;
lastChange = "2019-11-21 14:59:09 +0000";
layers = (
{
anchors = (
{
name = bottom;
position = "{260, 0}";
},
{
name = top;
position = "{298, 714}";
},
{
name = topright;
position = "{499, 714}";
}
);
layerId = master01;
paths = (
{
closed = 1;
nodes = (
"187 0 LINE",
"187 303 LINE",
"477 303 LINE",
"477 382 LINE",
"187 382 LINE",
"187 635 LINE",
"496 635 LINE",
"496 714 LINE",
"97 714 LINE",
"97 0 LINE"
);
}
);
userData = {
com.schriftgestaltung.Glyphs.category = Letter;
com.schriftgestaltung.Glyphs.lastChange = "2017/12/05 22:37:38";
com.schriftgestaltung.Glyphs.script = latin;
com.schriftgestaltung.Glyphs.subCategory = Uppercase;
};
width = 519;
},
{
anchors = (
{
name = bottom;
position = "{273, 0}";
},
{
name = top;
position = "{311, 714}";
},
{
name = topright;
position = "{505, 714}";
}
);
layerId = "201D1995-4E5E-441E-AFED-969F1360B126";
paths = (
{
closed = 1;
nodes = (
"239 0 LINE",
"239 282 LINE",
"481 282 LINE",
"481 406 LINE",
"239 406 LINE",
"239 590 LINE",
"499 590 LINE",
"499 714 LINE",
"90 714 LINE",
"90 0 LINE"
);
}
);
width = 549;
}
);
unicode = 0046;
},
{
export = 0;
glyphname = G;
lastChange = "2019-11-21 14:59:09 +0000";
layers = (
{
anchors = (
{
name = bottom;
position = "{402, 0}";
},
{
name = top;
position = "{405, 714}";
},
{
name = topright;
position = "{708, 714}";
}
);
layerId = master01;
paths = (
{
closed = 1;
nodes = (
"503 -10 OFFCURVE",
"577 2 OFFCURVE",
"654 27 CURVE",
"654 377 LINE",
"407 377 LINE",
"407 297 LINE",
"564 297 LINE",
"564 85 LINE",
"528 76 OFFCURVE",
"487 68 OFFCURVE",
"424 68 CURVE SMOOTH",
"232 68 OFFCURVE",
"155 186 OFFCURVE",
"155 357 CURVE SMOOTH",
"155 535 OFFCURVE",
"255 645 OFFCURVE",
"426 645 CURVE SMOOTH",
"494 645 OFFCURVE",
"559 626 OFFCURVE",
"610 604 CURVE",
"644 682 LINE",
"583 708 OFFCURVE",
"511 724 OFFCURVE",
"431 724 CURVE SMOOTH",
"197 724 OFFCURVE",
"61 580 OFFCURVE",
"61 357 CURVE SMOOTH",
"61 131 OFFCURVE",
"181 -10 OFFCURVE",
"403 -10 CURVE SMOOTH"
);
}
);
userData = {
com.schriftgestaltung.Glyphs.category = Letter;
com.schriftgestaltung.Glyphs.lastChange = "2017/12/05 22:37:38";
com.schriftgestaltung.Glyphs.script = latin;
com.schriftgestaltung.Glyphs.subCategory = Uppercase;
};
width = 728;
},
{
anchors = (
{
name = bottom;
position = "{429, 0}";
},
{
name = top;
position = "{432, 714}";
},
{
name = topright;
position = "{735, 714}";
}
);
layerId = "201D1995-4E5E-441E-AFED-969F1360B126";
paths = (
{
closed = 1;
nodes = (
"491.333 -10 OFFCURVE",
"569.333 5.667 OFFCURVE",
"644 31 CURVE",
"644 401 LINE",
"361 401 LINE",
"361 275 LINE",
"496 275 LINE",
"496 126 LINE",
"469.333 120.667 OFFCURVE",
"442.667 116 OFFCURVE",
"400 116 CURVE SMOOTH",
"269 116 OFFCURVE",
"214 213 OFFCURVE",
"214 355 CURVE SMOOTH",
"214 493 OFFCURVE",
"290 598 OFFCURVE",
"430 598 CURVE SMOOTH",
"491.333 598 OFFCURVE",
"549 581.667 OFFCURVE",
"593 559 CURVE",
"643 680 LINE",
"583 706.667 OFFCURVE",
"507 724 OFFCURVE",
"431 724 CURVE SMOOTH",
"198 724 OFFCURVE",
"58 589 OFFCURVE",
"58 358 CURVE SMOOTH",
"58 118 OFFCURVE",
"176.667 -10 OFFCURVE",
"390 -10 CURVE SMOOTH"
);
}
);
width = 724;
}
);
leftKerningGroup = C;
unicode = 0047;
},
{
export = 0;
glyphname = H;
lastChange = "2019-11-21 14:59:09 +0000";
layers = (
{
anchors = (
{
name = bottom;
position = "{368, 0}";
},
{
name = center;
position = "{371, 357}";
},
{
name = top;
position = "{371, 714}";
},
{
name = topright;
position = "{721, 714}";
}
);
layerId = master01;
paths = (
{
closed = 1;
nodes = (
"187 0 LINE",
"187 333 LINE",
"553 333 LINE",
"553 0 LINE",
"643 0 LINE",
"643 714 LINE",
"553 714 LINE",
"553 412 LINE",
"187 412 LINE",
"187 714 LINE",
"97 714 LINE",
"97 0 LINE"
);
}
);
userData = {
com.schriftgestaltung.Glyphs.category = Letter;
com.schriftgestaltung.Glyphs.lastChange = "2017/12/05 22:37:38";
com.schriftgestaltung.Glyphs.script = latin;
com.schriftgestaltung.Glyphs.subCategory = Uppercase;
};
width = 741;
},
{
anchors = (
{
name = bottom;
position = "{381, 0}";
},
{
name = center;
position = "{384, 357}";
},
{
name = top;
position = "{384, 714}";
},
{
name = topright;
position = "{734, 714}";
}
);
layerId = "201D1995-4E5E-441E-AFED-969F1360B126";
paths = (
{
closed = 1;
nodes = (
"241 0 LINE",
"241 308 LINE",
"524 308 LINE",
"524 0 LINE",
"675 0 LINE",
"675 714 LINE",
"524 714 LINE",
"524 434 LINE",
"241 434 LINE",
"241 714 LINE",
"90 714 LINE",
"90 0 LINE"
);
}
);
width = 765;
}
);
unicode = 0048;
},
{
export = 0;
glyphname = I;
lastChange = "2019-11-21 14:59:09 +0000";
layers = (
{
anchors = (
{
name = bottom;
position = "{170, 0}";
},
{
name = top;
position = "{170, 714}";
},
{
name = topright;
position = "{319, 714}";
}
);
layerId = master01;
paths = (
{
closed = 1;
nodes = (
"298 0 LINE",
"298 52 LINE",
"214 71 LINE",
"214 642 LINE",
"298 662 LINE",
"298 714 LINE",
"40 714 LINE",
"40 662 LINE",
"124 642 LINE",
"124 71 LINE",
"40 52 LINE",
"40 0 LINE"
);
}
);
userData = {
com.schriftgestaltung.Glyphs.category = Letter;
com.schriftgestaltung.Glyphs.lastChange = "2017/12/05 22:37:38";
com.schriftgestaltung.Glyphs.script = latin;
com.schriftgestaltung.Glyphs.subCategory = Uppercase;
};
width = 339;
},
{
anchors = (
{
name = bottom;
position = "{192, 0}";
},
{
name = top;
position = "{192, 714}";
},
{
name = topright;
position = "{341, 714}";
}
);
layerId = "201D1995-4E5E-441E-AFED-969F1360B126";
paths = (
{
closed = 1;
nodes = (
"357 0 LINE",
"357 86 LINE",
"270 126 LINE",
"270 588 LINE",
"357 628 LINE",
"357 714 LINE",
"32 714 LINE",
"32 628 LINE",
"119 588 LINE",
"119 126 LINE",
"32 86 LINE",
"32 0 LINE"
);
}
);
width = 389;
}
);
unicode = 0049;
},
{
export = 0;
glyphname = J;
lastChange = "2019-11-21 14:59:09 +0000";
layers = (
{
anchors = (
{
name = bottom;
position = "{-4, -170}";
},
{
name = top;
position = "{137, 714}";
},
{
name = topright;
position = "{253, 714}";
}
);
layerId = master01;
paths = (
{
closed = 1;
nodes = (
"108 -190 OFFCURVE",
"182 -127 OFFCURVE",
"182 11 CURVE SMOOTH",
"182 714 LINE",
"92 714 LINE",
"92 4 LINE SMOOTH",
"92 -87 OFFCURVE",
"44 -111 OFFCURVE",
"-6 -111 CURVE SMOOTH",
"-33 -111 OFFCURVE",
"-57 -107 OFFCURVE",
"-78 -101 CURVE",
"-78 -177 LINE",
"-60 -185 OFFCURVE",
"-36 -190 OFFCURVE",
"-4 -190 CURVE SMOOTH"
);
}
);
userData = {
com.schriftgestaltung.Glyphs.category = Letter;
com.schriftgestaltung.Glyphs.lastChange = "2017/12/05 22:37:38";
com.schriftgestaltung.Glyphs.script = latin;
com.schriftgestaltung.Glyphs.subCategory = Uppercase;
};
width = 273;
},
{
anchors = (
{
name = bottom;
position = "{30, -170}";
},
{
name = top;
position = "{171, 714}";
},
{
name = topright;
position = "{287, 714}";
}
);
layerId = "201D1995-4E5E-441E-AFED-969F1360B126";
paths = (
{
closed = 1;
nodes = (
"168 -210 OFFCURVE",
"241 -118 OFFCURVE",
"241 46 CURVE SMOOTH",
"241 714 LINE",
"90 714 LINE",
"90 45 LINE SMOOTH",
"90 -32 OFFCURVE",
"72 -83 OFFCURVE",
"-3 -83 CURVE SMOOTH",
"-29.667 -83 OFFCURVE",
"-52.667 -78.333 OFFCURVE",
"-74 -73 CURVE",
"-74 -199 LINE",
"-52.667 -205.667 OFFCURVE",
"-23.667 -210 OFFCURVE",
"15 -210 CURVE SMOOTH"
);
}
);
width = 331;
}
);
unicode = 004A;
},
{
export = 0;
glyphname = K;
lastChange = "2019-11-21 14:59:09 +0000";
layers = (
{
anchors = (
{
name = bottom;
position = "{330, 0}";
},
{
name = top;
position = "{340, 714}";
},
{
name = topright;
position = "{599, 714}";
}
);
layerId = master01;
paths = (
{
closed = 1;
nodes = (
"187 0 LINE",
"187 277 LINE",
"260 341 LINE",
"513 0 LINE",
"619 0 LINE",
"325 403 LINE",
"608 714 LINE",
"503 714 LINE",
"310 498 LINE SMOOTH",
"269 452 OFFCURVE",
"227 407 OFFCURVE",
"187 362 CURVE",
"187 714 LINE",
"97 714 LINE",
"97 0 LINE"
);
}
);
userData = {
com.schriftgestaltung.Glyphs.category = Letter;
com.schriftgestaltung.Glyphs.lastChange = "2017/12/05 22:37:38";
com.schriftgestaltung.Glyphs.script = latin;
com.schriftgestaltung.Glyphs.subCategory = Uppercase;
};
width = 619;
},
{
anchors = (
{
name = bottom;
position = "{353, 0}";
},
{
name = top;
position = "{363, 714}";
},
{
name = topright;
position = "{622, 714}";
}
);
layerId = "201D1995-4E5E-441E-AFED-969F1360B126";
paths = (
{
closed = 1;
nodes = (
"241 0 LINE",
"241 255 LINE",
"305 301 LINE",
"492 0 LINE",
"664 0 LINE",
"413 398 LINE",
"662 714 LINE",
"494 714 LINE",
"301 471 LINE",
"281 443 OFFCURVE",
"261 415 OFFCURVE",
"241 387 CURVE",
"241 714 LINE",
"90 714 LINE",
"90 0 LINE"
);
}
);
width = 664;
}
);
rightKerningGroup = K;
unicode = 004B;
},
{
export = 0;
glyphname = L;
lastChange = "2019-11-21 14:59:09 +0000";
layers = (
{
anchors = (
{
name = bottom;
position = "{300, 0}";
},
{
name = center;
position = "{262, 357}";
},
{
name = top;
position = "{140, 714}";
},
{
name = topright;
position = "{364, 714}";
}
);
layerId = master01;
paths = (
{
closed = 1;
nodes = (
"499 0 LINE",
"499 80 LINE",
"187 80 LINE",
"187 714 LINE",
"97 714 LINE",
"97 0 LINE"
);
}
);
userData = {
com.schriftgestaltung.Glyphs.category = Letter;
com.schriftgestaltung.Glyphs.lastChange = "2017/12/05 22:37:38";
com.schriftgestaltung.Glyphs.script = latin;
com.schriftgestaltung.Glyphs.subCategory = Uppercase;
};
width = 524;
},
{
anchors = (
{
name = bottom;
position = "{323, 0}";
},
{
name = center;
position = "{285, 357}";
},
{
name = top;
position = "{163, 714}";
},
{
name = topright;
position = "{387, 714}";
}
);
layerId = "201D1995-4E5E-441E-AFED-969F1360B126";
paths = (
{
closed = 1;
nodes = (
"531 0 LINE",
"531 125 LINE",
"241 125 LINE",
"241 714 LINE",
"90 714 LINE",
"90 0 LINE"
);
}
);
width = 565;
}
);
rightKerningGroup = L;
unicode = 004C;
},
{
export = 0;
glyphname = M;
lastChange = "2019-11-21 14:59:09 +0000";
layers = (
{
anchors = (
{
name = bottom;
position = "{448, 0}";
},
{
name = top;
position = "{454, 714}";
},
{
name = topright;
position = "{887, 714}";
}
);
layerId = master01;
paths = (
{
closed = 1;
nodes = (
"180 0 LINE",
"180 433 LINE SMOOTH",
"180 509 OFFCURVE",
"177 585 OFFCURVE",
"173 626 CURVE",
"177 626 LINE",
"412 0 LINE",
"486 0 LINE",
"724 625 LINE",
"728 625 LINE",
"725 582 OFFCURVE",
"721 508 OFFCURVE",
"721 439 CURVE SMOOTH",
"721 0 LINE",
"810 0 LINE",
"810 714 LINE",
"678 714 LINE",
"454 129 LINE",
"450 129 LINE",
"230 714 LINE",
"97 714 LINE",
"97 0 LINE"
);
}
);
userData = {
com.schriftgestaltung.Glyphs.category = Letter;
com.schriftgestaltung.Glyphs.lastChange = "2017/12/05 22:37:38";
com.schriftgestaltung.Glyphs.script = latin;
com.schriftgestaltung.Glyphs.subCategory = Uppercase;
};
width = 907;
},
{
anchors = (
{
name = bottom;
position = "{461, 0}";
},
{
name = top;
position = "{467, 714}";
},
{
name = topright;
position = "{900, 714}";
}
);
layerId = "201D1995-4E5E-441E-AFED-969F1360B126";
paths = (
{
closed = 1;
nodes = (
"225 0 LINE",
"225 332 LINE SMOOTH",
"225 397 OFFCURVE",
"221 483 OFFCURVE",
"216 560 CURVE",
"220 560 LINE",
"392 0 LINE",
"531 0 LINE",
"715 559 LINE",
"719 559 LINE",
"715 504 OFFCURVE",
"712 419 OFFCURVE",
"712 338 CURVE SMOOTH",
"712 0 LINE",
"853 0 LINE",
"853 714 LINE",
"647 714 LINE",
"468 168 LINE",
"465 168 LINE",
"296 714 LINE",
"90 714 LINE",
"90 0 LINE"
);
}
);
width = 943;
}
);
unicode = 004D;
},
{
export = 0;
glyphname = N;
lastChange = "2019-11-21 14:59:09 +0000";
layers = (
{
anchors = (
{
name = bottom;
position = "{380, 0}";
},
{
name = top;
position = "{380, 714}";
},
{
name = topright;
position = "{740, 714}";
}
);
layerId = master01;
paths = (
{
closed = 1;
nodes = (
"180 0 LINE",
"180 399 LINE SMOOTH",
"180 472 OFFCURVE",
"175 546 OFFCURVE",
"172 593 CURVE",
"176 593 LINE",
"558 0 LINE",
"663 0 LINE",
"663 714 LINE",
"579 714 LINE",
"579 311 LINE SMOOTH",
"579 246 OFFCURVE",
"584 155 OFFCURVE",
"586 123 CURVE",
"582 123 LINE",
"201 714 LINE",
"97 714 LINE",
"97 0 LINE"
);
}
);
userData = {
com.schriftgestaltung.Glyphs.category = Letter;
com.schriftgestaltung.Glyphs.lastChange = "2017/12/05 22:37:38";
com.schriftgestaltung.Glyphs.script = latin;
com.schriftgestaltung.Glyphs.subCategory = Uppercase;
};
width = 760;
},
{
anchors = (
{
name = bottom;
position = "{403, 0}";
},
{
name = top;
position = "{403, 714}";
},
{
name = topright;
position = "{763, 714}";
}
);
layerId = "201D1995-4E5E-441E-AFED-969F1360B126";
paths = (
{
closed = 1;
nodes = (
"225 0 LINE",
"225 336 LINE SMOOTH",
"225 401 OFFCURVE",
"219 495 OFFCURVE",
"216 540 CURVE",
"220 540 LINE",
"531 0 LINE",
"723 0 LINE",
"723 714 LINE",
"587 714 LINE",
"587 376 LINE SMOOTH",
"587 313 OFFCURVE",
"591 222 OFFCURVE",
"594 179 CURVE",
"591 179 LINE",
"281 714 LINE",
"90 714 LINE",
"90 0 LINE"
);
}
);
width = 813;
}
);
unicode = 004E;
},
{
export = 0;
glyphname = O;
lastChange = "2019-11-21 14:59:09 +0000";
layers = (
{
anchors = (
{
name = bottom;
position = "{392, 0}";
},
{
name = center;
position = "{391, 357}";
},
{
name = top;
position = "{391, 714}";
},
{
name = topright;
position = "{761, 714}";
}
);
layerId = master01;
paths = (
{
closed = 1;
nodes = (
"606 -10 OFFCURVE",
"720 137 OFFCURVE",
"720 358 CURVE SMOOTH",
"720 580 OFFCURVE",
"606 725 OFFCURVE",
"392 725 CURVE SMOOTH",
"168 725 OFFCURVE",
"61 578 OFFCURVE",
"61 359 CURVE SMOOTH",
"61 138 OFFCURVE",
"168 -10 OFFCURVE",
"391 -10 CURVE SMOOTH"
);
},
{
closed = 1;
nodes = (
"230 68 OFFCURVE",
"156 178 OFFCURVE",
"156 358 CURVE SMOOTH",
"156 538 OFFCURVE",
"230 646 OFFCURVE",
"392 646 CURVE SMOOTH",
"553 646 OFFCURVE",
"625 538 OFFCURVE",
"625 358 CURVE SMOOTH",
"625 178 OFFCURVE",
"553 68 OFFCURVE",
"391 68 CURVE SMOOTH"
);
}
);
userData = {
com.schriftgestaltung.Glyphs.category = Letter;
com.schriftgestaltung.Glyphs.lastChange = "2017/12/05 22:37:38";
com.schriftgestaltung.Glyphs.script = latin;
com.schriftgestaltung.Glyphs.subCategory = Uppercase;
};
width = 781;
},
{
anchors = (
{
name = bottom;
position = "{399, 0}";
},
{
name = center;
position = "{398, 357}";
},
{
name = top;
position = "{398, 714}";
},
{
name = topright;
position = "{768, 714}";
}
);
layerId = "201D1995-4E5E-441E-AFED-969F1360B126";
paths = (
{
closed = 1;
nodes = (
"623 -10 OFFCURVE",
"738 128 OFFCURVE",
"738 358 CURVE SMOOTH",
"738 584 OFFCURVE",
"628 725 OFFCURVE",
"399 725 CURVE SMOOTH",
"173 725 OFFCURVE",
"58 589 OFFCURVE",
"58 359 CURVE SMOOTH",
"58 132 OFFCURVE",
"169 -10 OFFCURVE",
"398 -10 CURVE SMOOTH"
);
},
{
closed = 1;
nodes = (
"271.333 117 OFFCURVE",
"217 208.667 OFFCURVE",
"217 358 CURVE SMOOTH",
"217 507.333 OFFCURVE",
"271 599 OFFCURVE",
"399 599 CURVE SMOOTH",
"527 599 OFFCURVE",
"579 507.333 OFFCURVE",
"579 358 CURVE SMOOTH",
"579 208.667 OFFCURVE",
"527.333 117 OFFCURVE",
"398 117 CURVE SMOOTH"
);
}
);
width = 796;
}
);
leftKerningGroup = C;
rightKerningGroup = D;
unicode = 004F;
},
{
export = 0;
glyphname = P;
lastChange = "2019-11-21 14:59:09 +0000";
layers = (
{
anchors = (
{
name = bottom;
position = "{303, 0}";
},
{
name = top;
position = "{317, 714}";
},
{
name = topright;
position = "{585, 714}";
}
);
layerId = master01;
paths = (
{
closed = 1;
nodes = (
"187 0 LINE",
"187 278 LINE",
"269 278 LINE SMOOTH",
"483 278 OFFCURVE",
"554 386 OFFCURVE",
"554 504 CURVE SMOOTH",
"554 637 OFFCURVE",
"473 714 OFFCURVE",
"286 714 CURVE SMOOTH",
"97 714 LINE",
"97 0 LINE"
);
},
{
closed = 1;
nodes = (
"187 637 LINE",
"278 637 LINE SMOOTH",
"404 637 OFFCURVE",
"461 592 OFFCURVE",
"461 500 CURVE SMOOTH",
"461 395 OFFCURVE",
"395 355 OFFCURVE",
"259 355 CURVE SMOOTH",
"187 355 LINE"
);
}
);
userData = {
com.schriftgestaltung.Glyphs.category = Letter;
com.schriftgestaltung.Glyphs.lastChange = "2017/12/05 22:37:38";
com.schriftgestaltung.Glyphs.script = latin;
com.schriftgestaltung.Glyphs.subCategory = Uppercase;
};
width = 605;
},
{
anchors = (
{
name = bottom;
position = "{306, 0}";
},
{
name = top;
position = "{320, 714}";
},
{
name = topright;
position = "{588, 714}";
}
);
layerId = "201D1995-4E5E-441E-AFED-969F1360B126";
paths = (
{
closed = 1;
nodes = (
"241 0 LINE",
"241 254 LINE",
"306 254 LINE SMOOTH",
"478 254 OFFCURVE",
"583 332 OFFCURVE",
"583 491 CURVE SMOOTH",
"583 629.667 OFFCURVE",
"502 714 OFFCURVE",
"318 714 CURVE SMOOTH",
"90 714 LINE",
"90 0 LINE"
);
},
{
closed = 1;
nodes = (
"241 590 LINE",
"310 590 LINE SMOOTH",
"390 590 OFFCURVE",
"430 555.333 OFFCURVE",
"430 486 CURVE SMOOTH",
"430 410 OFFCURVE",
"376.333 378 OFFCURVE",
"291 378 CURVE SMOOTH",
"241 378 LINE"
);
}
);
width = 628;
}
);
rightKerningGroup = P;
unicode = 0050;
},
{
export = 0;
glyphname = Q;
lastChange = "2019-11-21 14:59:09 +0000";
layers = (
{
anchors = (
{
name = bottom;
position = "{391, -170}";
},
{
name = top;
position = "{391, 714}";
},
{
name = topright;
position = "{761, 714}";
}
);
layerId = master01;
paths = (
{
closed = 1;
nodes = (
"683 -170 LINE",
"512 8 LINE",
"649 54 OFFCURVE",
"720 183 OFFCURVE",
"720 358 CURVE SMOOTH",
"720 580 OFFCURVE",
"606 725 OFFCURVE",
"392 725 CURVE SMOOTH",
"168 725 OFFCURVE",
"61 578 OFFCURVE",
"61 359 CURVE SMOOTH",
"61 138 OFFCURVE",
"168 -10 OFFCURVE",
"391 -10 CURVE SMOOTH",
"399 -10 OFFCURVE",
"408 -9 OFFCURVE",
"416 -9 CURVE",
"554 -170 LINE"
);
},
{
closed = 1;
nodes = (
"230 68 OFFCURVE",
"156 178 OFFCURVE",
"156 358 CURVE SMOOTH",
"156 538 OFFCURVE",
"230 646 OFFCURVE",
"392 646 CURVE SMOOTH",
"553 646 OFFCURVE",
"625 538 OFFCURVE",
"625 358 CURVE SMOOTH",
"625 178 OFFCURVE",
"553 68 OFFCURVE",
"391 68 CURVE SMOOTH"
);
}
);
userData = {
com.schriftgestaltung.Glyphs.category = Letter;
com.schriftgestaltung.Glyphs.lastChange = "2017/12/05 22:37:38";
com.schriftgestaltung.Glyphs.script = latin;
com.schriftgestaltung.Glyphs.subCategory = Uppercase;
};
width = 781;
},
{
anchors = (
{
name = bottom;
position = "{398, -170}";
},
{
name = top;
position = "{398, 714}";
},
{
name = topright;
position = "{768, 714}";
}
);
layerId = "201D1995-4E5E-441E-AFED-969F1360B126";
paths = (
{
closed = 1;
nodes = (
"734 -170 LINE",
"562 22 LINE",
"682 75.333 OFFCURVE",
"738 198 OFFCURVE",
"738 358 CURVE SMOOTH",
"738 584 OFFCURVE",
"628 725 OFFCURVE",
"399 725 CURVE SMOOTH",
"173 725 OFFCURVE",
"58 589 OFFCURVE",
"58 359 CURVE SMOOTH",
"58 132 OFFCURVE",
"169 -10 OFFCURVE",
"398 -10 CURVE SMOOTH",
"402 -10 OFFCURVE",
"405 -10 OFFCURVE",
"409 -10 CURVE",
"540 -170 LINE"
);
},
{
closed = 1;
nodes = (
"271.333 117 OFFCURVE",
"217 208.667 OFFCURVE",
"217 358 CURVE SMOOTH",
"217 507.333 OFFCURVE",
"271 599 OFFCURVE",
"399 599 CURVE SMOOTH",
"527 599 OFFCURVE",
"579 507.333 OFFCURVE",
"579 358 CURVE SMOOTH",
"579 209 OFFCURVE",
"527.333 117 OFFCURVE",
"398 117 CURVE SMOOTH"
);
}
);
width = 796;
}
);
leftKerningGroup = C;
rightKerningGroup = D;
unicode = 0051;
},
{
export = 0;
glyphname = R;
lastChange = "2019-11-21 14:59:09 +0000";
layers = (
{
anchors = (
{
name = bottom;
position = "{328, 0}";
},
{
name = top;
position = "{311, 714}";
},
{
name = topright;
position = "{602, 714}";
}
);
layerId = master01;
paths = (
{
closed = 1;
nodes = (
"187 0 LINE",
"187 295 LINE",
"329 295 LINE",
"502 0 LINE",
"607 0 LINE",
"411 320 LINE",
"483 345 OFFCURVE",
"554 397 OFFCURVE",
"554 511 CURVE SMOOTH",
"554 647 OFFCURVE",
"471 714 OFFCURVE",
"294 714 CURVE SMOOTH",
"97 714 LINE",
"97 0 LINE"
);
},
{
closed = 1;
nodes = (
"187 636 LINE",
"289 636 LINE SMOOTH",
"406 636 OFFCURVE",
"461 600 OFFCURVE",
"461 507 CURVE SMOOTH",
"461 417 OFFCURVE",
"410 371 OFFCURVE",
"294 371 CURVE SMOOTH",
"187 371 LINE"
);
}
);
userData = {
com.schriftgestaltung.Glyphs.category = Letter;
com.schriftgestaltung.Glyphs.lastChange = "2017/12/05 22:37:38";
com.schriftgestaltung.Glyphs.script = latin;
com.schriftgestaltung.Glyphs.subCategory = Uppercase;
};
width = 622;
},
{
anchors = (
{
name = bottom;
position = "{341, 0}";
},
{
name = top;
position = "{324, 714}";
},
{
name = topright;
position = "{615, 714}";
}
);
layerId = "201D1995-4E5E-441E-AFED-969F1360B126";
paths = (
{
closed = 1;
nodes = (
"241 0 LINE",
"241 274 LINE",
"322 274 LINE",
"492 0 LINE",
"660 0 LINE",
"450 311 LINE",
"529 347 OFFCURVE",
"583 408 OFFCURVE",
"583 500 CURVE SMOOTH",
"583 644 OFFCURVE",
"492.667 714 OFFCURVE",
"298 714 CURVE SMOOTH",
"90 714 LINE",
"90 0 LINE"
);
},
{
closed = 1;
nodes = (
"241 590 LINE",
"287 590 LINE SMOOTH",
"384.333 590 OFFCURVE",
"430 564 OFFCURVE",
"430 496 CURVE SMOOTH",
"430 430.667 OFFCURVE",
"390 397 OFFCURVE",
"290 397 CURVE SMOOTH",
"241 397 LINE"
);
}
);
width = 660;
}
);
unicode = 0052;
},
{
export = 0;
glyphname = S;
lastChange = "2019-11-21 14:59:09 +0000";
layers = (
{
anchors = (
{
name = bottom;
position = "{257, 0}";
},
{
name = top;
position = "{285, 714}";
},
{
name = topright;
position = "{529, 714}";
}
);
layerId = master01;
paths = (
{
closed = 1;
nodes = (
"403 -10 OFFCURVE",
"502 64 OFFCURVE",
"502 191 CURVE SMOOTH",
"502 303 OFFCURVE",
"433 350 OFFCURVE",
"307 397 CURVE SMOOTH",
"191 440 OFFCURVE",
"151 469 OFFCURVE",
"151 541 CURVE SMOOTH",
"151 603 OFFCURVE",
"197 645 OFFCURVE",
"286 645 CURVE SMOOTH",
"348 645 OFFCURVE",
"407 628 OFFCURVE",
"457 607 CURVE",
"485 684 LINE",
"431 708 OFFCURVE",
"366 724 OFFCURVE",
"288 724 CURVE SMOOTH",
"153 724 OFFCURVE",
"60 655 OFFCURVE",
"60 542 CURVE SMOOTH",
"60 431 OFFCURVE",
"122 374 OFFCURVE",
"244 330 CURVE SMOOTH",
"373 283 OFFCURVE",
"412 253 OFFCURVE",
"412 183 CURVE SMOOTH",
"412 112 OFFCURVE",
"357 68 OFFCURVE",
"251 68 CURVE SMOOTH",
"175 68 OFFCURVE",
"99 89 OFFCURVE",
"51 110 CURVE",
"51 24 LINE",
"96 2 OFFCURVE",
"167 -10 OFFCURVE",
"247 -10 CURVE SMOOTH"
);
}
);
userData = {
com.schriftgestaltung.Glyphs.category = Letter;
com.schriftgestaltung.Glyphs.lastChange = "2017/12/05 22:37:38";
com.schriftgestaltung.Glyphs.script = latin;
com.schriftgestaltung.Glyphs.subCategory = Uppercase;
};
width = 549;
},
{
anchors = (
{
name = bottom;
position = "{272, 0}";
},
{
name = top;
position = "{300, 714}";
},
{
name = topright;
position = "{544, 714}";
}
);
layerId = "201D1995-4E5E-441E-AFED-969F1360B126";
paths = (
{
closed = 1;
nodes = (
"416 -10 OFFCURVE",
"511 71.333 OFFCURVE",
"511 198 CURVE SMOOTH",
"511 304 OFFCURVE",
"454 357 OFFCURVE",
"337 412 CURVE SMOOTH",
"247.667 454.667 OFFCURVE",
"202 475.333 OFFCURVE",
"202 526 CURVE SMOOTH",
"202 568.667 OFFCURVE",
"233.667 598 OFFCURVE",
"291 598 CURVE SMOOTH",
"345.667 598 OFFCURVE",
"393.667 582.667 OFFCURVE",
"459 556 CURVE",
"508 674 LINE",
"433.333 706 OFFCURVE",
"370.667 724 OFFCURVE",
"296 724 CURVE SMOOTH",
"146.667 724 OFFCURVE",
"54 649 OFFCURVE",
"54 521 CURVE SMOOTH",
"54 399.496 OFFCURVE",
"142.695 347.026 OFFCURVE",
"224 308 CURVE SMOOTH",
"299 272 OFFCURVE",
"363 245 OFFCURVE",
"363 191 CURVE SMOOTH",
"363 147 OFFCURVE",
"334.667 115 OFFCURVE",
"260 115 CURVE SMOOTH",
"188 115 OFFCURVE",
"114 144.667 OFFCURVE",
"46 174 CURVE",
"46 33 LINE",
"105.333 4.333 OFFCURVE",
"172.667 -10 OFFCURVE",
"248 -10 CURVE SMOOTH"
);
}
);
width = 551;
}
);
unicode = 0053;
},
{
export = 0;
glyphname = T;
lastChange = "2019-11-21 14:59:09 +0000";
layers = (
{
anchors = (
{
name = bottom;
position = "{278, 0}";
},
{
name = center;
position = "{278, 357}";
},
{
name = top;
position = "{278, 714}";
},
{
name = topright;
position = "{536, 714}";
}
);
layerId = master01;
paths = (
{
closed = 1;
nodes = (
"323 0 LINE",
"323 635 LINE",
"545 635 LINE",
"545 714 LINE",
"10 714 LINE",
"10 635 LINE",
"233 635 LINE",
"233 0 LINE"
);
}
);
userData = {
com.schriftgestaltung.Glyphs.category = Letter;
com.schriftgestaltung.Glyphs.lastChange = "2017/12/05 22:37:38";
com.schriftgestaltung.Glyphs.script = latin;
com.schriftgestaltung.Glyphs.subCategory = Uppercase;
};
width = 556;
},
{
anchors = (
{
name = bottom;
position = "{288, 0}";
},
{
name = center;
position = "{288, 357}";
},
{
name = top;
position = "{288, 714}";
},
{
name = topright;
position = "{546, 714}";
}
);
layerId = "201D1995-4E5E-441E-AFED-969F1360B126";
paths = (
{
closed = 1;
nodes = (
"365 0 LINE",
"365 588 LINE",
"559 588 LINE",
"559 714 LINE",
"20 714 LINE",
"20 588 LINE",
"214 588 LINE",
"214 0 LINE"
);
}
);
width = 579;
}
);
leftKerningGroup = T;
rightKerningGroup = T;
unicode = 0054;
},
{
export = 0;
glyphname = U;
lastChange = "2019-11-21 14:59:09 +0000";
layers = (
{
anchors = (
{
name = bottom;
position = "{364, 0}";
},
{
name = top;
position = "{366, 714}";
},
{
name = topright;
position = "{711, 714}";
}
);
layerId = master01;
paths = (
{
closed = 1;
nodes = (
"551 -10 OFFCURVE",
"640 104 OFFCURVE",
"640 252 CURVE SMOOTH",
"640 714 LINE",
"551 714 LINE",
"551 252 LINE SMOOTH",
"551 144 OFFCURVE",
"496 68 OFFCURVE",
"367 68 CURVE SMOOTH",
"242 68 OFFCURVE",
"180 135 OFFCURVE",
"180 251 CURVE SMOOTH",
"180 714 LINE",
"90 714 LINE",
"90 254 LINE SMOOTH",
"90 95 OFFCURVE",
"184 -10 OFFCURVE",
"362 -10 CURVE SMOOTH"
);
}
);
userData = {
com.schriftgestaltung.Glyphs.category = Letter;
com.schriftgestaltung.Glyphs.lastChange = "2017/12/05 22:37:38";
com.schriftgestaltung.Glyphs.script = latin;
com.schriftgestaltung.Glyphs.subCategory = Uppercase;
};
width = 731;
},
{
anchors = (
{
name = bottom;
position = "{379, 0}";
},
{
name = top;
position = "{381, 714}";
},
{
name = topright;
position = "{726, 714}";
}
);
layerId = "201D1995-4E5E-441E-AFED-969F1360B126";
paths = (
{
closed = 1;
nodes = (
"553 -10 OFFCURVE",
"671 85 OFFCURVE",
"671 252 CURVE SMOOTH",
"671 714 LINE",
"520 714 LINE",
"520 278 LINE SMOOTH",
"520 167.333 OFFCURVE",
"477.667 117 OFFCURVE",
"379 117 CURVE SMOOTH",
"284.333 117 OFFCURVE",
"236 158.333 OFFCURVE",
"236 277 CURVE SMOOTH",
"236 714 LINE",
"85 714 LINE",
"85 254 LINE SMOOTH",
"85 95.333 OFFCURVE",
"185.667 -10 OFFCURVE",
"375 -10 CURVE SMOOTH"
);
}
);
width = 756;
}
);
leftKerningGroup = U;
rightKerningGroup = U;
unicode = 0055;
},
{
export = 0;
glyphname = V;
lastChange = "2019-11-21 14:59:09 +0000";
layers = (
{
anchors = (
{
name = bottom;
position = "{299, 0}";
},
{
name = top;
position = "{303, 714}";
},
{
name = topright;
position = "{580, 714}";
}
);
layerId = master01;
paths = (
{
closed = 1;
nodes = (
"345 0 LINE",
"600 714 LINE",
"505 714 LINE",
"345 258 LINE SMOOTH",
"324 198 OFFCURVE",
"309 147 OFFCURVE",
"300 100 CURVE",
"290 147 OFFCURVE",
"276 197 OFFCURVE",
"255 256 CURVE SMOOTH",
"94 714 LINE",
"0 714 LINE",
"255 0 LINE"
);
}
);
userData = {
com.schriftgestaltung.Glyphs.category = Letter;
com.schriftgestaltung.Glyphs.lastChange = "2017/12/05 22:37:38";
com.schriftgestaltung.Glyphs.script = latin;
com.schriftgestaltung.Glyphs.subCategory = Uppercase;
};
width = 600;
},
{
anchors = (
{
name = bottom;
position = "{319, 0}";
},
{
name = top;
position = "{323, 714}";
},
{
name = topright;
position = "{600, 714}";
}
);
layerId = "201D1995-4E5E-441E-AFED-969F1360B126";
paths = (
{
closed = 1;
nodes = (
"407 0 LINE",
"650 714 LINE",
"497 714 LINE",
"362 289 LINE SMOOTH",
"352.909 263.999 OFFCURVE",
"330.187 170.04 OFFCURVE",
"325 132 CURVE",
"319.631 171.37 OFFCURVE",
"294.299 262.235 OFFCURVE",
"287 289 CURVE SMOOTH",
"153 714 LINE",
"0 714 LINE",
"242 0 LINE"
);
}
);
width = 650;
}
);
leftKerningGroup = V;
rightKerningGroup = V;
unicode = 0056;
},
{
export = 0;
glyphname = W;
lastChange = "2019-11-21 14:59:09 +0000";
layers = (
{
anchors = (
{
name = bottom;
position = "{458, 0}";
},
{
name = top;
position = "{465, 714}";
},
{
name = topright;
position = "{910, 714}";
}
);
layerId = master01;
paths = (
{
closed = 1;
nodes = (
"292 0 LINE",
"427 465 LINE SMOOTH",
"445 526 OFFCURVE",
"459 591 OFFCURVE",
"461 609 CURVE",
"464 591 OFFCURVE",
"480 525 OFFCURVE",
"497 468 CURVE SMOOTH",
"636 0 LINE",
"727 0 LINE",
"917 714 LINE",
"823 714 LINE",
"713 279 LINE SMOOTH",
"697 216 OFFCURVE",
"684 157 OFFCURVE",
"678 108 CURVE",
"671 154 OFFCURVE",
"658 218 OFFCURVE",
"639 280 CURVE SMOOTH",
"508 714 LINE",
"415 714 LINE",
"289 283 LINE SMOOTH",
"272 224 OFFCURVE",
"258 160 OFFCURVE",
"251 108 CURVE",
"244 158 OFFCURVE",
"233 216 OFFCURVE",
"217 278 CURVE SMOOTH",
"106 714 LINE",
"12 714 LINE",
"201 0 LINE"
);
}
);
userData = {
com.schriftgestaltung.Glyphs.category = Letter;
com.schriftgestaltung.Glyphs.lastChange = "2017/12/05 22:37:38";
com.schriftgestaltung.Glyphs.script = latin;
com.schriftgestaltung.Glyphs.subCategory = Uppercase;
};
width = 930;
},
{
anchors = (
{
name = bottom;
position = "{476, 0}";
},
{
name = top;
position = "{483, 714}";
},
{
name = topright;
position = "{928, 714}";
}
);
layerId = "201D1995-4E5E-441E-AFED-969F1360B126";
paths = (
{
closed = 1;
nodes = (
"354 0 LINE",
"450 374 LINE SMOOTH",
"463 425 OFFCURVE",
"480.46 506.439 OFFCURVE",
"483 542 CURVE",
"486 504 OFFCURVE",
"503 425 OFFCURVE",
"516 375 CURVE SMOOTH",
"613 0 LINE",
"785 0 LINE",
"967 714 LINE",
"818 714 LINE",
"727 324 LINE SMOOTH",
"715.918 270.808 OFFCURVE",
"697.373 181.777 OFFCURVE",
"692 137 CURVE",
"686.624 180.011 OFFCURVE",
"668.541 279.652 OFFCURVE",
"659 314 CURVE SMOOTH",
"555 714 LINE",
"412 714 LINE",
"308 314 LINE SMOOTH",
"298.35 279.259 OFFCURVE",
"280.205 180.372 OFFCURVE",
"275 137 CURVE",
"269.703 179.376 OFFCURVE",
"250.783 282.664 OFFCURVE",
"240 324 CURVE SMOOTH",
"149 714 LINE",
"0 714 LINE",
"182 0 LINE"
);
}
);
width = 967;
}
);
leftKerningGroup = V;
rightKerningGroup = V;
unicode = 0057;
},
{
export = 0;
glyphname = X;
lastChange = "2019-11-21 14:59:09 +0000";
layers = (
{
anchors = (
{
name = bottom;
position = "{293, 0}";
},
{
name = top;
position = "{291, 714}";
},
{
name = topright;
position = "{565, 714}";
}
);
layerId = master01;
paths = (
{
closed = 1;
nodes = (
"99 0 LINE",
"291 310 LINE",
"480 0 LINE",
"582 0 LINE",
"344 374 LINE",
"565 714 LINE",
"470 714 LINE",
"294 434 LINE",
"119 714 LINE",
"19 714 LINE",
"241 372 LINE",
"4 0 LINE"
);
}
);
userData = {
com.schriftgestaltung.Glyphs.category = Letter;
com.schriftgestaltung.Glyphs.lastChange = "2017/12/05 22:37:38";
com.schriftgestaltung.Glyphs.script = latin;
com.schriftgestaltung.Glyphs.subCategory = Uppercase;
};
width = 586;
},
{
anchors = (
{
name = bottom;
position = "{338, 0}";
},
{
name = top;
position = "{336, 714}";
},
{
name = topright;
position = "{610, 714}";
}
);
layerId = "201D1995-4E5E-441E-AFED-969F1360B126";
paths = (
{
closed = 1;
nodes = (
"162 0 LINE",
"328 270 LINE",
"494 0 LINE",
"667 0 LINE",
"426 360 LINE",
"650 714 LINE",
"487 714 LINE",
"336 457 LINE",
"182 714 LINE",
"15 714 LINE",
"237 368 LINE",
"0 0 LINE"
);
}
);
width = 667;
}
);
rightKerningGroup = K;
unicode = 0058;
},
{
export = 0;
glyphname = Y;
lastChange = "2019-11-21 14:59:09 +0000";
layers = (
{
anchors = (
{
name = bottom;
position = "{283, 0}";
},
{
name = top;
position = "{283, 714}";
},
{
name = topright;
position = "{546, 714}";
}
);
layerId = master01;
paths = (
{
closed = 1;
nodes = (
"328 0 LINE",
"328 277 LINE",
"566 714 LINE",
"469 714 LINE",
"283 363 LINE",
"98 714 LINE",
"0 714 LINE",
"238 273 LINE",
"238 0 LINE"
);
}
);
userData = {
com.schriftgestaltung.Glyphs.category = Letter;
com.schriftgestaltung.Glyphs.lastChange = "2017/12/05 22:37:38";
com.schriftgestaltung.Glyphs.script = latin;
com.schriftgestaltung.Glyphs.subCategory = Uppercase;
};
width = 566;
},
{
anchors = (
{
name = bottom;
position = "{313, 0}";
},
{
name = top;
position = "{313, 714}";
},
{
name = topright;
position = "{576, 714}";
}
);
layerId = "201D1995-4E5E-441E-AFED-969F1360B126";
paths = (
{
closed = 1;
nodes = (
"387 0 LINE",
"387 278 LINE",
"624 714 LINE",
"461 714 LINE",
"312 420 LINE",
"164 714 LINE",
"0 714 LINE",
"237 273 LINE",
"237 0 LINE"
);
}
);
width = 624;
}
);
leftKerningGroup = Y;
rightKerningGroup = Y;
unicode = 0059;
},
{
export = 0;
glyphname = Z;
lastChange = "2019-11-21 14:59:09 +0000";
layers = (
{
anchors = (
{
name = bottom;
position = "{297, 0}";
},
{
name = top;
position = "{290, 714}";
},
{
name = topright;
position = "{552, 714}";
}
);
layerId = master01;
paths = (
{
closed = 1;
nodes = (
"533 0 LINE",
"533 80 LINE",
"147 80 LINE",
"523 646 LINE",
"523 714 LINE",
"50 714 LINE",
"50 634 LINE",
"414 634 LINE",
"38 68 LINE",
"38 0 LINE"
);
}
);
userData = {
com.schriftgestaltung.Glyphs.category = Letter;
com.schriftgestaltung.Glyphs.lastChange = "2017/12/05 22:37:38";
com.schriftgestaltung.Glyphs.script = latin;
com.schriftgestaltung.Glyphs.subCategory = Uppercase;
};
width = 572;
},
{
anchors = (
{
name = bottom;
position = "{303, 0}";
},
{
name = top;
position = "{296, 714}";
},
{
name = topright;
position = "{558, 714}";
}
);
layerId = "201D1995-4E5E-441E-AFED-969F1360B126";
paths = (
{
closed = 1;
nodes = (
"555 0 LINE",
"555 125 LINE",
"204 125 LINE",
"546 616 LINE",
"546 714 LINE",
"33 714 LINE",
"33 589 LINE",
"366 589 LINE",
"24 98 LINE",
"24 0 LINE"
);
}
);
width = 579;
}
);
leftKerningGroup = Z;
rightKerningGroup = Z;
unicode = 005A;
},
{
export = 0;
glyphname = a;
lastChange = "2019-11-21 14:59:09 +0000";
layers = (
{
anchors = (
{
name = bottom;
position = "{281, 0}";
},
{
name = top;
position = "{281, 536}";
},
{
name = topright;
position = "{511, 536}";
}
);
layerId = master01;
paths = (
{
closed = 1;
nodes = (
"305 -10 OFFCURVE",
"348 17 OFFCURVE",
"395 76 CURVE",
"399 76 LINE",
"416 0 LINE",
"480 0 LINE",
"480 365 LINE SMOOTH",
"480 490 OFFCURVE",
"418 545 OFFCURVE",
"288 545 CURVE SMOOTH",
"218 545 OFFCURVE",
"152 524 OFFCURVE",
"105 499 CURVE",
"132 433 LINE",
"176 454 OFFCURVE",
"227 474 OFFCURVE",
"283 474 CURVE SMOOTH",
"353 474 OFFCURVE",
"394 444 OFFCURVE",
"394 355 CURVE SMOOTH",
"394 323 LINE",
"303 320 LINE SMOOTH",
"128 315 OFFCURVE",
"46 256 OFFCURVE",
"46 149 CURVE SMOOTH",
"46 40 OFFCURVE",
"118 -10 OFFCURVE",
"215 -10 CURVE SMOOTH"
);
},
{
closed = 1;
nodes = (
"177 61 OFFCURVE",
"137 88 OFFCURVE",
"137 148 CURVE SMOOTH",
"137 216 OFFCURVE",
"180 254 OFFCURVE",
"314 259 CURVE SMOOTH",
"393 262 LINE",
"393 214 LINE SMOOTH",
"393 110 OFFCURVE",
"325 61 OFFCURVE",
"235 61 CURVE SMOOTH"
);
}
);
userData = {
com.schriftgestaltung.Glyphs.category = Letter;
com.schriftgestaltung.Glyphs.lastChange = "2017/12/05 22:37:38";
com.schriftgestaltung.Glyphs.script = latin;
com.schriftgestaltung.Glyphs.subCategory = Lowercase;
};
width = 561;
},
{
anchors = (
{
name = bottom;
position = "{281, 0}";
},
{
name = top;
position = "{281, 536}";
},
{
name = topright;
position = "{511, 536}";
}
);
layerId = "201D1995-4E5E-441E-AFED-969F1360B126";
paths = (
{
closed = 1;
nodes = (
"301.667 -10 OFFCURVE",
"345.333 15.333 OFFCURVE",
"392 74 CURVE",
"396 74 LINE",
"425 0 LINE",
"529 0 LINE",
"529 364 LINE SMOOTH",
"529 494.667 OFFCURVE",
"448.667 557 OFFCURVE",
"302 557 CURVE SMOOTH",
"224.667 557 OFFCURVE",
"150.333 537.333 OFFCURVE",
"93 508 CURVE",
"142 407 LINE",
"192.667 429.667 OFFCURVE",
"242.667 447 OFFCURVE",
"296 447 CURVE SMOOTH",
"349.333 447 OFFCURVE",
"381 421.333 OFFCURVE",
"381 364 CURVE SMOOTH",
"381 340 LINE",
"286 337 LINE SMOOTH",
"123.333 330.333 OFFCURVE",
"42 279 OFFCURVE",
"42 163 CURVE SMOOTH",
"42 44.333 OFFCURVE",
"113.667 -10 OFFCURVE",
"211 -10 CURVE SMOOTH"
);
},
{
closed = 1;
nodes = (
"224.333 99 OFFCURVE",
"195 116.667 OFFCURVE",
"195 162 CURVE SMOOTH",
"195 214 OFFCURVE",
"227 248.333 OFFCURVE",
"323 251 CURVE SMOOTH",
"381 253 LINE",
"381 208 LINE SMOOTH",
"381 138.667 OFFCURVE",
"331 99 OFFCURVE",
"267 99 CURVE SMOOTH"
);
}
);
width = 600;
}
);
leftKerningGroup = a;
rightKerningGroup = a;
unicode = 0061;
},
{
export = 0;
glyphname = b;
lastChange = "2019-11-21 14:59:09 +0000";
layers = (
{
anchors = (
{
name = bottom;
position = "{322, 0}";
},
{
name = top;
position = "{338, 760}";
},
{
name = topright;
position = "{515, 760}";
}
);
layerId = master01;
paths = (
{
closed = 1;
nodes = (
"471 -10 OFFCURVE",
"560 84 OFFCURVE",
"560 268 CURVE SMOOTH",
"560 452 OFFCURVE",
"472 545 OFFCURVE",
"339 545 CURVE SMOOTH",
"255 545 OFFCURVE",
"203 510 OFFCURVE",
"173 465 CURVE",
"168 465 LINE",
"170 487 OFFCURVE",
"173 530 OFFCURVE",
"173 575 CURVE SMOOTH",
"173 760 LINE",
"85 760 LINE",
"85 0 LINE",
"148 0 LINE",
"166 68 LINE",
"173 68 LINE",
"203 25 OFFCURVE",
"255 -10 OFFCURVE",
"339 -10 CURVE SMOOTH"
);
},
{
closed = 1;
nodes = (
"208 63 OFFCURVE",
"173 135 OFFCURVE",
"173 267 CURVE SMOOTH",
"173 271 LINE SMOOTH",
"173 408 OFFCURVE",
"210 472 OFFCURVE",
"324 472 CURVE SMOOTH",
"422 472 OFFCURVE",
"469 404 OFFCURVE",
"469 269 CURVE SMOOTH",
"469 136 OFFCURVE",
"422 63 OFFCURVE",
"326 63 CURVE SMOOTH"
);
}
);
userData = {
com.schriftgestaltung.Glyphs.category = Letter;
com.schriftgestaltung.Glyphs.lastChange = "2017/12/05 22:37:38";
com.schriftgestaltung.Glyphs.script = latin;
com.schriftgestaltung.Glyphs.subCategory = Lowercase;
};
width = 615;
},
{
anchors = (
{
name = bottom;
position = "{315, 0}";
},
{
name = top;
position = "{331, 760}";
},
{
name = topright;
position = "{508, 760}";
}
);
layerId = "201D1995-4E5E-441E-AFED-969F1360B126";
paths = (
{
closed = 1;
nodes = (
"503.333 -10 OFFCURVE",
"588 87.333 OFFCURVE",
"588 274 CURVE SMOOTH",
"588 459.333 OFFCURVE",
"504.667 556 OFFCURVE",
"382 556 CURVE SMOOTH",
"303.333 556 OFFCURVE",
"256.333 520.333 OFFCURVE",
"227 475 CURVE",
"221 475 LINE",
"223.667 497.667 OFFCURVE",
"227 541.667 OFFCURVE",
"227 583 CURVE SMOOTH",
"227 760 LINE",
"78 760 LINE",
"78 0 LINE",
"192 0 LINE",
"217 60 LINE",
"227 60 LINE",
"256.333 24 OFFCURVE",
"298 -10 OFFCURVE",
"378 -10 CURVE SMOOTH"
);
},
{
closed = 1;
nodes = (
"253.333 111 OFFCURVE",
"227 169.667 OFFCURVE",
"227 275 CURVE SMOOTH",
"227 291 LINE SMOOTH",
"228.333 388.333 OFFCURVE",
"256.667 437 OFFCURVE",
"334 437 CURVE SMOOTH",
"396.667 437 OFFCURVE",
"436 382.667 OFFCURVE",
"436 276 CURVE SMOOTH",
"436 169.333 OFFCURVE",
"397.333 111 OFFCURVE",
"336 111 CURVE SMOOTH"
);
}
);
width = 633;
}
);
leftKerningGroup = b;
rightKerningGroup = b;
unicode = 0062;
},
{
export = 0;
glyphname = c;
lastChange = "2019-11-21 14:59:09 +0000";
layers = (
{
anchors = (
{
name = bottom;
position = "{281, 0}";
},
{
name = top;
position = "{284, 536}";
},
{
name = topright;
position = "{460, 536}";
}
);
layerId = master01;
paths = (
{
closed = 1;
nodes = (
"361 -10 OFFCURVE",
"402 0 OFFCURVE",
"438 19 CURVE",
"438 97 LINE",
"401 80 OFFCURVE",
"357 66 OFFCURVE",
"299 66 CURVE SMOOTH",
"198 66 OFFCURVE",
"146 137 OFFCURVE",
"146 266 CURVE SMOOTH",
"146 400 OFFCURVE",
"197 469 OFFCURVE",
"304 469 CURVE SMOOTH",
"341 469 OFFCURVE",
"388 456 OFFCURVE",
"420 444 CURVE",
"447 517 LINE",
"415 533 OFFCURVE",
"360 546 OFFCURVE",
"306 546 CURVE SMOOTH",
"162 546 OFFCURVE",
"55 463 OFFCURVE",
"55 265 CURVE SMOOTH",
"55 75 OFFCURVE",
"157 -10 OFFCURVE",
"300 -10 CURVE SMOOTH"
);
}
);
userData = {
com.schriftgestaltung.Glyphs.category = Letter;
com.schriftgestaltung.Glyphs.lastChange = "2017/12/05 22:37:38";
com.schriftgestaltung.Glyphs.script = latin;
com.schriftgestaltung.Glyphs.subCategory = Lowercase;
};
width = 480;
},
{
anchors = (
{
name = bottom;
position = "{271, 0}";
},
{
name = top;
position = "{274, 536}";
},
{
name = topright;
position = "{450, 536}";
}
);
layerId = "201D1995-4E5E-441E-AFED-969F1360B126";
paths = (
{
closed = 1;
nodes = (
"376 -10 OFFCURVE",
"420.667 1.667 OFFCURVE",
"466 31 CURVE",
"466 158 LINE",
"420.667 128.667 OFFCURVE",
"375.667 111 OFFCURVE",
"313 111 CURVE SMOOTH",
"239.667 111 OFFCURVE",
"197 161.667 OFFCURVE",
"197 271 CURVE SMOOTH",
"197 381 OFFCURVE",
"235.667 436 OFFCURVE",
"313 436 CURVE SMOOTH",
"353 436 OFFCURVE",
"392.333 422.667 OFFCURVE",
"439 404 CURVE",
"483 519 LINE",
"441.667 539 OFFCURVE",
"387.667 556 OFFCURVE",
"313 556 CURVE SMOOTH",
"140 556 OFFCURVE",
"45 454 OFFCURVE",
"45 270 CURVE SMOOTH",
"45 75.333 OFFCURVE",
"137.333 -10 OFFCURVE",
"300 -10 CURVE SMOOTH"
);
}
);
width = 514;
}
);
leftKerningGroup = c;
unicode = 0063;
},
{
export = 0;
glyphname = d;
lastChange = "2019-11-21 14:59:09 +0000";
layers = (
{
anchors = (
{
name = bottom;
position = "{292, 0}";
},
{
name = center;
position = "{308, 268}";
},
{
name = top;
position = "{275, 760}";
},
{
name = topright;
position = "{553, 760}";
}
);
layerId = master01;
paths = (
{
closed = 1;
nodes = (
"359 -10 OFFCURVE",
"410 26 OFFCURVE",
"442 72 CURVE",
"446 72 LINE",
"459 0 LINE",
"530 0 LINE",
"530 760 LINE",
"442 760 LINE",
"442 546 LINE SMOOTH",
"442 526 OFFCURVE",
"446 484 OFFCURVE",
"448 467 CURVE",
"442 467 LINE",
"409 511 OFFCURVE",
"359 546 OFFCURVE",
"276 546 CURVE SMOOTH",
"143 546 OFFCURVE",
"55 451 OFFCURVE",
"55 267 CURVE SMOOTH",
"55 83 OFFCURVE",
"142 -10 OFFCURVE",
"275 -10 CURVE SMOOTH"
);
},
{
closed = 1;
nodes = (
"193 63 OFFCURVE",
"146 137 OFFCURVE",
"146 265 CURVE SMOOTH",
"146 392 OFFCURVE",
"193 473 OFFCURVE",
"288 473 CURVE SMOOTH",
"407 473 OFFCURVE",
"443 399 OFFCURVE",
"443 266 CURVE SMOOTH",
"443 250 LINE SMOOTH",
"443 125 OFFCURVE",
"402 63 OFFCURVE",
"289 63 CURVE SMOOTH"
);
}
);
userData = {
com.schriftgestaltung.Glyphs.category = Letter;
com.schriftgestaltung.Glyphs.lastChange = "2017/12/05 22:37:38";
com.schriftgestaltung.Glyphs.script = latin;
com.schriftgestaltung.Glyphs.subCategory = Lowercase;
};
width = 615;
},
{
anchors = (
{
name = bottom;
position = "{282, 0}";
},
{
name = center;
position = "{298, 268}";
},
{
name = top;
position = "{265, 760}";
},
{
name = topright;
position = "{543, 760}";
}
);
layerId = "201D1995-4E5E-441E-AFED-969F1360B126";
paths = (
{
closed = 1;
nodes = (
"329.667 -10 OFFCURVE",
"376.667 25.667 OFFCURVE",
"406 71 CURVE",
"412 71 LINE",
"441 0 LINE",
"555 0 LINE",
"555 760 LINE",
"406 760 LINE",
"406 585 LINE SMOOTH",
"406 542.333 OFFCURVE",
"413 497.333 OFFCURVE",
"417 476 CURVE",
"412 476 LINE",
"382.667 521.333 OFFCURVE",
"333.667 556 OFFCURVE",
"255 556 CURVE SMOOTH",
"129.667 556 OFFCURVE",
"45 458.667 OFFCURVE",
"45 272 CURVE SMOOTH",
"45 86.667 OFFCURVE",
"129.667 -10 OFFCURVE",
"251 -10 CURVE SMOOTH"
);
},
{
closed = 1;
nodes = (
"235 109 OFFCURVE",
"196 163.333 OFFCURVE",
"196 270 CURVE SMOOTH",
"196 376.667 OFFCURVE",
"235.667 435 OFFCURVE",
"301 435 CURVE SMOOTH",
"389 435 OFFCURVE",
"416 376.333 OFFCURVE",
"416 271 CURVE SMOOTH",
"416 255 LINE SMOOTH",
"413.333 157.667 OFFCURVE",
"384.333 109 OFFCURVE",
"303 109 CURVE SMOOTH"
);
}
);
width = 633;
}
);
leftKerningGroup = c;
rightKerningGroup = d;
unicode = 0064;
},
{
export = 0;
glyphname = e;
lastChange = "2019-11-21 14:59:09 +0000";
layers = (
{
anchors = (
{
name = bottom;
position = "{301, 0}";
},
{
name = top;
position = "{285, 536}";
},
{
name = topright;
position = "{544, 536}";
}
);
layerId = master01;
paths = (
{
closed = 1;
nodes = (
"386 -10 OFFCURVE",
"434 1 OFFCURVE",
"489 25 CURVE",
"489 102 LINE",
"433 78 OFFCURVE",
"385 65 OFFCURVE",
"317 65 CURVE SMOOTH",
"210 65 OFFCURVE",
"149 130 OFFCURVE",
"146 251 CURVE",
"513 251 LINE",
"513 304 LINE SMOOTH",
"513 450 OFFCURVE",
"429 546 OFFCURVE",
"292 546 CURVE SMOOTH",
"150 546 OFFCURVE",
"55 440 OFFCURVE",
"55 264 CURVE SMOOTH",
"55 85 OFFCURVE",
"160 -10 OFFCURVE",
"313 -10 CURVE SMOOTH"
);
},
{
closed = 1;
nodes = (
"157 417 OFFCURVE",
"207 474 OFFCURVE",
"291 474 CURVE SMOOTH",
"380 474 OFFCURVE",
"420 412 OFFCURVE",
"421 321 CURVE",
"148 321 LINE"
);
}
);
userData = {
com.schriftgestaltung.Glyphs.category = Letter;
com.schriftgestaltung.Glyphs.lastChange = "2017/12/05 22:37:38";
com.schriftgestaltung.Glyphs.script = latin;
com.schriftgestaltung.Glyphs.subCategory = Lowercase;
};
width = 564;
},
{
anchors = (
{
name = bottom;
position = "{291, 0}";
},
{
name = top;
position = "{275, 536}";
},
{
name = topright;
position = "{534, 536}";
}
);
layerId = "201D1995-4E5E-441E-AFED-969F1360B126";
paths = (
{
closed = 1;
nodes = (
"409 -10 OFFCURVE",
"462.333 2.333 OFFCURVE",
"517 29 CURVE",
"517 144 LINE",
"455.667 114.667 OFFCURVE",
"401.333 101 OFFCURVE",
"332 101 CURVE SMOOTH",
"248 101 OFFCURVE",
"198.667 152 OFFCURVE",
"196 236 CURVE",
"548 236 LINE",
"548 308 LINE SMOOTH",
"548 466.667 OFFCURVE",
"453.667 556 OFFCURVE",
"303 556 CURVE SMOOTH",
"137 556 OFFCURVE",
"45 447 OFFCURVE",
"45 269 CURVE SMOOTH",
"45 91 OFFCURVE",
"150 -10 OFFCURVE",
"325 -10 CURVE SMOOTH"
);
},
{
closed = 1;
nodes = (
"205.667 413.667 OFFCURVE",
"245.333 450 OFFCURVE",
"304 450 CURVE SMOOTH",
"373.333 450 OFFCURVE",
"406.667 400.333 OFFCURVE",
"408 335 CURVE",
"199 335 LINE"
);
}
);
width = 591;
}
);
leftKerningGroup = c;
rightKerningGroup = b;
unicode = 0065;
},
{
export = 0;
glyphname = f;
lastChange = "2019-11-21 14:59:09 +0000";
layers = (
{
anchors = (
{
name = bottom;
position = "{153, 0}";
},
{
name = top;
position = "{252, 765}";
},
{
name = topright;
position = "{380, 765}";
}
);
layerId = master01;
paths = (
{
closed = 1;
nodes = (
"197 0 LINE",
"197 468 LINE",
"332 468 LINE",
"332 536 LINE",
"197 536 LINE",
"197 571 LINE SMOOTH",
"197 655 OFFCURVE",
"225 693 OFFCURVE",
"284 693 CURVE SMOOTH",
"313 693 OFFCURVE",
"342 685 OFFCURVE",
"364 678 CURVE",
"387 747 LINE",
"361 756 OFFCURVE",
"325 765 OFFCURVE",
"283 765 CURVE SMOOTH",
"173 765 OFFCURVE",
"109 708 OFFCURVE",
"109 570 CURVE SMOOTH",
"109 539 LINE",
"15 509 LINE",
"15 468 LINE",
"109 468 LINE",
"109 0 LINE"
);
}
);
userData = {
com.schriftgestaltung.Glyphs.category = Letter;
com.schriftgestaltung.Glyphs.lastChange = "2017/12/05 22:37:38";
com.schriftgestaltung.Glyphs.script = latin;
com.schriftgestaltung.Glyphs.subCategory = Lowercase;
};
width = 344;
},
{
anchors = (
{
name = bottom;
position = "{158, 0}";
},
{
name = top;
position = "{257, 765}";
},
{
name = topright;
position = "{385, 765}";
}
);
layerId = "201D1995-4E5E-441E-AFED-969F1360B126";
paths = (
{
closed = 1;
nodes = (
"251 0 LINE",
"251 434 LINE",
"380 434 LINE",
"380 546 LINE",
"251 546 LINE",
"251 580 LINE SMOOTH",
"251 618.667 OFFCURVE",
"269.667 647 OFFCURVE",
"311 647 CURVE SMOOTH",
"344.333 647 OFFCURVE",
"371.333 639.667 OFFCURVE",
"394 633 CURVE",
"432 742 LINE",
"402.667 754 OFFCURVE",
"352.333 765 OFFCURVE",
"295 765 CURVE SMOOTH",
"162 765 OFFCURVE",
"102 713 OFFCURVE",
"102 586 CURVE SMOOTH",
"102 546 LINE",
"20 506 LINE",
"20 434 LINE",
"102 434 LINE",
"102 0 LINE"
);
}
);
width = 387;
}
);
leftKerningGroup = f;
rightKerningGroup = f;
unicode = 0066;
},
{
export = 0;
glyphname = g;
lastChange = "2019-11-21 14:59:09 +0000";
layers = (
{
anchors = (
{
name = bottom;
position = "{298, -240}";
},
{
name = top;
position = "{297, 536}";
},
{
name = topright;
position = "{555, 536}";
}
);
layerId = master01;
paths = (
{
closed = 1;
nodes = (
"454 -240 OFFCURVE",
"530 -162 OFFCURVE",
"530 -9 CURVE SMOOTH",
"530 536 LINE",
"460 536 LINE",
"448 465 LINE",
"443 465 LINE",
"403 520 OFFCURVE",
"345 546 OFFCURVE",
"275 546 CURVE SMOOTH",
"137 546 OFFCURVE",
"55 438 OFFCURVE",
"55 267 CURVE SMOOTH",
"55 92 OFFCURVE",
"137 -10 OFFCURVE",
"276 -10 CURVE SMOOTH",
"349 -10 OFFCURVE",
"405 16 OFFCURVE",
"442 71 CURVE",
"446 71 LINE",
"445 59 OFFCURVE",
"443 21 OFFCURVE",
"443 5 CURVE SMOOTH",
"443 -16 LINE",
"443 -110 OFFCURVE",
"387 -167 OFFCURVE",
"295 -167 CURVE SMOOTH",
"218 -167 OFFCURVE",
"148 -152 OFFCURVE",
"97 -125 CURVE",
"97 -206 LINE",
"148 -229 OFFCURVE",
"212 -240 OFFCURVE",
"290 -240 CURVE SMOOTH"
);
},
{
closed = 1;
nodes = (
"195 62 OFFCURVE",
"146 134 OFFCURVE",
"146 266 CURVE SMOOTH",
"146 398 OFFCURVE",
"197 472 OFFCURVE",
"287 472 CURVE SMOOTH",
"395 472 OFFCURVE",
"444 413 OFFCURVE",
"444 267 CURVE SMOOTH",
"444 246 LINE SMOOTH",
"444 117 OFFCURVE",
"397 62 OFFCURVE",
"289 62 CURVE SMOOTH"
);
}
);
userData = {
com.schriftgestaltung.Glyphs.category = Letter;
com.schriftgestaltung.Glyphs.lastChange = "2017/12/05 22:37:38";
com.schriftgestaltung.Glyphs.script = latin;
com.schriftgestaltung.Glyphs.subCategory = Lowercase;
};
width = 615;
},
{
anchors = (
{
name = bottom;
position = "{288, -240}";
},
{
name = top;
position = "{287, 536}";
},
{
name = topright;
position = "{545, 536}";
}
);
layerId = "201D1995-4E5E-441E-AFED-969F1360B126";
paths = (
{
closed = 1;
nodes = (
"462 -240 OFFCURVE",
"555 -157 OFFCURVE",
"555 -1 CURVE SMOOTH",
"555 546 LINE",
"429 546 LINE",
"417 476 LINE",
"413 476 LINE",
"375 529.333 OFFCURVE",
"322.333 556 OFFCURVE",
"255 556 CURVE SMOOTH",
"124.333 556 OFFCURVE",
"45 450.667 OFFCURVE",
"45 272 CURVE SMOOTH",
"45 94.667 OFFCURVE",
"121.667 -10 OFFCURVE",
"251 -10 CURVE SMOOTH",
"316.333 -10 OFFCURVE",
"368.667 13.667 OFFCURVE",
"406 71 CURVE",
"410 71 LINE",
"407.333 52.333 OFFCURVE",
"406 25.333 OFFCURVE",
"406 4 CURVE SMOOTH",
"406 -7 LINE SMOOTH",
"406 -89.667 OFFCURVE",
"367.667 -131 OFFCURVE",
"291 -131 CURVE SMOOTH",
"215.667 -131 OFFCURVE",
"144.667 -117 OFFCURVE",
"78 -89 CURVE",
"78 -208 LINE",
"140.667 -232 OFFCURVE",
"204.667 -240 OFFCURVE",
"282 -240 CURVE SMOOTH"
);
},
{
closed = 1;
nodes = (
"232.667 107 OFFCURVE",
"197 161.333 OFFCURVE",
"197 270 CURVE SMOOTH",
"197 380 OFFCURVE",
"232 435 OFFCURVE",
"302 435 CURVE SMOOTH",
"382 435 OFFCURVE",
"416 388.333 OFFCURVE",
"416 271 CURVE SMOOTH",
"416 253 LINE SMOOTH",
"416 145 OFFCURVE",
"380 107 OFFCURVE",
"304 107 CURVE SMOOTH"
);
}
);
width = 633;
}
);
leftKerningGroup = g;
unicode = 0067;
},
{
export = 0;
glyphname = h;
lastChange = "2019-11-21 14:59:09 +0000";
layers = (
{
anchors = (
{
name = bottom;
position = "{310, 0}";
},
{
name = center;
position = "{309, 268}";
},
{
name = top;
position = "{130, 760}";
},
{
name = topright;
position = "{535, 760}";
}
);
layerId = master01;
paths = (
{
closed = 1;
nodes = (
"173 0 LINE",
"173 277 LINE SMOOTH",
"173 402 OFFCURVE",
"210 472 OFFCURVE",
"330 472 CURVE SMOOTH",
"412 472 OFFCURVE",
"450 429 OFFCURVE",
"450 343 CURVE SMOOTH",
"450 0 LINE",
"537 0 LINE",
"537 349 LINE SMOOTH",
"537 486 OFFCURVE",
"471 545 OFFCURVE",
"341 545 CURVE SMOOTH",
"272 545 OFFCURVE",
"208 517 OFFCURVE",
"174 462 CURVE",
"168 462 LINE",
"171 483 OFFCURVE",
"173 511 OFFCURVE",
"173 537 CURVE SMOOTH",
"173 760 LINE",
"85 760 LINE",
"85 0 LINE"
);
}
);
userData = {
com.schriftgestaltung.Glyphs.category = Letter;
com.schriftgestaltung.Glyphs.lastChange = "2017/12/05 22:37:38";
com.schriftgestaltung.Glyphs.script = latin;
com.schriftgestaltung.Glyphs.subCategory = Lowercase;
};
width = 618;
},
{
anchors = (
{
name = bottom;
position = "{303, 0}";
},
{
name = center;
position = "{302, 268}";
},
{
name = top;
position = "{123, 760}";
},
{
name = topright;
position = "{528, 760}";
}
);
layerId = "201D1995-4E5E-441E-AFED-969F1360B126";
paths = (
{
closed = 1;
nodes = (
"227 0 LINE",
"227 257 LINE SMOOTH",
"227 373 OFFCURVE",
"255.667 437 OFFCURVE",
"345 437 CURVE SMOOTH",
"403.667 437 OFFCURVE",
"433 397.667 OFFCURVE",
"433 319 CURVE SMOOTH",
"433 0 LINE",
"582 0 LINE",
"582 356 LINE SMOOTH",
"582 496 OFFCURVE",
"503.333 556 OFFCURVE",
"386 556 CURVE SMOOTH",
"319.333 556 OFFCURVE",
"262.667 532 OFFCURVE",
"228 476 CURVE",
"220 476 LINE",
"222.667 496 OFFCURVE",
"227 550.333 OFFCURVE",
"227 605 CURVE SMOOTH",
"227 760 LINE",
"78 760 LINE",
"78 0 LINE"
);
}
);
width = 657;
}
);
leftKerningGroup = b;
rightKerningGroup = a;
unicode = 0068;
},
{
export = 0;
glyphname = i;
lastChange = "2019-11-21 14:59:09 +0000";
layers = (
{
anchors = (
{
name = bottom;
position = "{131, 0}";
},
{
name = top;
position = "{129, 737}";
},
{
name = topright;
position = "{238, 737}";
}
);
layerId = master01;
paths = (
{
closed = 1;
nodes = (
"173 0 LINE",
"173 536 LINE",
"85 536 LINE",
"85 0 LINE"
);
},
{
closed = 1;
nodes = (
"157 625 OFFCURVE",
"181 643 OFFCURVE",
"181 681 CURVE SMOOTH",
"181 720 OFFCURVE",
"157 737 OFFCURVE",
"130 737 CURVE SMOOTH",
"101 737 OFFCURVE",
"78 720 OFFCURVE",
"78 681 CURVE SMOOTH",
"78 643 OFFCURVE",
"101 625 OFFCURVE",
"130 625 CURVE SMOOTH"
);
}
);
userData = {
com.schriftgestaltung.Glyphs.category = Letter;
com.schriftgestaltung.Glyphs.lastChange = "2017/12/05 22:37:38";
com.schriftgestaltung.Glyphs.script = latin;
com.schriftgestaltung.Glyphs.subCategory = Lowercase;
};
width = 258;
},
{
anchors = (
{
name = bottom;
position = "{151, 0}";
},
{
name = top;
position = "{153, 737}";
},
{
name = topright;
position = "{262, 737}";
}
);
layerId = "201D1995-4E5E-441E-AFED-969F1360B126";
paths = (
{
closed = 1;
nodes = (
"227 0 LINE",
"227 546 LINE",
"78 546 LINE",
"78 0 LINE"
);
},
{
closed = 1;
nodes = (
"197 614 OFFCURVE",
"234 632.333 OFFCURVE",
"234 687 CURVE SMOOTH",
"234 743 OFFCURVE",
"197 760 OFFCURVE",
"153 760 CURVE SMOOTH",
"107.667 760 OFFCURVE",
"72 743 OFFCURVE",
"72 687 CURVE SMOOTH",
"72 632.333 OFFCURVE",
"107.667 614 OFFCURVE",
"153 614 CURVE SMOOTH"
);
}
);
width = 305;
}
);
unicode = 0069;
},
{
export = 0;
glyphname = j;
lastChange = "2019-11-21 14:59:09 +0000";
layers = (
{
anchors = (
{
name = bottom;
position = "{22, -240}";
},
{
name = top;
position = "{129, 737}";
},
{
name = topright;
position = "{238, 737}";
}
);
layerId = master01;
paths = (
{
closed = 1;
nodes = (
"127 -240 OFFCURVE",
"173 -180 OFFCURVE",
"173 -80 CURVE SMOOTH",
"173 536 LINE",
"85 536 LINE",
"85 -83 LINE SMOOTH",
"85 -148 OFFCURVE",
"54 -167 OFFCURVE",
"11 -167 CURVE SMOOTH",
"-15 -167 OFFCURVE",
"-35 -163 OFFCURVE",
"-55 -157 CURVE",
"-55 -228 LINE",
"-37 -235 OFFCURVE",
"-12 -240 OFFCURVE",
"22 -240 CURVE SMOOTH"
);
},
{
closed = 1;
nodes = (
"157 625 OFFCURVE",
"181 643 OFFCURVE",
"181 681 CURVE SMOOTH",
"181 720 OFFCURVE",
"157 737 OFFCURVE",
"130 737 CURVE SMOOTH",
"101 737 OFFCURVE",
"78 720 OFFCURVE",
"78 681 CURVE SMOOTH",
"78 643 OFFCURVE",
"101 625 OFFCURVE",
"130 625 CURVE SMOOTH"
);
}
);
userData = {
com.schriftgestaltung.Glyphs.category = Letter;
com.schriftgestaltung.Glyphs.lastChange = "2017/12/05 22:37:38";
com.schriftgestaltung.Glyphs.script = latin;
com.schriftgestaltung.Glyphs.subCategory = Lowercase;
};
width = 258;
},
{
anchors = (
{
name = bottom;
position = "{48, -240}";
},
{
name = top;
position = "{155, 737}";
},
{
name = topright;
position = "{264, 737}";
}
);
layerId = "201D1995-4E5E-441E-AFED-969F1360B126";
paths = (
{
closed = 1;
nodes = (
"157 -240 OFFCURVE",
"227 -176 OFFCURVE",
"227 -59 CURVE SMOOTH",
"227 546 LINE",
"78 546 LINE",
"78 -37 LINE SMOOTH",
"78 -102.333 OFFCURVE",
"46 -120 OFFCURVE",
"6 -120 CURVE SMOOTH",
"-20.667 -120 OFFCURVE",
"-40 -117.667 OFFCURVE",
"-64 -111 CURVE",
"-64 -228 LINE",
"-40 -234.667 OFFCURVE",
"-0.667 -240 OFFCURVE",
"34 -240 CURVE SMOOTH"
);
},
{
closed = 1;
nodes = (
"197 614 OFFCURVE",
"234 632.333 OFFCURVE",
"234 687 CURVE SMOOTH",
"234 743 OFFCURVE",
"197 760 OFFCURVE",
"153 760 CURVE SMOOTH",
"107.667 760 OFFCURVE",
"72 743 OFFCURVE",
"72 687 CURVE SMOOTH",
"72 632.333 OFFCURVE",
"107.667 614 OFFCURVE",
"153 614 CURVE SMOOTH"
);
}
);
width = 305;
}
);
rightKerningGroup = j;
unicode = 006A;
},
{
export = 0;
glyphname = k;
lastChange = "2019-11-21 14:59:09 +0000";
layers = (
{
anchors = (
{
name = bottom;
position = "{267, 0}";
},
{
name = top;
position = "{129, 760}";
},
{
name = topright;
position = "{529, 760}";
}
);
layerId = master01;
paths = (
{
closed = 1;
nodes = (
"172 0 LINE",
"172 197 LINE",
"233 250 LINE",
"419 0 LINE",
"525 0 LINE",
"293 307 LINE",
"510 536 LINE",
"407 536 LINE",
"236 355 LINE SMOOTH",
"218 335 OFFCURVE",
"184 292 OFFCURVE",
"172 276 CURVE",
"168 276 LINE",
"169 301 OFFCURVE",
"172 342 OFFCURVE",
"172 363 CURVE SMOOTH",
"172 760 LINE",
"85 760 LINE",
"85 0 LINE"
);
}
);
userData = {
com.schriftgestaltung.Glyphs.category = Letter;
com.schriftgestaltung.Glyphs.lastChange = "2017/12/05 22:37:38";
com.schriftgestaltung.Glyphs.script = latin;
com.schriftgestaltung.Glyphs.subCategory = Lowercase;
};
width = 534;
},
{
anchors = (
{
name = bottom;
position = "{289, 0}";
},
{
name = top;
position = "{151, 760}";
},
{
name = topright;
position = "{551, 760}";
}
);
layerId = "201D1995-4E5E-441E-AFED-969F1360B126";
paths = (
{
closed = 1;
nodes = (
"227 0 LINE",
"227 170 LINE",
"291 221 LINE",
"448 0 LINE",
"620 0 LINE",
"390 309 LINE",
"607 546 LINE",
"439 546 LINE",
"286 380 LINE SMOOTH",
"262 353.333 OFFCURVE",
"241 325 OFFCURVE",
"221 297 CURVE",
"219 297 LINE",
"223 338.333 OFFCURVE",
"227 378.667 OFFCURVE",
"227 420 CURVE SMOOTH",
"227 760 LINE",
"78 760 LINE",
"78 0 LINE"
);
}
);
width = 620;
}
);
leftKerningGroup = b;
rightKerningGroup = k;
unicode = 006B;
},
{
export = 0;
glyphname = l;
lastChange = "2019-11-21 14:59:09 +0000";
layers = (
{
anchors = (
{
name = bottom;
position = "{129, 0}";
},
{
name = center;
position = "{129, 268}";
},
{
name = top;
position = "{129, 760}";
},
{
name = topright;
position = "{202, 760}";
}
);
layerId = master01;
paths = (
{
closed = 1;
nodes = (
"173 0 LINE",
"173 760 LINE",
"85 760 LINE",
"85 0 LINE"
);
}
);
userData = {
com.schriftgestaltung.Glyphs.category = Letter;
com.schriftgestaltung.Glyphs.lastChange = "2017/12/05 22:37:38";
com.schriftgestaltung.Glyphs.script = latin;
com.schriftgestaltung.Glyphs.subCategory = Lowercase;
};
width = 258;
},
{
anchors = (
{
name = bottom;
position = "{152, 0}";
},
{
name = center;
position = "{152, 268}";
},
{
name = top;
position = "{152, 760}";
},
{
name = topright;
position = "{225, 760}";
}
);
layerId = "201D1995-4E5E-441E-AFED-969F1360B126";
paths = (
{
closed = 1;
nodes = (
"227 0 LINE",
"227 760 LINE",
"78 760 LINE",
"78 0 LINE"
);
}
);
width = 305;
}
);
leftKerningGroup = b;
rightKerningGroup = d;
unicode = 006C;
},
{
export = 0;
glyphname = m;
lastChange = "2019-11-21 14:59:09 +0000";
layers = (
{
anchors = (
{
name = bottom;
position = "{471, 0}";
},
{
name = top;
position = "{479, 536}";
},
{
name = topright;
position = "{885, 536}";
}
);
layerId = master01;
paths = (
{
closed = 1;
nodes = (
"173 0 LINE",
"173 278 LINE SMOOTH",
"173 403 OFFCURVE",
"208 472 OFFCURVE",
"316 472 CURVE SMOOTH",
"391 472 OFFCURVE",
"426 429 OFFCURVE",
"426 345 CURVE SMOOTH",
"426 0 LINE",
"513 0 LINE",
"513 296 LINE SMOOTH",
"513 410 OFFCURVE",
"554 472 OFFCURVE",
"658 472 CURVE SMOOTH",
"732 472 OFFCURVE",
"767 429 OFFCURVE",
"767 345 CURVE SMOOTH",
"767 0 LINE",
"854 0 LINE",
"854 349 LINE SMOOTH",
"854 487 OFFCURVE",
"794 546 OFFCURVE",
"673 546 CURVE SMOOTH",
"603 546 OFFCURVE",
"537 517 OFFCURVE",
"501 456 CURVE",
"496 456 LINE",
"470 517 OFFCURVE",
"414 546 OFFCURVE",
"332 546 CURVE SMOOTH",
"268 546 OFFCURVE",
"207 519 OFFCURVE",
"174 463 CURVE",
"169 463 LINE",
"156 536 LINE",
"85 536 LINE",
"85 0 LINE"
);
}
);
userData = {
com.schriftgestaltung.Glyphs.category = Letter;
com.schriftgestaltung.Glyphs.lastChange = "2017/12/05 22:37:38";
com.schriftgestaltung.Glyphs.script = latin;
com.schriftgestaltung.Glyphs.subCategory = Lowercase;
};
width = 935;
},
{
anchors = (
{
name = bottom;
position = "{494, 0}";
},
{
name = top;
position = "{502, 536}";
},
{
name = topright;
position = "{908, 536}";
}
);
layerId = "201D1995-4E5E-441E-AFED-969F1360B126";
paths = (
{
closed = 1;
nodes = (
"227 0 LINE",
"227 257 LINE SMOOTH",
"227 373 OFFCURVE",
"253.333 437 OFFCURVE",
"336 437 CURVE SMOOTH",
"390.667 437 OFFCURVE",
"418 397.667 OFFCURVE",
"418 319 CURVE SMOOTH",
"418 0 LINE",
"567 0 LINE",
"567 274 LINE SMOOTH",
"567 379.333 OFFCURVE",
"597.333 437 OFFCURVE",
"676 437 CURVE SMOOTH",
"730.667 437 OFFCURVE",
"758 397.667 OFFCURVE",
"758 319 CURVE SMOOTH",
"758 0 LINE",
"907 0 LINE",
"907 356 LINE SMOOTH",
"907 496 OFFCURVE",
"843 556 OFFCURVE",
"719 556 CURVE SMOOTH",
"656.333 556 OFFCURVE",
"591.333 532 OFFCURVE",
"558 476 CURVE",
"545 476 LINE",
"514.333 530.667 OFFCURVE",
"459 556 OFFCURVE",
"379 556 CURVE SMOOTH",
"316.333 556 OFFCURVE",
"253.333 532 OFFCURVE",
"220 476 CURVE",
"212 476 LINE",
"192 546 LINE",
"78 546 LINE",
"78 0 LINE"
);
}
);
width = 982;
}
);
leftKerningGroup = m;
rightKerningGroup = a;
unicode = 006D;
},
{
export = 0;
glyphname = n;
lastChange = "2019-11-21 14:59:09 +0000";
layers = (
{
anchors = (
{
name = bottom;
position = "{309, 0}";
},
{
name = top;
position = "{309, 536}";
},
{
name = topright;
position = "{562, 536}";
}
);
layerId = master01;
paths = (
{
closed = 1;
nodes = (
"173 0 LINE",
"173 278 LINE SMOOTH",
"173 403 OFFCURVE",
"211 472 OFFCURVE",
"330 472 CURVE SMOOTH",
"412 472 OFFCURVE",
"450 429 OFFCURVE",
"450 343 CURVE SMOOTH",
"450 0 LINE",
"537 0 LINE",
"537 349 LINE SMOOTH",
"537 487 OFFCURVE",
"471 546 OFFCURVE",
"343 546 CURVE SMOOTH",
"275 546 OFFCURVE",
"209 519 OFFCURVE",
"174 463 CURVE",
"169 463 LINE",
"156 536 LINE",
"85 536 LINE",
"85 0 LINE"
);
}
);
userData = {
com.schriftgestaltung.Glyphs.category = Letter;
com.schriftgestaltung.Glyphs.lastChange = "2017/12/05 22:37:38";
com.schriftgestaltung.Glyphs.script = latin;
com.schriftgestaltung.Glyphs.subCategory = Lowercase;
};
width = 618;
},
{
anchors = (
{
name = bottom;
position = "{332, 0}";
},
{
name = top;
position = "{332, 536}";
},
{
name = topright;
position = "{585, 536}";
}
);
layerId = "201D1995-4E5E-441E-AFED-969F1360B126";
paths = (
{
closed = 1;
nodes = (
"227 0 LINE",
"227 257 LINE SMOOTH",
"227 373 OFFCURVE",
"254.333 437 OFFCURVE",
"345 437 CURVE SMOOTH",
"406.333 437 OFFCURVE",
"433 397.667 OFFCURVE",
"433 319 CURVE SMOOTH",
"433 0 LINE",
"582 0 LINE",
"582 356 LINE SMOOTH",
"582 496 OFFCURVE",
"505.333 556 OFFCURVE",
"388 556 CURVE SMOOTH",
"320 556 OFFCURVE",
"254.667 532 OFFCURVE",
"220 476 CURVE",
"212 476 LINE",
"192 546 LINE",
"78 546 LINE",
"78 0 LINE"
);
}
);
width = 657;
}
);
leftKerningGroup = m;
rightKerningGroup = a;
unicode = 006E;
},
{
export = 0;
glyphname = o;
lastChange = "2019-11-21 14:59:09 +0000";
layers = (
{
anchors = (
{
name = bottom;
position = "{301, 0}";
},
{
name = center;
position = "{303, 268}";
},
{
name = top;
position = "{303, 536}";
},
{
name = topright;
position = "{575, 536}";
}
);
layerId = master01;
paths = (
{
closed = 1;
nodes = (
"454 -10 OFFCURVE",
"551 91 OFFCURVE",
"551 269 CURVE SMOOTH",
"551 446 OFFCURVE",
"449 546 OFFCURVE",
"304 546 CURVE SMOOTH",
"150 546 OFFCURVE",
"55 446 OFFCURVE",
"55 269 CURVE SMOOTH",
"55 91 OFFCURVE",
"159 -10 OFFCURVE",
"301 -10 CURVE SMOOTH"
);
},
{
closed = 1;
nodes = (
"194 63 OFFCURVE",
"146 142 OFFCURVE",
"146 269 CURVE SMOOTH",
"146 396 OFFCURVE",
"193 472 OFFCURVE",
"302 472 CURVE SMOOTH",
"411 472 OFFCURVE",
"460 396 OFFCURVE",
"460 269 CURVE SMOOTH",
"460 142 OFFCURVE",
"411 63 OFFCURVE",
"303 63 CURVE SMOOTH"
);
}
);
userData = {
com.schriftgestaltung.Glyphs.category = Letter;
com.schriftgestaltung.Glyphs.lastChange = "2017/12/05 22:37:38";
com.schriftgestaltung.Glyphs.script = latin;
com.schriftgestaltung.Glyphs.subCategory = Lowercase;
};
width = 605;
},
{
anchors = (
{
name = bottom;
position = "{311, 0}";
},
{
name = center;
position = "{313, 268}";
},
{
name = top;
position = "{313, 536}";
},
{
name = topright;
position = "{585, 536}";
}
);
layerId = "201D1995-4E5E-441E-AFED-969F1360B126";
paths = (
{
closed = 1;
nodes = (
"472 -10 OFFCURVE",
"574 92.667 OFFCURVE",
"574 274 CURVE SMOOTH",
"574 443 OFFCURVE",
"475 556 OFFCURVE",
"311 556 CURVE SMOOTH",
"145.667 556 OFFCURVE",
"45 455.333 OFFCURVE",
"45 274 CURVE SMOOTH",
"45 104 OFFCURVE",
"144 -10 OFFCURVE",
"308 -10 CURVE SMOOTH"
);
},
{
closed = 1;
nodes = (
"230 110 OFFCURVE",
"197 166 OFFCURVE",
"197 274 CURVE SMOOTH",
"197 382 OFFCURVE",
"230.333 436 OFFCURVE",
"309 436 CURVE SMOOTH",
"389 436 OFFCURVE",
"422 382 OFFCURVE",
"422 274 CURVE SMOOTH",
"422 166 OFFCURVE",
"388.667 110 OFFCURVE",
"310 110 CURVE SMOOTH"
);
}
);
width = 619;
}
);
leftKerningGroup = c;
rightKerningGroup = b;
unicode = 006F;
},
{
export = 0;
glyphname = p;
lastChange = "2019-11-21 14:59:09 +0000";
layers = (
{
anchors = (
{
name = bottom;
position = "{129, -240}";
},
{
name = top;
position = "{332, 536}";
},
{
name = topright;
position = "{585, 536}";
}
);
layerId = master01;
paths = (
{
closed = 1;
nodes = (
"173 -240 LINE",
"173 -20 LINE SMOOTH",
"173 5 OFFCURVE",
"169 45 OFFCURVE",
"167 68 CURVE",
"173 68 LINE",
"204 26 OFFCURVE",
"256 -10 OFFCURVE",
"339 -10 CURVE SMOOTH",
"472 -10 OFFCURVE",
"560 86 OFFCURVE",
"560 269 CURVE SMOOTH",
"560 454 OFFCURVE",
"472 546 OFFCURVE",
"340 546 CURVE SMOOTH",
"253 546 OFFCURVE",
"205 509 OFFCURVE",
"173 463 CURVE",
"169 463 LINE",
"157 536 LINE",
"85 536 LINE",
"85 -240 LINE"
);
},
{
closed = 1;
nodes = (
"209 63 OFFCURVE",
"173 137 OFFCURVE",
"173 269 CURVE SMOOTH",
"173 286 LINE SMOOTH",
"175 411 OFFCURVE",
"215 472 OFFCURVE",
"324 472 CURVE SMOOTH",
"423 472 OFFCURVE",
"469 392 OFFCURVE",
"469 270 CURVE SMOOTH",
"469 150 OFFCURVE",
"423 63 OFFCURVE",
"326 63 CURVE SMOOTH"
);
}
);
userData = {
com.schriftgestaltung.Glyphs.category = Letter;
com.schriftgestaltung.Glyphs.lastChange = "2017/12/05 22:37:38";
com.schriftgestaltung.Glyphs.script = latin;
com.schriftgestaltung.Glyphs.subCategory = Lowercase;
};
width = 615;
},
{
anchors = (
{
name = bottom;
position = "{152, -240}";
},
{
name = top;
position = "{355, 536}";
},
{
name = topright;
position = "{608, 536}";
}
);
layerId = "201D1995-4E5E-441E-AFED-969F1360B126";
paths = (
{
closed = 1;
nodes = (
"227 -240 LINE",
"227 -20 LINE SMOOTH",
"227 5.333 OFFCURVE",
"224.333 32 OFFCURVE",
"219 60 CURVE",
"227 60 LINE",
"256.333 24 OFFCURVE",
"299.333 -10 OFFCURVE",
"378 -10 CURVE SMOOTH",
"500.667 -10 OFFCURVE",
"588 87.333 OFFCURVE",
"588 274 CURVE SMOOTH",
"588 459.333 OFFCURVE",
"504.667 556 OFFCURVE",
"382 556 CURVE SMOOTH",
"303.333 556 OFFCURVE",
"256.333 519 OFFCURVE",
"227 475 CURVE",
"220 475 LINE",
"199 546 LINE",
"78 546 LINE",
"78 -240 LINE"
);
},
{
closed = 1;
nodes = (
"253.333 111 OFFCURVE",
"227 169.667 OFFCURVE",
"227 275 CURVE SMOOTH",
"227 291 LINE SMOOTH",
"228.333 388.333 OFFCURVE",
"256.667 437 OFFCURVE",
"334 437 CURVE SMOOTH",
"402 437 OFFCURVE",
"436 383.333 OFFCURVE",
"436 276 CURVE SMOOTH",
"436 169.333 OFFCURVE",
"404 111 OFFCURVE",
"336 111 CURVE SMOOTH"
);
}
);
width = 633;
}
);
leftKerningGroup = m;
rightKerningGroup = b;
unicode = 0070;
},
{
export = 0;
glyphname = q;
lastChange = "2019-11-21 14:59:09 +0000";
layers = (
{
anchors = (
{
name = bottom;
position = "{486, -240}";
},
{
name = top;
position = "{308, 536}";
},
{
name = topright;
position = "{555, 536}";
}
);
layerId = master01;
paths = (
{
closed = 1;
nodes = (
"530 -240 LINE",
"530 536 LINE",
"460 536 LINE",
"447 463 LINE",
"443 463 LINE",
"411 509 OFFCURVE",
"360 546 OFFCURVE",
"276 546 CURVE SMOOTH",
"145 546 OFFCURVE",
"55 451 OFFCURVE",
"55 267 CURVE SMOOTH",
"55 83 OFFCURVE",
"143 -10 OFFCURVE",
"273 -10 CURVE SMOOTH",
"358 -10 OFFCURVE",
"410 26 OFFCURVE",
"441 72 CURVE",
"447 72 LINE",
"443 49 OFFCURVE",
"442 13 OFFCURVE",
"442 -11 CURVE SMOOTH",
"442 -240 LINE"
);
},
{
closed = 1;
nodes = (
"192 63 OFFCURVE",
"146 138 OFFCURVE",
"146 265 CURVE SMOOTH",
"146 392 OFFCURVE",
"192 473 OFFCURVE",
"288 473 CURVE SMOOTH",
"404 473 OFFCURVE",
"443 402 OFFCURVE",
"443 266 CURVE SMOOTH",
"443 248 LINE SMOOTH",
"441 123 OFFCURVE",
"400 63 OFFCURVE",
"290 63 CURVE SMOOTH"
);
}
);
userData = {
com.schriftgestaltung.Glyphs.category = Letter;
com.schriftgestaltung.Glyphs.lastChange = "2017/12/05 22:37:38";
com.schriftgestaltung.Glyphs.script = latin;
com.schriftgestaltung.Glyphs.subCategory = Lowercase;
};
width = 615;
},
{
anchors = (
{
name = bottom;
position = "{486, -240}";
},
{
name = top;
position = "{308, 536}";
},
{
name = topright;
position = "{585, 536}";
}
);
layerId = "201D1995-4E5E-441E-AFED-969F1360B126";
paths = (
{
closed = 1;
nodes = (
"555 -240 LINE",
"555 546 LINE",
"429 546 LINE",
"416 476 LINE",
"412 476 LINE",
"381.333 521.333 OFFCURVE",
"334 556 OFFCURVE",
"254 556 CURVE SMOOTH",
"130 556 OFFCURVE",
"45 458.667 OFFCURVE",
"45 272 CURVE SMOOTH",
"45 86.667 OFFCURVE",
"128.333 -10 OFFCURVE",
"251 -10 CURVE SMOOTH",
"331 -10 OFFCURVE",
"378 25.667 OFFCURVE",
"406 71 CURVE",
"412 71 LINE",
"408 43.667 OFFCURVE",
"406 16.333 OFFCURVE",
"406 -11 CURVE SMOOTH",
"406 -240 LINE"
);
},
{
closed = 1;
nodes = (
"232.667 107 OFFCURVE",
"197 161.333 OFFCURVE",
"197 270 CURVE SMOOTH",
"197 376.667 OFFCURVE",
"231.333 435 OFFCURVE",
"302 435 CURVE SMOOTH",
"388.667 435 OFFCURVE",
"416 376.333 OFFCURVE",
"416 271 CURVE SMOOTH",
"416 253 LINE SMOOTH",
"413.333 155.667 OFFCURVE",
"386.667 107 OFFCURVE",
"304 107 CURVE SMOOTH"
);
}
);
width = 633;
}
);
leftKerningGroup = c;
unicode = 0071;
},
{
export = 0;
glyphname = r;
lastChange = "2019-11-21 14:59:09 +0000";
layers = (
{
anchors = (
{
name = bottom;
position = "{126, 0}";
},
{
name = top;
position = "{240, 536}";
},
{
name = topright;
position = "{393, 536}";
}
);
layerId = master01;
paths = (
{
closed = 1;
nodes = (
"173 0 LINE",
"173 286 LINE SMOOTH",
"173 394 OFFCURVE",
"246 466 OFFCURVE",
"329 466 CURVE SMOOTH",
"347 466 OFFCURVE",
"370 463 OFFCURVE",
"387 459 CURVE",
"398 540 LINE",
"380 544 OFFCURVE",
"355 546 OFFCURVE",
"335 546 CURVE SMOOTH",
"260 546 OFFCURVE",
"205 497 OFFCURVE",
"171 438 CURVE",
"167 438 LINE",
"157 536 LINE",
"85 536 LINE",
"85 0 LINE"
);
}
);
userData = {
com.schriftgestaltung.Glyphs.category = Letter;
com.schriftgestaltung.Glyphs.lastChange = "2017/12/05 22:37:38";
com.schriftgestaltung.Glyphs.script = latin;
com.schriftgestaltung.Glyphs.subCategory = Lowercase;
};
width = 413;
},
{
anchors = (
{
name = bottom;
position = "{149, 0}";
},
{
name = top;
position = "{263, 536}";
},
{
name = topright;
position = "{416, 536}";
}
);
layerId = "201D1995-4E5E-441E-AFED-969F1360B126";
paths = (
{
closed = 1;
nodes = (
"227 0 LINE",
"227 278 LINE SMOOTH",
"227 370 OFFCURVE",
"287 417 OFFCURVE",
"378 417 CURVE SMOOTH",
"391.333 417 OFFCURVE",
"411.333 414.667 OFFCURVE",
"422 412 CURVE",
"433 552 LINE",
"421 554.667 OFFCURVE",
"397.667 556 OFFCURVE",
"383 556 CURVE SMOOTH",
"309.667 556 OFFCURVE",
"252 510 OFFCURVE",
"220 454 CURVE",
"213 454 LINE",
"191 546 LINE",
"78 546 LINE",
"78 0 LINE"
);
}
);
width = 454;
}
);
leftKerningGroup = m;
rightKerningGroup = r;
unicode = 0072;
},
{
export = 0;
glyphname = s;
lastChange = "2019-11-21 14:59:09 +0000";
layers = (
{
anchors = (
{
name = bottom;
position = "{240, 0}";
},
{
name = top;
position = "{240, 536}";
},
{
name = topright;
position = "{439, 536}";
}
);
layerId = master01;
paths = (
{
closed = 1;
nodes = (
"351 -10 OFFCURVE",
"434 44 OFFCURVE",
"434 148 CURVE SMOOTH",
"434 234 OFFCURVE",
"375 269 OFFCURVE",
"273 307 CURVE SMOOTH",
"170 346 OFFCURVE",
"135 364 OFFCURVE",
"135 409 CURVE SMOOTH",
"135 449 OFFCURVE",
"174 474 OFFCURVE",
"246 474 CURVE SMOOTH",
"298 474 OFFCURVE",
"348 459 OFFCURVE",
"393 440 CURVE",
"423 510 LINE",
"373 532 OFFCURVE",
"317 546 OFFCURVE",
"252 546 CURVE SMOOTH",
"132 546 OFFCURVE",
"51 495 OFFCURVE",
"51 404 CURVE SMOOTH",
"51 316 OFFCURVE",
"113 284 OFFCURVE",
"217 244 CURVE SMOOTH",
"322 204 OFFCURVE",
"349 180 OFFCURVE",
"349 140 CURVE SMOOTH",
"349 92 OFFCURVE",
"311 61 OFFCURVE",
"222 61 CURVE SMOOTH",
"159 61 OFFCURVE",
"94 83 OFFCURVE",
"52 104 CURVE",
"52 24 LINE",
"93 2 OFFCURVE",
"145 -10 OFFCURVE",
"220 -10 CURVE SMOOTH"
);
}
);
userData = {
com.schriftgestaltung.Glyphs.category = Letter;
com.schriftgestaltung.Glyphs.lastChange = "2017/12/05 22:37:38";
com.schriftgestaltung.Glyphs.script = latin;
com.schriftgestaltung.Glyphs.subCategory = Lowercase;
};
width = 479;
},
{
anchors = (
{
name = bottom;
position = "{264, 0}";
},
{
name = top;
position = "{264, 536}";
},
{
name = topright;
position = "{463, 536}";
}
);
layerId = "201D1995-4E5E-441E-AFED-969F1360B126";
paths = (
{
closed = 1;
nodes = (
"380.667 -10 OFFCURVE",
"459 51.333 OFFCURVE",
"459 162 CURVE SMOOTH",
"459 253 OFFCURVE",
"411 290 OFFCURVE",
"307 332 CURVE SMOOTH",
"251 355 OFFCURVE",
"193 375 OFFCURVE",
"193 410 CURVE SMOOTH",
"193 434 OFFCURVE",
"215 446 OFFCURVE",
"259 446 CURVE SMOOTH",
"308.333 446 OFFCURVE",
"354.667 428.667 OFFCURVE",
"408 406 CURVE",
"453 513 LINE",
"387.667 543.667 OFFCURVE",
"329 556 OFFCURVE",
"261 556 CURVE SMOOTH",
"130.333 556 OFFCURVE",
"45 505.333 OFFCURVE",
"45 404 CURVE SMOOTH",
"45 312 OFFCURVE",
"91 276 OFFCURVE",
"194 232 CURVE SMOOTH",
"254 207 OFFCURVE",
"312 186 OFFCURVE",
"312 146 CURVE SMOOTH",
"312 118 OFFCURVE",
"288.333 99 OFFCURVE",
"231 99 CURVE SMOOTH",
"179 99 OFFCURVE",
"104.667 118.333 OFFCURVE",
"46 145 CURVE",
"46 22 LINE",
"100.667 -0.667 OFFCURVE",
"150 -10 OFFCURVE",
"226 -10 CURVE SMOOTH"
);
}
);
width = 497;
}
);
leftKerningGroup = s;
unicode = 0073;
},
{
export = 0;
glyphname = t;
lastChange = "2019-11-21 14:59:09 +0000";
layers = (
{
anchors = (
{
name = bottom;
position = "{214, 0}";
},
{
name = center;
position = "{181, 268}";
},
{
name = top;
position = "{154, 659}";
},
{
name = topright;
position = "{335, 659}";
}
);
layerId = master01;
paths = (
{
closed = 1;
nodes = (
"281 -10 OFFCURVE",
"320 -3 OFFCURVE",
"339 6 CURVE",
"339 73 LINE",
"322 67 OFFCURVE",
"290 62 OFFCURVE",
"264 62 CURVE SMOOTH",
"215 62 OFFCURVE",
"180 93 OFFCURVE",
"180 158 CURVE SMOOTH",
"180 468 LINE",
"335 468 LINE",
"335 536 LINE",
"180 536 LINE",
"180 659 LINE",
"128 659 LINE",
"93 545 LINE",
"16 510 LINE",
"16 468 LINE",
"92 468 LINE",
"92 156 LINE SMOOTH",
"92 26 OFFCURVE",
"165 -10 OFFCURVE",
"249 -10 CURVE SMOOTH"
);
}
);
userData = {
com.schriftgestaltung.Glyphs.category = Letter;
com.schriftgestaltung.Glyphs.lastChange = "2017/12/05 22:37:38";
com.schriftgestaltung.Glyphs.script = latin;
com.schriftgestaltung.Glyphs.subCategory = Lowercase;
};
width = 361;
},
{
anchors = (
{
name = bottom;
position = "{251, 0}";
},
{
name = center;
position = "{218, 268}";
},
{
name = top;
position = "{191, 659}";
},
{
name = topright;
position = "{372, 659}";
}
);
layerId = "201D1995-4E5E-441E-AFED-969F1360B126";
paths = (
{
closed = 1;
nodes = (
"321 -10 OFFCURVE",
"370 0.333 OFFCURVE",
"402 15 CURVE",
"402 126 LINE",
"371.333 115.333 OFFCURVE",
"341.333 109 OFFCURVE",
"308 109 CURVE SMOOTH",
"269.333 109 OFFCURVE",
"243 129.667 OFFCURVE",
"243 171 CURVE SMOOTH",
"243 434 LINE",
"396 434 LINE",
"396 546 LINE",
"243 546 LINE",
"243 662 LINE",
"148 662 LINE",
"105 547 LINE",
"23 497 LINE",
"23 434 LINE",
"94 434 LINE",
"94 171 LINE SMOOTH",
"94 55 OFFCURVE",
"143 -10 OFFCURVE",
"265 -10 CURVE SMOOTH"
);
}
);
width = 434;
}
);
leftKerningGroup = t;
rightKerningGroup = t;
unicode = 0074;
},
{
export = 0;
glyphname = u;
lastChange = "2019-11-21 14:59:09 +0000";
layers = (
{
anchors = (
{
name = bottom;
position = "{294, 0}";
},
{
name = top;
position = "{309, 536}";
},
{
name = topright;
position = "{562, 536}";
}
);
layerId = master01;
paths = (
{
closed = 1;
nodes = (
"343 -10 OFFCURVE",
"409 15 OFFCURVE",
"444 71 CURVE",
"448 71 LINE",
"461 0 LINE",
"533 0 LINE",
"533 536 LINE",
"445 536 LINE",
"445 257 LINE SMOOTH",
"445 132 OFFCURVE",
"406 63 OFFCURVE",
"287 63 CURVE SMOOTH",
"206 63 OFFCURVE",
"168 105 OFFCURVE",
"168 191 CURVE SMOOTH",
"168 536 LINE",
"79 536 LINE",
"79 185 LINE SMOOTH",
"79 49 OFFCURVE",
"145 -10 OFFCURVE",
"274 -10 CURVE SMOOTH"
);
}
);
userData = {
com.schriftgestaltung.Glyphs.category = Letter;
com.schriftgestaltung.Glyphs.lastChange = "2017/12/05 22:37:38";
com.schriftgestaltung.Glyphs.script = latin;
com.schriftgestaltung.Glyphs.subCategory = Lowercase;
};
width = 618;
},
{
anchors = (
{
name = bottom;
position = "{310, 0}";
},
{
name = top;
position = "{325, 536}";
},
{
name = topright;
position = "{608, 536}";
}
);
layerId = "201D1995-4E5E-441E-AFED-969F1360B126";
paths = (
{
closed = 1;
nodes = (
"337 -10 OFFCURVE",
"402.333 14 OFFCURVE",
"437 70 CURVE",
"445 70 LINE",
"465 0 LINE",
"579 0 LINE",
"579 546 LINE",
"430 546 LINE",
"430 289 LINE SMOOTH",
"430 173 OFFCURVE",
"402.667 109 OFFCURVE",
"312 109 CURVE SMOOTH",
"250.667 109 OFFCURVE",
"224 148.333 OFFCURVE",
"224 227 CURVE SMOOTH",
"224 546 LINE",
"75 546 LINE",
"75 190 LINE SMOOTH",
"75 50 OFFCURVE",
"151.667 -10 OFFCURVE",
"269 -10 CURVE SMOOTH"
);
}
);
width = 657;
}
);
leftKerningGroup = m;
unicode = 0075;
},
{
export = 0;
glyphname = v;
lastChange = "2019-11-21 14:59:09 +0000";
layers = (
{
anchors = (
{
name = bottom;
position = "{252, 0}";
},
{
name = top;
position = "{252, 536}";
},
{
name = topright;
position = "{488, 536}";
}
);
layerId = master01;
paths = (
{
closed = 1;
nodes = (
"304 0 LINE",
"508 536 LINE",
"414 536 LINE",
"300 220 LINE SMOOTH",
"285 177 OFFCURVE",
"262 111 OFFCURVE",
"255 78 CURVE",
"251 78 LINE",
"245 111 OFFCURVE",
"224 176 OFFCURVE",
"208 220 CURVE SMOOTH",
"94 536 LINE",
"0 536 LINE",
"203 0 LINE"
);
}
);
userData = {
com.schriftgestaltung.Glyphs.category = Letter;
com.schriftgestaltung.Glyphs.lastChange = "2017/12/05 22:37:38";
com.schriftgestaltung.Glyphs.script = latin;
com.schriftgestaltung.Glyphs.subCategory = Lowercase;
};
width = 508;
},
{
anchors = (
{
name = bottom;
position = "{282, 0}";
},
{
name = top;
position = "{282, 536}";
},
{
name = topright;
position = "{518, 536}";
}
);
layerId = "201D1995-4E5E-441E-AFED-969F1360B126";
paths = (
{
closed = 1;
nodes = (
"361 0 LINE",
"569 546 LINE",
"413 546 LINE",
"308 235 LINE SMOOTH",
"295.333 196.333 OFFCURVE",
"288 159 OFFCURVE",
"286 123 CURVE",
"282 123 LINE",
"279.333 155 OFFCURVE",
"273 197.667 OFFCURVE",
"261 235 CURVE SMOOTH",
"156 546 LINE",
"0 546 LINE",
"208 0 LINE"
);
}
);
width = 569;
}
);
leftKerningGroup = v;
rightKerningGroup = v;
unicode = 0076;
},
{
export = 0;
glyphname = w;
lastChange = "2019-11-21 14:59:09 +0000";
layers = (
{
anchors = (
{
name = bottom;
position = "{391, 0}";
},
{
name = top;
position = "{393, 536}";
},
{
name = topright;
position = "{766, 536}";
}
);
layerId = master01;
paths = (
{
closed = 1;
nodes = (
"258 1 LINE",
"354 302 LINE SMOOTH",
"372 358 OFFCURVE",
"385 415 OFFCURVE",
"390 445 CURVE",
"394 445 LINE",
"400 415 OFFCURVE",
"414 358 OFFCURVE",
"431 303 CURVE SMOOTH",
"523 1 LINE",
"626 1 LINE",
"775 537 LINE",
"685 537 LINE",
"610 251 LINE SMOOTH",
"594 190 OFFCURVE",
"578 125 OFFCURVE",
"574 92 CURVE",
"570 92 LINE",
"565 130 OFFCURVE",
"548 189 OFFCURVE",
"534 235 CURVE SMOOTH",
"442 537 LINE",
"346 537 LINE",
"251 235 LINE SMOOTH",
"237 191 OFFCURVE",
"222 124 OFFCURVE",
"215 91 CURVE",
"211 91 LINE",
"206 129 OFFCURVE",
"191 193 OFFCURVE",
"176 251 CURVE SMOOTH",
"102 537 LINE",
"11 537 LINE",
"158 1 LINE"
);
}
);
userData = {
com.schriftgestaltung.Glyphs.category = Letter;
com.schriftgestaltung.Glyphs.lastChange = "2017/12/05 22:37:38";
com.schriftgestaltung.Glyphs.script = latin;
com.schriftgestaltung.Glyphs.subCategory = Lowercase;
};
width = 786;
},
{
anchors = (
{
name = bottom;
position = "{420, 0}";
},
{
name = top;
position = "{422, 536}";
},
{
name = topright;
position = "{795, 536}";
}
);
layerId = "201D1995-4E5E-441E-AFED-969F1360B126";
paths = (
{
closed = 1;
nodes = (
"325 0 LINE",
"369 189 LINE SMOOTH",
"380.88 242.461 OFFCURVE",
"419.367 403.836 OFFCURVE",
"425 432 CURVE",
"429 432 LINE",
"431.364 420.181 OFFCURVE",
"481.547 205.677 OFFCURVE",
"485 191 CURVE SMOOTH",
"527 0 LINE",
"689 0 LINE",
"846 546 LINE",
"700 546 LINE",
"635 304 LINE SMOOTH",
"622.978 259.347 OFFCURVE",
"606.985 158.873 OFFCURVE",
"603 125 CURVE",
"599 125 LINE",
"596.915 164.612 OFFCURVE",
"582.396 249.486 OFFCURVE",
"575 284 CURVE SMOOTH",
"511 546 LINE",
"347 546 LINE",
"280 284 LINE SMOOTH",
"272.721 254.885 OFFCURVE",
"256.662 148.265 OFFCURVE",
"255 125 CURVE",
"251 125 LINE",
"245.035 162.778 OFFCURVE",
"230.723 267.887 OFFCURVE",
"221 304 CURVE SMOOTH",
"158 546 LINE",
"10 546 LINE",
"165 0 LINE"
);
}
);
width = 856;
}
);
leftKerningGroup = v;
rightKerningGroup = v;
unicode = 0077;
},
{
export = 0;
glyphname = x;
lastChange = "2019-11-21 14:59:09 +0000";
layers = (
{
anchors = (
{
name = bottom;
position = "{265, 0}";
},
{
name = top;
position = "{263, 536}";
},
{
name = topright;
position = "{509, 536}";
}
);
layerId = master01;
paths = (
{
closed = 1;
nodes = (
"117 0 LINE",
"265 214 LINE",
"411 0 LINE",
"511 0 LINE",
"316 274 LINE",
"501 536 LINE",
"402 536 LINE",
"265 334 LINE",
"127 536 LINE",
"27 536 LINE",
"212 274 LINE",
"18 0 LINE"
);
}
);
userData = {
com.schriftgestaltung.Glyphs.category = Letter;
com.schriftgestaltung.Glyphs.lastChange = "2017/12/05 22:37:38";
com.schriftgestaltung.Glyphs.script = latin;
com.schriftgestaltung.Glyphs.subCategory = Lowercase;
};
width = 529;
},
{
anchors = (
{
name = bottom;
position = "{282, 0}";
},
{
name = top;
position = "{280, 536}";
},
{
name = topright;
position = "{526, 536}";
}
);
layerId = "201D1995-4E5E-441E-AFED-969F1360B126";
paths = (
{
closed = 1;
nodes = (
"174 0 LINE",
"289 187 LINE",
"404 0 LINE",
"573 0 LINE",
"387 279 LINE",
"565 546 LINE",
"396 546 LINE",
"289 372 LINE",
"183 546 LINE",
"14 546 LINE",
"190 279 LINE",
"5 0 LINE"
);
}
);
width = 578;
}
);
leftKerningGroup = v;
rightKerningGroup = x;
unicode = 0078;
},
{
export = 0;
glyphname = y;
lastChange = "2019-11-21 14:59:09 +0000";
layers = (
{
anchors = (
{
name = bottom;
position = "{94, -240}";
},
{
name = top;
position = "{255, 536}";
},
{
name = topright;
position = "{490, 536}";
}
);
layerId = master01;
paths = (
{
closed = 1;
nodes = (
"188 -240 OFFCURVE",
"241 -175 OFFCURVE",
"279 -74 CURVE SMOOTH",
"510 536 LINE",
"415 536 LINE",
"306 232 LINE SMOOTH",
"287 177 OFFCURVE",
"268 118 OFFCURVE",
"260 85 CURVE",
"256 85 LINE",
"248 129 OFFCURVE",
"231 177 OFFCURVE",
"211 231 CURVE SMOOTH",
"95 536 LINE",
"1 536 LINE",
"217 -2 LINE",
"189 -73 LINE SMOOTH",
"167 -131 OFFCURVE",
"131 -168 OFFCURVE",
"70 -168 CURVE SMOOTH",
"47 -168 OFFCURVE",
"25 -165 OFFCURVE",
"11 -162 CURVE",
"11 -232 LINE",
"28 -236 OFFCURVE",
"52 -240 OFFCURVE",
"84 -240 CURVE SMOOTH"
);
}
);
userData = {
com.schriftgestaltung.Glyphs.category = Letter;
com.schriftgestaltung.Glyphs.lastChange = "2017/12/05 22:37:38";
com.schriftgestaltung.Glyphs.script = latin;
com.schriftgestaltung.Glyphs.subCategory = Lowercase;
};
width = 510;
},
{
anchors = (
{
name = bottom;
position = "{123, -240}";
},
{
name = top;
position = "{284, 536}";
},
{
name = topright;
position = "{519, 536}";
}
);
layerId = "201D1995-4E5E-441E-AFED-969F1360B126";
paths = (
{
closed = 1;
nodes = (
"214 -240 OFFCURVE",
"295.333 -183.333 OFFCURVE",
"338 -70 CURVE SMOOTH",
"569 546 LINE",
"409 546 LINE",
"308 239 LINE SMOOTH",
"297.333 208.333 OFFCURVE",
"291 178.667 OFFCURVE",
"287 144 CURVE",
"284 144 LINE",
"281.333 178.667 OFFCURVE",
"276.667 208.333 OFFCURVE",
"266 239 CURVE SMOOTH",
"163 546 LINE",
"0 546 LINE",
"217 4 LINE",
"208 -23 LINE SMOOTH",
"189.333 -76.333 OFFCURVE",
"155.667 -120 OFFCURVE",
"93 -120 CURVE SMOOTH",
"70.333 -120 OFFCURVE",
"47.333 -116.667 OFFCURVE",
"34 -114 CURVE",
"34 -232 LINE",
"52.667 -236 OFFCURVE",
"75.333 -240 OFFCURVE",
"110 -240 CURVE SMOOTH"
);
}
);
width = 569;
}
);
leftKerningGroup = v;
rightKerningGroup = v;
unicode = 0079;
},
{
export = 0;
glyphname = z;
lastChange = "2019-11-21 14:59:09 +0000";
layers = (
{
anchors = (
{
name = bottom;
position = "{242, 0}";
},
{
name = top;
position = "{235, 536}";
},
{
name = topright;
position = "{430, 536}";
}
);
layerId = master01;
paths = (
{
closed = 1;
nodes = (
"431 0 LINE",
"431 68 LINE",
"140 68 LINE",
"424 470 LINE",
"424 536 LINE",
"56 536 LINE",
"56 468 LINE",
"327 468 LINE",
"39 58 LINE",
"39 0 LINE"
);
}
);
userData = {
com.schriftgestaltung.Glyphs.category = Letter;
com.schriftgestaltung.Glyphs.lastChange = "2017/12/05 22:37:38";
com.schriftgestaltung.Glyphs.script = latin;
com.schriftgestaltung.Glyphs.subCategory = Lowercase;
};
width = 470;
},
{
anchors = (
{
name = bottom;
position = "{250, 0}";
},
{
name = top;
position = "{243, 536}";
},
{
name = topright;
position = "{468, 536}";
}
);
layerId = "201D1995-4E5E-441E-AFED-969F1360B126";
paths = (
{
closed = 1;
nodes = (
"458 0 LINE",
"458 114 LINE",
"203 114 LINE",
"449 449 LINE",
"449 546 LINE",
"42 546 LINE",
"42 432 LINE",
"280 432 LINE",
"27 88 LINE",
"27 0 LINE"
);
}
);
width = 488;
}
);
leftKerningGroup = z;
unicode = 007A;
},
{
glyphname = "Alif-adlam";
lastChange = "2019-11-06 21:15:45 +0000";
layers = (
{
anchors = (
{
name = gemconsonanttop;
position = "{365, 663}";
},
{
name = top;
position = "{351, 663}";
},
{
name = topAlif;
position = "{320, 745}";
}
);
layerId = master01;
paths = (
{
closed = 1;
nodes = (
"541 -10 OFFCURVE",
"640 89 OFFCURVE",
"640 213 CURVE SMOOTH",
"640 311 OFFCURVE",
"591 352 OFFCURVE",
"566 366 CURVE",
"566 370 LINE",
"584 373 OFFCURVE",
"623 385 OFFCURVE",
"640 398 CURVE",
"613 471 LINE",
"591 458 OFFCURVE",
"519 433 OFFCURVE",
"434 433 CURVE SMOOTH",
"371 433 OFFCURVE",
"322 442 OFFCURVE",
"299 453 CURVE",
"278 376 LINE",
"297 366 OFFCURVE",
"352 358 OFFCURVE",
"418 352 CURVE SMOOTH",
"496 345 OFFCURVE",
"547 306 OFFCURVE",
"547 213 CURVE SMOOTH",
"547 119 OFFCURVE",
"471 69 OFFCURVE",
"360 69 CURVE SMOOTH",
"253 69 OFFCURVE",
"200 108 OFFCURVE",
"200 249 CURVE SMOOTH",
"200 577 LINE SMOOTH",
"200 619 OFFCURVE",
"209 635 OFFCURVE",
"249 635 CURVE SMOOTH",
"540 635 LINE",
"543 639 LINE",
"497 714 LINE",
"222 714 LINE SMOOTH",
"128 714 OFFCURVE",
"110 682 OFFCURVE",
"110 596 CURVE SMOOTH",
"110 249 LINE SMOOTH",
"110 56 OFFCURVE",
"180 -10 OFFCURVE",
"358 -10 CURVE SMOOTH"
);
}
);
userData = {
com.schriftgestaltung.Glyphs.category = Letter;
com.schriftgestaltung.Glyphs.lastChange = "2017/01/05 17:36:54";
com.schriftgestaltung.Glyphs.subCategory = Uppercase;
com.schriftgestaltung.hints = (
{
horizontal = 0;
options = 0;
place = (
819,
90
);
stem = -2;
},
{
horizontal = 0;
options = 0;
place = (
1275,
90
);
stem = -2;
},
{
horizontal = 0;
options = 0;
place = (
51,
95
);
stem = -2;
},
{
horizontal = 0;
options = 0;
place = (
615,
95
);
stem = -2;
},
{
horizontal = 1;
options = 0;
place = (
31,
21
);
stem = -2;
target = (
u,
p
);
type = BottomGhost;
},
{
horizontal = 1;
options = 0;
place = (
364,
79
);
stem = -2;
},
{
horizontal = 1;
options = 0;
place = (
745,
-20
);
stem = -2;
target = (
d,
o,
w,
n
);
type = TopGhost;
},
{
horizontal = 1;
options = 0;
place = (
-164,
78
);
stem = -2;
},
{
horizontal = 1;
options = 0;
place = (
492,
79
);
stem = -2;
}
);
};
width = 715;
},
{
anchors = (
{
name = gemconsonanttop;
position = "{405, 663}";
},
{
name = top;
position = "{391, 663}";
},
{
name = topAlif;
position = "{345, 739}";
}
);
layerId = "201D1995-4E5E-441E-AFED-969F1360B126";
paths = (
{
closed = 1;
nodes = (
"602 -10 OFFCURVE",
"676 102 OFFCURVE",
"676 225 CURVE SMOOTH",
"676 297 OFFCURVE",
"647 331 OFFCURVE",
"625 346 CURVE",
"625 351 LINE",
"650 355 OFFCURVE",
"695 371 OFFCURVE",
"710 382 CURVE",
"673 491 LINE",
"647 475 OFFCURVE",
"555 453 OFFCURVE",
"462 453 CURVE SMOOTH",
"384 453 OFFCURVE",
"335 464 OFFCURVE",
"318 471 CURVE",
"299 348 LINE",
"311 343 OFFCURVE",
"363 333 OFFCURVE",
"416 328 CURVE SMOOTH",
"474 323 OFFCURVE",
"520 302 OFFCURVE",
"520 225 CURVE SMOOTH",
"520 154 OFFCURVE",
"474 115 OFFCURVE",
"384 115 CURVE SMOOTH",
"292 115 OFFCURVE",
"241 154 OFFCURVE",
"241 277 CURVE SMOOTH",
"241 531 LINE SMOOTH",
"241 573 OFFCURVE",
"250 589 OFFCURVE",
"290 589 CURVE SMOOTH",
"568 589 LINE",
"572 594 LINE",
"500 714 LINE",
"202 714 LINE SMOOTH",
"108 714 OFFCURVE",
"90 682 OFFCURVE",
"90 596 CURVE SMOOTH",
"90 277 LINE SMOOTH",
"90 72 OFFCURVE",
"170 -10 OFFCURVE",
"384 -10 CURVE SMOOTH"
);
}
);
userData = {
com.schriftgestaltung.Glyphs.category = Letter;
com.schriftgestaltung.Glyphs.lastChange = "2017/01/05 17:36:54";
com.schriftgestaltung.Glyphs.subCategory = Uppercase;
com.schriftgestaltung.hints = (
{
horizontal = 0;
options = 0;
place = (
819,
90
);
stem = -2;
},
{
horizontal = 0;
options = 0;
place = (
1275,
90
);
stem = -2;
},
{
horizontal = 0;
options = 0;
place = (
51,
95
);
stem = -2;
},
{
horizontal = 0;
options = 0;
place = (
615,
95
);
stem = -2;
},
{
horizontal = 1;
options = 0;
place = (
31,
21
);
stem = -2;
target = (
u,
p
);
type = BottomGhost;
},
{
horizontal = 1;
options = 0;
place = (
364,
79
);
stem = -2;
},
{
horizontal = 1;
options = 0;
place = (
745,
-20
);
stem = -2;
target = (
d,
o,
w,
n
);
type = TopGhost;
},
{
horizontal = 1;
options = 0;
place = (
-164,
78
);
stem = -2;
},
{
horizontal = 1;
options = 0;
place = (
492,
79
);
stem = -2;
}
);
};
width = 765;
}
);
unicode = 1E900;
},
{
glyphname = "Daali-adlam";
lastChange = "2019-11-06 21:16:15 +0000";
layers = (
{
anchors = (
{
name = gemconsonanttop;
position = "{309, 663}";
},
{
name = top;
position = "{304, 663}";
}
);
layerId = master01;
paths = (
{
closed = 1;
nodes = (
"414 0 LINE SMOOTH",
"508 0 OFFCURVE",
"526 32 OFFCURVE",
"526 118 CURVE SMOOTH",
"526 714 LINE",
"436 714 LINE",
"436 304 LINE",
"433 302 LINE",
"421 313 OFFCURVE",
"387 329 OFFCURVE",
"287 350 CURVE SMOOTH",
"190 370 OFFCURVE",
"171 388 OFFCURVE",
"171 464 CURVE SMOOTH",
"171 714 LINE",
"81 714 LINE",
"81 454 LINE SMOOTH",
"81 321 OFFCURVE",
"132 296 OFFCURVE",
"257 272 CURVE SMOOTH",
"389 247 OFFCURVE",
"436 219 OFFCURVE",
"436 156 CURVE SMOOTH",
"436 137 LINE SMOOTH",
"436 95 OFFCURVE",
"427 79 OFFCURVE",
"387 79 CURVE SMOOTH",
"75 79 LINE",
"75 0 LINE"
);
}
);
userData = {
com.schriftgestaltung.Glyphs.category = Letter;
com.schriftgestaltung.Glyphs.lastChange = "2017/01/05 17:36:54";
com.schriftgestaltung.Glyphs.subCategory = Uppercase;
com.schriftgestaltung.hints = (
{
horizontal = 0;
options = 0;
place = (
100,
90
);
stem = -2;
},
{
horizontal = 0;
options = 0;
place = (
556,
90
);
stem = -2;
},
{
horizontal = 0;
options = 0;
place = (
41,
495
);
stem = -2;
},
{
horizontal = 1;
options = 0;
place = (
0,
21
);
stem = -2;
target = (
u,
p
);
type = BottomGhost;
},
{
horizontal = 1;
options = 0;
place = (
333,
79
);
stem = -2;
},
{
horizontal = 1;
options = 0;
place = (
714,
-20
);
stem = -2;
target = (
d,
o,
w,
n
);
type = TopGhost;
},
{
horizontal = 1;
options = 0;
place = (
0,
80
);
stem = -2;
},
{
horizontal = 1;
options = 0;
place = (
634,
80
);
stem = -2;
}
);
};
width = 636;
},
{
anchors = (
{
name = gemconsonanttop;
position = "{319, 663}";
},
{
name = top;
position = "{315, 663}";
}
);
layerId = "201D1995-4E5E-441E-AFED-969F1360B126";
paths = (
{
closed = 1;
nodes = (
"456 0 LINE SMOOTH",
"550 0 OFFCURVE",
"568 32 OFFCURVE",
"568 118 CURVE SMOOTH",
"568 714 LINE",
"417 714 LINE",
"417 333 LINE",
"412 331 LINE",
"400 342 OFFCURVE",
"380 349 OFFCURVE",
"309 366 CURVE SMOOTH",
"231 385 OFFCURVE",
"212 398 OFFCURVE",
"212 483 CURVE SMOOTH",
"212 714 LINE",
"61 714 LINE",
"61 453 LINE SMOOTH",
"61 321 OFFCURVE",
"98 294 OFFCURVE",
"244 258 CURVE SMOOTH",
"406 219 OFFCURVE",
"417 204 OFFCURVE",
"417 168 CURVE SMOOTH",
"417 162 LINE SMOOTH",
"417 126 OFFCURVE",
"408 125 OFFCURVE",
"368 125 CURVE SMOOTH",
"55 125 LINE",
"55 0 LINE"
);
}
);
userData = {
com.schriftgestaltung.Glyphs.category = Letter;
com.schriftgestaltung.Glyphs.lastChange = "2017/01/05 17:36:54";
com.schriftgestaltung.Glyphs.subCategory = Uppercase;
com.schriftgestaltung.hints = (
{
horizontal = 0;
options = 0;
place = (
100,
90
);
stem = -2;
},
{
horizontal = 0;
options = 0;
place = (
556,
90
);
stem = -2;
},
{
horizontal = 0;
options = 0;
place = (
41,
495
);
stem = -2;
},
{
horizontal = 1;
options = 0;
place = (
0,
21
);
stem = -2;
target = (
u,
p
);
type = BottomGhost;
},
{
horizontal = 1;
options = 0;
place = (
333,
79
);
stem = -2;
},
{
horizontal = 1;
options = 0;
place = (
714,
-20
);
stem = -2;
target = (
d,
o,
w,
n
);
type = TopGhost;
},
{
horizontal = 1;
options = 0;
place = (
0,
80
);
stem = -2;
},
{
horizontal = 1;
options = 0;
place = (
634,
80
);
stem = -2;
}
);
};
width = 658;
}
);
unicode = 1E901;
},
{
glyphname = "Laam-adlam";
lastChange = "2019-11-19 20:30:39 +0000";
layers = (
{
anchors = (
{
name = top;
position = "{373, 663}";
}
);
layerId = master01;
paths = (
{
closed = 1;
nodes = (
"353 0 LINE SMOOTH",
"447 0 OFFCURVE",
"465 32 OFFCURVE",
"465 118 CURVE SMOOTH",
"465 233 LINE SMOOTH",
"465 285 OFFCURVE",
"476 300 OFFCURVE",
"535 347 CURVE SMOOTH",
"575 380 OFFCURVE",
"600 399 OFFCURVE",
"614 413 CURVE",
"616 412 LINE",
"616 0 LINE",
"706 0 LINE",
"706 714 LINE",
"616 714 LINE",
"616 563 LINE SMOOTH",
"616 512 OFFCURVE",
"600 500 OFFCURVE",
"541 450 CURVE SMOOTH",
"493 409 OFFCURVE",
"481 398 OFFCURVE",
"468 384 CURVE",
"465 384 LINE",
"465 550 LINE SMOOTH",
"465 675 OFFCURVE",
"411 726 OFFCURVE",
"283 726 CURVE SMOOTH",
"124 726 OFFCURVE",
"65 625 OFFCURVE",
"50 595 CURVE",
"50 374 LINE",
"140 374 LINE",
"140 575 LINE",
"153 597 OFFCURVE",
"195 647 OFFCURVE",
"277 647 CURVE SMOOTH",
"350 647 OFFCURVE",
"375 614 OFFCURVE",
"375 550 CURVE SMOOTH",
"375 137 LINE SMOOTH",
"375 95 OFFCURVE",
"366 79 OFFCURVE",
"326 79 CURVE SMOOTH",
"50 79 LINE",
"50 0 LINE"
);
}
);
userData = {
com.schriftgestaltung.Glyphs.category = Letter;
com.schriftgestaltung.Glyphs.lastChange = "2017/01/05 17:36:54";
com.schriftgestaltung.Glyphs.subCategory = Uppercase;
};
width = 816;
},
{
anchors = (
{
name = top;
position = "{408, 663}";
}
);
layerId = "201D1995-4E5E-441E-AFED-969F1360B126";
paths = (
{
closed = 1;
nodes = (
"403 0 LINE SMOOTH",
"497 0 OFFCURVE",
"515 32 OFFCURVE",
"515 118 CURVE SMOOTH",
"515 244 LINE SMOOTH",
"515 297 OFFCURVE",
"521 304 OFFCURVE",
"569 339 CURVE SMOOTH",
"614 372 OFFCURVE",
"623 379 OFFCURVE",
"629 385 CURVE",
"631 384 LINE",
"631 0 LINE",
"782 0 LINE",
"782 714 LINE",
"631 714 LINE",
"631 536 LINE SMOOTH",
"631 499 OFFCURVE",
"624 493 OFFCURVE",
"579 462 CURVE SMOOTH",
"543 437 OFFCURVE",
"528 426 OFFCURVE",
"518 416 CURVE",
"515 416 LINE",
"515 522 LINE SMOOTH",
"515 681 OFFCURVE",
"445 726 OFFCURVE",
"312 726 CURVE SMOOTH",
"132 726 OFFCURVE",
"58 614 OFFCURVE",
"40 571 CURVE",
"40 374 LINE",
"191 374 LINE",
"191 543 LINE",
"202 566 OFFCURVE",
"231 600 OFFCURVE",
"293 600 CURVE SMOOTH",
"347 600 OFFCURVE",
"364 573 OFFCURVE",
"364 522 CURVE SMOOTH",
"364 183 LINE SMOOTH",
"364 141 OFFCURVE",
"355 125 OFFCURVE",
"315 125 CURVE SMOOTH",
"51 125 LINE",
"51 0 LINE"
);
}
);
userData = {
com.schriftgestaltung.Glyphs.category = Letter;
com.schriftgestaltung.Glyphs.lastChange = "2017/01/05 17:36:54";
com.schriftgestaltung.Glyphs.subCategory = Uppercase;
};
width = 872;
}
);
unicode = 1E902;
},
{
glyphname = "Miim-adlam";
lastChange = "2019-11-20 21:41:59 +0000";
layers = (
{
anchors = (
{
name = top;
position = "{304, 663}";
}
);
layerId = master01;
paths = (
{
closed = 1;
nodes = (
"375 0 LINE SMOOTH",
"498 0 OFFCURVE",
"561 38 OFFCURVE",
"561 148 CURVE SMOOTH",
"561 294 OFFCURVE",
"480 343 OFFCURVE",
"315 393 CURVE SMOOTH",
"186 432 OFFCURVE",
"133 469 OFFCURVE",
"133 542 CURVE SMOOTH",
"133 607 OFFCURVE",
"186 645 OFFCURVE",
"307 645 CURVE SMOOTH",
"426 645 OFFCURVE",
"468 606 OFFCURVE",
"468 542 CURVE SMOOTH",
"468 482 OFFCURVE",
"440 451 OFFCURVE",
"416 425 CURVE",
"488 374 LINE",
"507 390 OFFCURVE",
"561 443 OFFCURVE",
"561 542 CURVE SMOOTH",
"561 654 OFFCURVE",
"498 724 OFFCURVE",
"307 724 CURVE SMOOTH",
"147 724 OFFCURVE",
"40 664 OFFCURVE",
"40 539 CURVE SMOOTH",
"40 425 OFFCURVE",
"105 370 OFFCURVE",
"266 321 CURVE SMOOTH",
"407 278 OFFCURVE",
"468 237 OFFCURVE",
"468 148 CURVE SMOOTH",
"468 105 OFFCURVE",
"443 79 OFFCURVE",
"375 79 CURVE SMOOTH",
"46 79 LINE",
"46 0 LINE"
);
}
);
userData = {
com.schriftgestaltung.Glyphs.category = Letter;
com.schriftgestaltung.Glyphs.lastChange = "2017/01/05 17:36:54";
com.schriftgestaltung.Glyphs.subCategory = Uppercase;
com.schriftgestaltung.hints = (
{
horizontal = 0;
options = 0;
place = (
817,
90
);
stem = -2;
},
{
horizontal = 0;
options = 0;
place = (
1273,
90
);
stem = -2;
},
{
horizontal = 0;
options = 0;
place = (
49,
95
);
stem = -2;
},
{
horizontal = 0;
options = 0;
place = (
613,
95
);
stem = -2;
},
{
horizontal = 0;
options = 0;
place = (
46,
91
);
stem = -2;
},
{
horizontal = 0;
options = 0;
place = (
451,
91
);
stem = -2;
},
{
horizontal = 0;
options = 0;
place = (
1053,
95
);
stem = -2;
},
{
horizontal = 0;
options = 0;
place = (
1617,
95
);
stem = -2;
},
{
horizontal = 1;
options = 0;
place = (
31,
21
);
stem = -2;
target = (
u,
p
);
type = BottomGhost;
},
{
horizontal = 1;
options = 0;
place = (
364,
79
);
stem = -2;
},
{
horizontal = 1;
options = 0;
place = (
745,
-20
);
stem = -2;
target = (
d,
o,
w,
n
);
type = TopGhost;
},
{
horizontal = 1;
options = 0;
place = (
-164,
78
);
stem = -2;
},
{
horizontal = 1;
options = 0;
place = (
492,
79
);
stem = -2;
},
{
horizontal = 1;
options = 0;
place = (
-10,
73
);
stem = -2;
},
{
horizontal = 1;
options = 0;
place = (
472,
74
);
stem = -2;
},
{
horizontal = 1;
options = 0;
place = (
241,
78
);
stem = -2;
},
{
horizontal = 1;
options = 0;
place = (
897,
79
);
stem = -2;
}
);
};
width = 626;
},
{
anchors = (
{
name = top;
position = "{327, 663}";
}
);
layerId = "201D1995-4E5E-441E-AFED-969F1360B126";
paths = (
{
closed = 1;
nodes = (
"372 0 LINE SMOOTH",
"535 0 OFFCURVE",
"604 49 OFFCURVE",
"604 178 CURVE SMOOTH",
"604 310 OFFCURVE",
"535 372 OFFCURVE",
"368 422 CURVE SMOOTH",
"215 468 OFFCURVE",
"191 488 OFFCURVE",
"191 538 CURVE SMOOTH",
"191 579 OFFCURVE",
"231 599 OFFCURVE",
"317 599 CURVE SMOOTH",
"407 599 OFFCURVE",
"448 576 OFFCURVE",
"448 518 CURVE SMOOTH",
"448 488 OFFCURVE",
"435 472 OFFCURVE",
"423 459 CURVE",
"545 396 LINE",
"565 414 OFFCURVE",
"604 456 OFFCURVE",
"604 538 CURVE SMOOTH",
"604 651 OFFCURVE",
"539 724 OFFCURVE",
"331 724 CURVE SMOOTH",
"128 724 OFFCURVE",
"35 662 OFFCURVE",
"35 535 CURVE SMOOTH",
"35 401 OFFCURVE",
"107 363 OFFCURVE",
"244 320 CURVE SMOOTH",
"407 269 OFFCURVE",
"450 238 OFFCURVE",
"450 178 CURVE SMOOTH",
"450 141 OFFCURVE",
"429 125 OFFCURVE",
"372 125 CURVE SMOOTH",
"40 125 LINE",
"40 0 LINE"
);
}
);
userData = {
com.schriftgestaltung.Glyphs.category = Letter;
com.schriftgestaltung.Glyphs.lastChange = "2017/01/05 17:36:54";
com.schriftgestaltung.Glyphs.subCategory = Uppercase;
com.schriftgestaltung.hints = (
{
horizontal = 0;
options = 0;
place = (
817,
90
);
stem = -2;
},
{
horizontal = 0;
options = 0;
place = (
1273,
90
);
stem = -2;
},
{
horizontal = 0;
options = 0;
place = (
49,
95
);
stem = -2;
},
{
horizontal = 0;
options = 0;
place = (
613,
95
);
stem = -2;
},
{
horizontal = 0;
options = 0;
place = (
46,
91
);
stem = -2;
},
{
horizontal = 0;
options = 0;
place = (
451,
91
);
stem = -2;
},
{
horizontal = 0;
options = 0;
place = (
1053,
95
);
stem = -2;
},
{
horizontal = 0;
options = 0;
place = (
1617,
95
);
stem = -2;
},
{
horizontal = 1;
options = 0;
place = (
31,
21
);
stem = -2;
target = (
u,
p
);
type = BottomGhost;
},
{
horizontal = 1;
options = 0;
place = (
364,
79
);
stem = -2;
},
{
horizontal = 1;
options = 0;
place = (
745,
-20
);
stem = -2;
target = (
d,
o,
w,
n
);
type = TopGhost;
},
{
horizontal = 1;
options = 0;
place = (
-164,
78
);
stem = -2;
},
{
horizontal = 1;
options = 0;
place = (
492,
79
);
stem = -2;
},
{
horizontal = 1;
options = 0;
place = (
-10,
73
);
stem = -2;
},
{
horizontal = 1;
options = 0;
place = (
472,
74
);
stem = -2;
},
{
horizontal = 1;
options = 0;
place = (
241,
78
);
stem = -2;
},
{
horizontal = 1;
options = 0;
place = (
897,
79
);
stem = -2;
}
);
};
width = 669;
}
);
unicode = 1E903;
},
{
glyphname = "Ba-adlam";
lastChange = "2019-11-19 20:36:55 +0000";
layers = (
{
anchors = (
{
name = top;
position = "{375, 663}";
}
);
layerId = master01;
paths = (
{
closed = 1;
nodes = (
"200 0 LINE",
"200 272 LINE",
"230 262 OFFCURVE",
"308 253 OFFCURVE",
"351 253 CURVE",
"351 118 LINE SMOOTH",
"351 32 OFFCURVE",
"369 0 OFFCURVE",
"464 0 CURVE SMOOTH",
"713 0 LINE",
"713 79 LINE",
"491 79 LINE SMOOTH",
"450 79 OFFCURVE",
"441 95 OFFCURVE",
"441 137 CURVE SMOOTH",
"441 253 LINE",
"625 267 OFFCURVE",
"718 355 OFFCURVE",
"718 512 CURVE SMOOTH",
"718 665 OFFCURVE",
"629 724 OFFCURVE",
"501 724 CURVE SMOOTH",
"425 724 OFFCURVE",
"371 707 OFFCURVE",
"351 694 CURVE",
"351 332 LINE",
"305 333 OFFCURVE",
"227 346 OFFCURVE",
"200 357 CURVE",
"200 714 LINE",
"110 714 LINE",
"110 0 LINE"
);
},
{
closed = 1;
nodes = (
"441 636 LINE",
"451 641 OFFCURVE",
"473 645 OFFCURVE",
"501 645 CURVE SMOOTH",
"568 645 OFFCURVE",
"625 608 OFFCURVE",
"625 506 CURVE SMOOTH",
"625 393 OFFCURVE",
"563 343 OFFCURVE",
"441 332 CURVE"
);
}
);
userData = {
com.schriftgestaltung.Glyphs.category = Letter;
com.schriftgestaltung.Glyphs.lastChange = "2017/01/05 17:36:54";
com.schriftgestaltung.Glyphs.subCategory = Uppercase;
com.schriftgestaltung.hints = (
{
horizontal = 0;
options = 0;
place = (
57,
90
);
stem = -2;
},
{
horizontal = 0;
options = 0;
place = (
513,
90
);
stem = -2;
},
{
horizontal = 0;
options = 0;
place = (
-2,
495
);
stem = -2;
},
{
horizontal = 0;
options = 0;
place = (
45,
88
);
stem = -2;
},
{
horizontal = 0;
options = 0;
place = (
410,
87
);
stem = -2;
},
{
horizontal = 0;
options = 0;
place = (
-1,
392
);
stem = -2;
},
{
horizontal = 1;
options = 0;
place = (
0,
21
);
stem = -2;
target = (
u,
p
);
type = BottomGhost;
},
{
horizontal = 1;
options = 0;
place = (
333,
79
);
stem = -2;
},
{
horizontal = 1;
options = 0;
place = (
714,
-20
);
stem = -2;
target = (
d,
o,
w,
n
);
type = TopGhost;
},
{
horizontal = 1;
options = 0;
place = (
0,
80
);
stem = -2;
},
{
horizontal = 1;
options = 0;
place = (
634,
80
);
stem = -2;
},
{
horizontal = 1;
options = 0;
place = (
0,
21
);
stem = -2;
target = (
u,
p
);
type = BottomGhost;
},
{
horizontal = 1;
options = 0;
place = (
472,
74
);
stem = -2;
},
{
horizontal = 1;
options = 0;
place = (
536,
-20
);
stem = -2;
target = (
d,
o,
w,
n
);
type = TopGhost;
},
{
horizontal = 1;
options = 0;
place = (
0,
68
);
stem = -2;
},
{
horizontal = 1;
options = 0;
place = (
468,
68
);
stem = -2;
}
);
};
width = 768;
},
{
anchors = (
{
name = top;
position = "{416, 663}";
}
);
layerId = "201D1995-4E5E-441E-AFED-969F1360B126";
paths = (
{
closed = 1;
nodes = (
"241 0 LINE",
"241 259 LINE",
"264 251 OFFCURVE",
"318 242 OFFCURVE",
"357 240 CURVE",
"357 118 LINE SMOOTH",
"357 32 OFFCURVE",
"375 0 OFFCURVE",
"470 0 CURVE SMOOTH",
"754 0 LINE",
"754 125 LINE",
"557 125 LINE SMOOTH",
"517 125 OFFCURVE",
"508 141 OFFCURVE",
"508 183 CURVE SMOOTH",
"508 240 LINE",
"707 253 OFFCURVE",
"795 349 OFFCURVE",
"795 501 CURVE SMOOTH",
"795 654 OFFCURVE",
"702 724 OFFCURVE",
"542 724 CURVE SMOOTH",
"444 724 OFFCURVE",
"377 707 OFFCURVE",
"357 694 CURVE",
"357 365 LINE",
"321 368 OFFCURVE",
"265 379 OFFCURVE",
"241 389 CURVE",
"241 714 LINE",
"90 714 LINE",
"90 0 LINE"
);
},
{
closed = 1;
nodes = (
"508 594 LINE",
"515 597 OFFCURVE",
"526 599 OFFCURVE",
"542 599 CURVE SMOOTH",
"591 599 OFFCURVE",
"639 571 OFFCURVE",
"639 490 CURVE SMOOTH",
"639 411 OFFCURVE",
"603 372 OFFCURVE",
"508 365 CURVE"
);
}
);
userData = {
com.schriftgestaltung.Glyphs.category = Letter;
com.schriftgestaltung.Glyphs.lastChange = "2017/01/05 17:36:54";
com.schriftgestaltung.Glyphs.subCategory = Uppercase;
com.schriftgestaltung.hints = (
{
horizontal = 0;
options = 0;
place = (
57,
90
);
stem = -2;
},
{
horizontal = 0;
options = 0;
place = (
513,
90
);
stem = -2;
},
{
horizontal = 0;
options = 0;
place = (
-2,
495
);
stem = -2;
},
{
horizontal = 0;
options = 0;
place = (
45,
88
);
stem = -2;
},
{
horizontal = 0;
options = 0;
place = (
410,
87
);
stem = -2;
},
{
horizontal = 0;
options = 0;
place = (
-1,
392
);
stem = -2;
},
{
horizontal = 1;
options = 0;
place = (
0,
21
);
stem = -2;
target = (
u,
p
);
type = BottomGhost;
},
{
horizontal = 1;
options = 0;
place = (
333,
79
);
stem = -2;
},
{
horizontal = 1;
options = 0;
place = (
714,
-20
);
stem = -2;
target = (
d,
o,
w,
n
);
type = TopGhost;
},
{
horizontal = 1;
options = 0;
place = (
0,
80
);
stem = -2;
},
{
horizontal = 1;
options = 0;
place = (
634,
80
);
stem = -2;
},
{
horizontal = 1;
options = 0;
place = (
0,
21
);
stem = -2;
target = (
u,
p
);
type = BottomGhost;
},
{
horizontal = 1;
options = 0;
place = (
472,
74
);
stem = -2;
},
{
horizontal = 1;
options = 0;
place = (
536,
-20
);
stem = -2;
target = (
d,
o,
w,
n
);
type = TopGhost;
},
{
horizontal = 1;
options = 0;
place = (
0,
68
);
stem = -2;
},
{
horizontal = 1;
options = 0;
place = (
468,
68
);
stem = -2;
}
);
};
width = 840;
}
);
unicode = 1E904;
},
{
glyphname = "Sinnyiiyhe-adlam";
lastChange = "2019-11-20 21:41:59 +0000";
layers = (
{
anchors = (
{
name = bottom;
position = "{447, 0}";
},
{
name = gemconsonanttop;
position = "{457, 663}";
},
{
name = top;
position = "{447, 663}";
}
);
layerId = master01;
paths = (
{
closed = 1;
nodes = (
"386 -10 OFFCURVE",
"439 28 OFFCURVE",
"456 65 CURVE",
"462 65 LINE",
"479 28 OFFCURVE",
"525 -10 OFFCURVE",
"624 -10 CURVE SMOOTH",
"744 -10 OFFCURVE",
"815 44 OFFCURVE",
"815 187 CURVE SMOOTH",
"815 596 LINE SMOOTH",
"815 682 OFFCURVE",
"797 714 OFFCURVE",
"703 714 CURVE SMOOTH",
"422 714 LINE",
"422 635 LINE",
"676 635 LINE SMOOTH",
"716 635 OFFCURVE",
"725 619 OFFCURVE",
"725 577 CURVE SMOOTH",
"725 187 LINE SMOOTH",
"725 112 OFFCURVE",
"693 69 OFFCURVE",
"624 69 CURVE SMOOTH",
"554 69 OFFCURVE",
"507 113 OFFCURVE",
"507 187 CURVE SMOOTH",
"507 535 LINE",
"417 535 LINE",
"417 187 LINE SMOOTH",
"417 113 OFFCURVE",
"371 69 OFFCURVE",
"299 69 CURVE SMOOTH",
"227 69 OFFCURVE",
"200 120 OFFCURVE",
"200 188 CURVE SMOOTH",
"200 714 LINE",
"110 714 LINE",
"110 188 LINE SMOOTH",
"110 44 OFFCURVE",
"179 -10 OFFCURVE",
"289 -10 CURVE SMOOTH"
);
}
);
userData = {
com.schriftgestaltung.Glyphs.category = Letter;
com.schriftgestaltung.Glyphs.lastChange = "2017/01/05 17:36:54";
com.schriftgestaltung.Glyphs.subCategory = Uppercase;
com.schriftgestaltung.hints = (
{
horizontal = 0;
options = 0;
place = (
72,
91
);
stem = -2;
},
{
horizontal = 0;
options = 0;
place = (
477,
91
);
stem = -2;
},
{
horizontal = 1;
options = 0;
place = (
-10,
73
);
stem = -2;
},
{
horizontal = 1;
options = 0;
place = (
472,
74
);
stem = -2;
}
);
};
width = 925;
},
{
anchors = (
{
name = bottom;
position = "{464, 0}";
},
{
name = gemconsonanttop;
position = "{474, 663}";
},
{
name = top;
position = "{464, 663}";
}
);
layerId = "201D1995-4E5E-441E-AFED-969F1360B126";
paths = (
{
closed = 1;
nodes = (
"393 -10 OFFCURVE",
"454 28 OFFCURVE",
"474 65 CURVE",
"479 65 LINE",
"499 28 OFFCURVE",
"551 -10 OFFCURVE",
"637 -10 CURVE SMOOTH",
"754 -10 OFFCURVE",
"863 45 OFFCURVE",
"863 212 CURVE SMOOTH",
"863 596 LINE SMOOTH",
"863 682 OFFCURVE",
"845 714 OFFCURVE",
"751 714 CURVE SMOOTH",
"401 714 LINE",
"401 589 LINE",
"663 589 LINE SMOOTH",
"703 589 OFFCURVE",
"712 573 OFFCURVE",
"712 531 CURVE SMOOTH",
"712 212 LINE SMOOTH",
"712 144 OFFCURVE",
"683 116 OFFCURVE",
"632 116 CURVE SMOOTH",
"578 116 OFFCURVE",
"552 144 OFFCURVE",
"552 212 CURVE SMOOTH",
"552 496 LINE",
"401 496 LINE",
"401 212 LINE SMOOTH",
"401 144 OFFCURVE",
"368 116 OFFCURVE",
"315 116 CURVE SMOOTH",
"265 116 OFFCURVE",
"241 144 OFFCURVE",
"241 212 CURVE SMOOTH",
"241 714 LINE",
"90 714 LINE",
"90 212 LINE SMOOTH",
"90 45 OFFCURVE",
"174 -10 OFFCURVE",
"301 -10 CURVE SMOOTH"
);
}
);
userData = {
com.schriftgestaltung.Glyphs.category = Letter;
com.schriftgestaltung.Glyphs.lastChange = "2017/01/05 17:36:54";
com.schriftgestaltung.Glyphs.subCategory = Uppercase;
com.schriftgestaltung.hints = (
{
horizontal = 0;
options = 0;
place = (
72,
91
);
stem = -2;
},
{
horizontal = 0;
options = 0;
place = (
477,
91
);
stem = -2;
},
{
horizontal = 1;
options = 0;
place = (
-10,
73
);
stem = -2;
},
{
horizontal = 1;
options = 0;
place = (
472,
74
);
stem = -2;
}
);
};
width = 953;
}
);
unicode = 1E905;
},
{
glyphname = "Pe-adlam";
lastChange = "2019-11-19 20:35:51 +0000";
layers = (
{
anchors = (
{
name = top;
position = "{328, 663}";
}
);
layerId = master01;
paths = (
{
closed = 1;
nodes = (
"534 0 LINE",
"534 79 LINE",
"235 79 LINE SMOOTH",
"208 79 OFFCURVE",
"200 90 OFFCURVE",
"200 114 CURVE SMOOTH",
"200 623 LINE",
"218 635 OFFCURVE",
"244 645 OFFCURVE",
"293 645 CURVE SMOOTH",
"387 645 OFFCURVE",
"461 574 OFFCURVE",
"461 438 CURVE SMOOTH",
"461 307 OFFCURVE",
"381 231 OFFCURVE",
"333 189 CURVE",
"391 124 LINE",
"443 168 OFFCURVE",
"554 263 OFFCURVE",
"554 444 CURVE SMOOTH",
"554 633 OFFCURVE",
"451 724 OFFCURVE",
"293 724 CURVE SMOOTH",
"196 724 OFFCURVE",
"140 693 OFFCURVE",
"110 668 CURVE",
"110 48 LINE SMOOTH",
"110 17 OFFCURVE",
"123 0 OFFCURVE",
"160 0 CURVE SMOOTH"
);
}
);
userData = {
com.schriftgestaltung.Glyphs.category = Letter;
com.schriftgestaltung.Glyphs.lastChange = "2017/01/05 17:36:54";
com.schriftgestaltung.Glyphs.subCategory = Uppercase;
com.schriftgestaltung.hints = (
{
horizontal = 0;
options = 0;
place = (
88,
95
);
stem = -2;
},
{
horizontal = 1;
options = 0;
place = (
-10,
79
);
stem = -2;
},
{
horizontal = 1;
options = 0;
place = (
645,
79
);
stem = -2;
}
);
};
width = 634;
},
{
anchors = (
{
name = top;
position = "{338, 663}";
}
);
layerId = "201D1995-4E5E-441E-AFED-969F1360B126";
paths = (
{
closed = 1;
nodes = (
"555 0 LINE",
"555 125 LINE",
"276 125 LINE SMOOTH",
"249 125 OFFCURVE",
"241 136 OFFCURVE",
"241 160 CURVE SMOOTH",
"241 589 LINE",
"249 593 OFFCURVE",
"268 599 OFFCURVE",
"298 599 CURVE SMOOTH",
"367 599 OFFCURVE",
"429 550 OFFCURVE",
"429 435 CURVE SMOOTH",
"429 340 OFFCURVE",
"379 293 OFFCURVE",
"344 260 CURVE",
"444 153 LINE",
"487 190 OFFCURVE",
"585 275 OFFCURVE",
"585 439 CURVE SMOOTH",
"585 623 OFFCURVE",
"483 724 OFFCURVE",
"298 724 CURVE SMOOTH",
"192 724 OFFCURVE",
"118 694 OFFCURVE",
"90 676 CURVE",
"90 48 LINE SMOOTH",
"90 17 OFFCURVE",
"103 0 OFFCURVE",
"140 0 CURVE SMOOTH"
);
}
);
userData = {
com.schriftgestaltung.Glyphs.category = Letter;
com.schriftgestaltung.Glyphs.lastChange = "2017/01/05 17:36:54";
com.schriftgestaltung.Glyphs.subCategory = Uppercase;
com.schriftgestaltung.hints = (
{
horizontal = 0;
options = 0;
place = (
88,
95
);
stem = -2;
},
{
horizontal = 1;
options = 0;
place = (
-10,
79
);
stem = -2;
},
{
horizontal = 1;
options = 0;
place = (
645,
79
);
stem = -2;
}
);
};
width = 645;
}
);
unicode = 1E906;
},
{
glyphname = "Bhe-adlam";
lastChange = "2019-11-20 21:31:21 +0000";
layers = (
{
anchors = (
{
name = top;
position = "{339, 663}";
}
);
layerId = master01;
paths = (
{
closed = 1;
nodes = (
"247 0 LINE SMOOTH",
"285 0 OFFCURVE",
"301 0 OFFCURVE",
"322 9 CURVE SMOOTH",
"364 27 OFFCURVE",
"392 67 OFFCURVE",
"392 168 CURVE",
"403 196 OFFCURVE",
"443 233 OFFCURVE",
"466 244 CURVE",
"471 242 LINE",
"471 0 LINE",
"561 0 LINE",
"561 532 LINE",
"471 532 LINE",
"471 340 LINE",
"444 328 OFFCURVE",
"389 291 OFFCURVE",
"372 260 CURVE",
"369 260 LINE",
"352 304 OFFCURVE",
"319 339 OFFCURVE",
"248 386 CURVE SMOOTH",
"179 433 OFFCURVE",
"148 477 OFFCURVE",
"148 537 CURVE SMOOTH",
"148 602 OFFCURVE",
"194 635 OFFCURVE",
"294 635 CURVE SMOOTH",
"561 635 LINE",
"561 714 LINE",
"294 714 LINE SMOOTH",
"155 714 OFFCURVE",
"55 683 OFFCURVE",
"55 538 CURVE SMOOTH",
"55 446 OFFCURVE",
"100 380 OFFCURVE",
"187 324 CURVE SMOOTH",
"257 278 OFFCURVE",
"303 228 OFFCURVE",
"303 141 CURVE SMOOTH",
"303 92 OFFCURVE",
"280 79 OFFCURVE",
"239 79 CURVE SMOOTH",
"59 79 LINE",
"59 0 LINE"
);
}
);
userData = {
com.schriftgestaltung.Glyphs.category = Letter;
com.schriftgestaltung.Glyphs.lastChange = "2017/01/05 17:36:54";
com.schriftgestaltung.Glyphs.subCategory = Uppercase;
};
width = 671;
},
{
anchors = (
{
name = top;
position = "{365, 663}";
}
);
layerId = "201D1995-4E5E-441E-AFED-969F1360B126";
paths = (
{
closed = 1;
nodes = (
"245 0 LINE SMOOTH",
"276 0 OFFCURVE",
"303 0 OFFCURVE",
"340 14 CURVE SMOOTH",
"385 31 OFFCURVE",
"421 81 OFFCURVE",
"421 178 CURVE",
"429 198 OFFCURVE",
"456 226 OFFCURVE",
"472 233 CURVE",
"477 231 LINE",
"477 0 LINE",
"628 0 LINE",
"628 516 LINE",
"477 516 LINE",
"477 341 LINE",
"456 333 OFFCURVE",
"418 306 OFFCURVE",
"404 281 CURVE",
"399 281 LINE",
"390 310 OFFCURVE",
"358 350 OFFCURVE",
"300 402 CURVE SMOOTH",
"246 450 OFFCURVE",
"216 477 OFFCURVE",
"216 529 CURVE SMOOTH",
"216 570 OFFCURVE",
"247 589 OFFCURVE",
"309 589 CURVE SMOOTH",
"628 589 LINE",
"628 714 LINE",
"309 714 LINE SMOOTH",
"136 714 OFFCURVE",
"60 656 OFFCURVE",
"60 527 CURVE SMOOTH",
"60 419 OFFCURVE",
"109 379 OFFCURVE",
"173 321 CURVE SMOOTH",
"250 252 OFFCURVE",
"268 229 OFFCURVE",
"268 181 CURVE SMOOTH",
"268 134 OFFCURVE",
"244 125 OFFCURVE",
"199 125 CURVE SMOOTH",
"65 125 LINE",
"65 0 LINE"
);
}
);
userData = {
com.schriftgestaltung.Glyphs.category = Letter;
com.schriftgestaltung.Glyphs.lastChange = "2017/01/05 17:36:54";
com.schriftgestaltung.Glyphs.subCategory = Uppercase;
};
width = 718;
}
);
unicode = 1E907;
},
{
glyphname = "Ra-adlam";
lastChange = "2019-10-30 17:52:34 +0000";
layers = (
{
anchors = (
{
name = top;
position = "{369, 663}";
}
);
layerId = master01;
paths = (
{
closed = 1;
nodes = (
"614 0 LINE",
"614 79 LINE",
"249 79 LINE SMOOTH",
"209 79 OFFCURVE",
"200 95 OFFCURVE",
"200 137 CURVE SMOOTH",
"200 276 LINE",
"205 279 LINE",
"218 268 OFFCURVE",
"260 236 OFFCURVE",
"360 236 CURVE SMOOTH",
"515 236 OFFCURVE",
"614 289 OFFCURVE",
"614 452 CURVE SMOOTH",
"614 714 LINE",
"524 714 LINE",
"524 451 LINE SMOOTH",
"524 348 OFFCURVE",
"468 315 OFFCURVE",
"360 315 CURVE SMOOTH",
"260 315 OFFCURVE",
"220 357 OFFCURVE",
"200 380 CURVE",
"200 714 LINE",
"110 714 LINE",
"110 118 LINE SMOOTH",
"110 32 OFFCURVE",
"128 0 OFFCURVE",
"222 0 CURVE SMOOTH"
);
}
);
userData = {
com.schriftgestaltung.Glyphs.category = Letter;
com.schriftgestaltung.Glyphs.lastChange = "2017/01/05 17:36:54";
com.schriftgestaltung.Glyphs.subCategory = Uppercase;
};
width = 709;
},
{
anchors = (
{
name = top;
position = "{380, 663}";
}
);
layerId = "201D1995-4E5E-441E-AFED-969F1360B126";
paths = (
{
closed = 1;
nodes = (
"656 0 LINE",
"656 125 LINE",
"290 125 LINE SMOOTH",
"250 125 OFFCURVE",
"241 141 OFFCURVE",
"241 183 CURVE SMOOTH",
"241 263 LINE",
"246 266 LINE",
"260 253 OFFCURVE",
"303 223 OFFCURVE",
"405 223 CURVE SMOOTH",
"547 223 OFFCURVE",
"656 276 OFFCURVE",
"656 458 CURVE SMOOTH",
"656 714 LINE",
"505 714 LINE",
"505 458 LINE SMOOTH",
"505 381 OFFCURVE",
"471 348 OFFCURVE",
"382 348 CURVE SMOOTH",
"296 348 OFFCURVE",
"257 390 OFFCURVE",
"241 413 CURVE",
"241 714 LINE",
"90 714 LINE",
"90 118 LINE SMOOTH",
"90 32 OFFCURVE",
"108 0 OFFCURVE",
"202 0 CURVE SMOOTH"
);
}
);
userData = {
com.schriftgestaltung.Glyphs.category = Letter;
com.schriftgestaltung.Glyphs.lastChange = "2017/01/05 17:36:54";
com.schriftgestaltung.Glyphs.subCategory = Uppercase;
};
width = 731;
}
);
unicode = 1E908;
},
{
glyphname = "E-adlam";
lastChange = "2019-11-20 21:31:48 +0000";
layers = (
{
anchors = (
{
name = bottom;
position = "{377, 0}";
},
{
name = top;
position = "{373, 666}";
},
{
name = "vowellengthencomb-adlam.case";
position = "{435, 557}";
}
);
layerId = master01;
paths = (
{
closed = 1;
nodes = (
"200 0 LINE",
"200 38 LINE",
"206 73 OFFCURVE",
"225 99 OFFCURVE",
"235 109 CURVE",
"240 109 LINE",
"240 52 OFFCURVE",
"283 0 OFFCURVE",
"377 0 CURVE SMOOTH",
"493 0 LINE SMOOTH",
"606 0 OFFCURVE",
"676 33 OFFCURVE",
"676 147 CURVE SMOOTH",
"676 276 OFFCURVE",
"567 316 OFFCURVE",
"511 326 CURVE",
"510 330 LINE",
"582 382 OFFCURVE",
"631 438 OFFCURVE",
"631 545 CURVE SMOOTH",
"631 657 OFFCURVE",
"562 724 OFFCURVE",
"383 724 CURVE SMOOTH",
"188 724 OFFCURVE",
"110 655 OFFCURVE",
"110 483 CURVE SMOOTH",
"110 0 LINE"
);
},
{
closed = 1;
nodes = (
"346 79 OFFCURVE",
"318 97 OFFCURVE",
"318 145 CURVE SMOOTH",
"318 199 OFFCURVE",
"367 245 OFFCURVE",
"405 264 CURVE",
"410 266 OFFCURVE",
"421 267 OFFCURVE",
"432 267 CURVE SMOOTH",
"495 267 OFFCURVE",
"583 228 OFFCURVE",
"583 146 CURVE SMOOTH",
"583 97 OFFCURVE",
"555 79 OFFCURVE",
"493 79 CURVE SMOOTH",
"400 79 LINE SMOOTH"
);
},
{
closed = 1;
nodes = (
"200 483 LINE SMOOTH",
"200 608 OFFCURVE",
"257 645 OFFCURVE",
"383 645 CURVE SMOOTH",
"503 645 OFFCURVE",
"538 597 OFFCURVE",
"538 534 CURVE SMOOTH",
"538 456 OFFCURVE",
"503 422 OFFCURVE",
"396 350 CURVE SMOOTH",
"291 279 OFFCURVE",
"263 244 OFFCURVE",
"247 200 CURVE",
"222 184 OFFCURVE",
"208 162 OFFCURVE",
"203 151 CURVE",
"200 151 LINE"
);
}
);
userData = {
com.schriftgestaltung.Glyphs.category = Letter;
com.schriftgestaltung.Glyphs.lastChange = "2017/01/05 17:36:54";
com.schriftgestaltung.Glyphs.subCategory = Uppercase;
};
width = 731;
},
{
anchors = (
{
name = bottom;
position = "{398, 0}";
},
{
name = top;
position = "{398, 666}";
},
{
name = "vowellengthencomb-adlam.case";
position = "{419, 602}";
}
);
layerId = "201D1995-4E5E-441E-AFED-969F1360B126";
paths = (
{
closed = 1;
nodes = (
"241 0 LINE",
"241 45 LINE",
"246 77 OFFCURVE",
"261 104 OFFCURVE",
"281 122 CURVE",
"286 122 LINE",
"290 42 OFFCURVE",
"339 0 OFFCURVE",
"447 0 CURVE SMOOTH",
"523 0 LINE SMOOTH",
"612 0 OFFCURVE",
"724 26 OFFCURVE",
"724 155 CURVE SMOOTH",
"724 269 OFFCURVE",
"642 314 OFFCURVE",
"553 324 CURVE",
"553 329 LINE",
"609 364 OFFCURVE",
"682 421 OFFCURVE",
"682 527 CURVE SMOOTH",
"682 657 OFFCURVE",
"605 724 OFFCURVE",
"398 724 CURVE SMOOTH",
"126 724 OFFCURVE",
"90 589 OFFCURVE",
"90 449 CURVE SMOOTH",
"90 0 LINE"
);
},
{
closed = 1;
nodes = (
"421 107 OFFCURVE",
"402 131 OFFCURVE",
"402 169 CURVE SMOOTH",
"402 213 OFFCURVE",
"429 242 OFFCURVE",
"451 257 CURVE",
"454 258 OFFCURVE",
"460 259 OFFCURVE",
"470 259 CURVE SMOOTH",
"531 259 OFFCURVE",
"568 215 OFFCURVE",
"568 167 CURVE SMOOTH",
"568 115 OFFCURVE",
"535 107 OFFCURVE",
"502 107 CURVE SMOOTH",
"461 107 LINE SMOOTH"
);
},
{
closed = 1;
nodes = (
"241 449 LINE SMOOTH",
"241 541 OFFCURVE",
"256 599 OFFCURVE",
"400 599 CURVE SMOOTH",
"496 599 OFFCURVE",
"526 560 OFFCURVE",
"526 508 CURVE SMOOTH",
"526 455 OFFCURVE",
"509 431 OFFCURVE",
"427 376 CURVE SMOOTH",
"338 318 OFFCURVE",
"312 277 OFFCURVE",
"298 242 CURVE",
"283 233 OFFCURVE",
"256 205 OFFCURVE",
"246 184 CURVE",
"241 184 LINE"
);
}
);
userData = {
com.schriftgestaltung.Glyphs.category = Letter;
com.schriftgestaltung.Glyphs.lastChange = "2017/01/05 17:36:54";
com.schriftgestaltung.Glyphs.subCategory = Uppercase;
};
width = 779;
}
);
unicode = 1E909;
},
{
glyphname = "Fa-adlam";
lastChange = "2019-10-30 17:52:34 +0000";
layers = (
{
anchors = (
{
name = top;
position = "{343, 663}";
}
);
layerId = master01;
paths = (
{
closed = 1;
nodes = (
"572 -104 LINE",
"572 291 LINE SMOOTH",
"572 450 OFFCURVE",
"502 501 OFFCURVE",
"375 501 CURVE SMOOTH",
"260 501 OFFCURVE",
"216 460 OFFCURVE",
"194 435 CURVE",
"190 436 LINE",
"190 577 LINE SMOOTH",
"190 619 OFFCURVE",
"199 635 OFFCURVE",
"239 635 CURVE SMOOTH",
"550 635 LINE",
"550 714 LINE",
"212 714 LINE SMOOTH",
"118 714 OFFCURVE",
"100 682 OFFCURVE",
"100 596 CURVE SMOOTH",
"100 0 LINE",
"190 0 LINE",
"190 321 LINE SMOOTH",
"190 360 OFFCURVE",
"248 422 OFFCURVE",
"353 422 CURVE SMOOTH",
"440 422 OFFCURVE",
"482 382 OFFCURVE",
"482 269 CURVE SMOOTH",
"482 -104 LINE"
);
}
);
userData = {
com.schriftgestaltung.Glyphs.category = Letter;
com.schriftgestaltung.Glyphs.lastChange = "2017/01/05 17:36:54";
com.schriftgestaltung.Glyphs.subCategory = Uppercase;
};
width = 667;
},
{
anchors = (
{
name = top;
position = "{354, 663}";
}
);
layerId = "201D1995-4E5E-441E-AFED-969F1360B126";
paths = (
{
closed = 1;
nodes = (
"624 -104 LINE",
"624 281 LINE SMOOTH",
"624 426 OFFCURVE",
"554 491 OFFCURVE",
"423 491 CURVE SMOOTH",
"314 491 OFFCURVE",
"268 450 OFFCURVE",
"246 425 CURVE",
"241 426 LINE",
"241 531 LINE SMOOTH",
"241 573 OFFCURVE",
"250 589 OFFCURVE",
"290 589 CURVE SMOOTH",
"602 589 LINE",
"602 714 LINE",
"202 714 LINE SMOOTH",
"108 714 OFFCURVE",
"90 682 OFFCURVE",
"90 596 CURVE SMOOTH",
"90 0 LINE",
"241 0 LINE",
"241 265 LINE SMOOTH",
"241 304 OFFCURVE",
"299 366 OFFCURVE",
"374 366 CURVE SMOOTH",
"445 366 OFFCURVE",
"473 326 OFFCURVE",
"473 242 CURVE SMOOTH",
"473 -104 LINE"
);
}
);
userData = {
com.schriftgestaltung.Glyphs.category = Letter;
com.schriftgestaltung.Glyphs.lastChange = "2017/01/05 17:36:54";
com.schriftgestaltung.Glyphs.subCategory = Uppercase;
};
width = 699;
}
);
unicode = 1E90A;
},
{
glyphname = "I-adlam";
lastChange = "2019-10-30 17:52:34 +0000";
layers = (
{
anchors = (
{
name = "vowellengthencomb-adlam.case";
position = "{459, 557}";
}
);
layerId = master01;
paths = (
{
closed = 1;
nodes = (
"595 -10 OFFCURVE",
"703 37 OFFCURVE",
"703 233 CURVE SMOOTH",
"703 714 LINE",
"613 714 LINE",
"613 236 LINE SMOOTH",
"613 114 OFFCURVE",
"556 69 OFFCURVE",
"407 69 CURVE SMOOTH",
"258 69 OFFCURVE",
"200 114 OFFCURVE",
"200 236 CURVE SMOOTH",
"200 714 LINE",
"110 714 LINE",
"110 233 LINE SMOOTH",
"110 37 OFFCURVE",
"208 -10 OFFCURVE",
"401 -10 CURVE SMOOTH"
);
}
);
userData = {
com.schriftgestaltung.Glyphs.category = Letter;
com.schriftgestaltung.Glyphs.lastChange = "2017/01/05 17:36:54";
com.schriftgestaltung.Glyphs.subCategory = Uppercase;
};
width = 813;
},
{
anchors = (
{
name = "vowellengthencomb-adlam.case";
position = "{470, 557}";
}
);
layerId = "201D1995-4E5E-441E-AFED-969F1360B126";
paths = (
{
closed = 1;
nodes = (
"642 -10 OFFCURVE",
"745 57 OFFCURVE",
"745 253 CURVE SMOOTH",
"745 714 LINE",
"594 714 LINE",
"594 282 LINE SMOOTH",
"594 160 OFFCURVE",
"552 115 OFFCURVE",
"423 115 CURVE SMOOTH",
"294 115 OFFCURVE",
"241 160 OFFCURVE",
"241 282 CURVE SMOOTH",
"241 714 LINE",
"90 714 LINE",
"90 253 LINE SMOOTH",
"90 57 OFFCURVE",
"193 -10 OFFCURVE",
"417 -10 CURVE SMOOTH"
);
}
);
userData = {
com.schriftgestaltung.Glyphs.category = Letter;
com.schriftgestaltung.Glyphs.lastChange = "2017/01/05 17:36:54";
com.schriftgestaltung.Glyphs.subCategory = Uppercase;
};
width = 835;
}
);
unicode = 1E90B;
},
{
glyphname = "O-adlam";
lastChange = "2019-11-18 19:51:15 +0000";
layers = (
{
anchors = (
{
name = bottom;
position = "{359, 0}";
},
{
name = top;
position = "{374, 663}";
},
{
name = "vowellengthencomb-adlam.case";
position = "{409, 557}";
}
);
layerId = master01;
paths = (
{
closed = 1;
nodes = (
"656 0 LINE",
"656 79 LINE",
"437 79 LINE SMOOTH",
"344 79 OFFCURVE",
"170 114 OFFCURVE",
"170 360 CURVE SMOOTH",
"170 550 OFFCURVE",
"263 645 OFFCURVE",
"382 645 CURVE SMOOTH",
"499 645 OFFCURVE",
"546 559 OFFCURVE",
"571 510 CURVE",
"656 558 LINE",
"626 618 OFFCURVE",
"570 724 OFFCURVE",
"385 724 CURVE SMOOTH",
"216 724 OFFCURVE",
"75 617 OFFCURVE",
"75 354 CURVE SMOOTH",
"75 56 OFFCURVE",
"271 0 OFFCURVE",
"437 0 CURVE SMOOTH"
);
}
);
userData = {
com.schriftgestaltung.Glyphs.category = Letter;
com.schriftgestaltung.Glyphs.lastChange = "2017/01/05 17:36:54";
com.schriftgestaltung.Glyphs.subCategory = Uppercase;
};
width = 726;
},
{
anchors = (
{
name = bottom;
position = "{384, 0}";
},
{
name = top;
position = "{399, 663}";
},
{
name = "vowellengthencomb-adlam.case";
position = "{434, 587}";
}
);
layerId = "201D1995-4E5E-441E-AFED-969F1360B126";
paths = (
{
closed = 1;
nodes = (
"691 0 LINE",
"691 125 LINE",
"443 125 LINE SMOOTH",
"341 125 OFFCURVE",
"226 159 OFFCURVE",
"226 362 CURVE SMOOTH",
"226 532 OFFCURVE",
"298 599 OFFCURVE",
"394 599 CURVE SMOOTH",
"499 599 OFFCURVE",
"541 511 OFFCURVE",
"560 471 CURVE",
"696 549 LINE",
"675 594 OFFCURVE",
"616 724 OFFCURVE",
"396 724 CURVE SMOOTH",
"195 724 OFFCURVE",
"70 608 OFFCURVE",
"70 348 CURVE SMOOTH",
"70 65 OFFCURVE",
"237 0 OFFCURVE",
"443 0 CURVE SMOOTH"
);
}
);
userData = {
com.schriftgestaltung.Glyphs.category = Letter;
com.schriftgestaltung.Glyphs.lastChange = "2017/01/05 17:36:54";
com.schriftgestaltung.Glyphs.subCategory = Uppercase;
};
width = 766;
}
);
unicode = 1E90C;
},
{
glyphname = "Dha-adlam";
lastChange = "2019-10-30 17:52:34 +0000";
layers = (
{
anchors = (
{
name = top;
position = "{352, 663}";
}
);
layerId = master01;
paths = (
{
closed = 1;
nodes = (
"452 -15 OFFCURVE",
"501 36 OFFCURVE",
"519 62 CURVE",
"524 61 LINE",
"524 0 LINE",
"614 0 LINE",
"614 597 LINE SMOOTH",
"614 683 OFFCURVE",
"596 714 OFFCURVE",
"502 714 CURVE SMOOTH",
"304 714 LINE",
"304 635 LINE",
"475 635 LINE SMOOTH",
"515 635 OFFCURVE",
"524 619 OFFCURVE",
"524 576 CURVE SMOOTH",
"524 441 LINE",
"520 439 LINE",
"492 476 OFFCURVE",
"443 501 OFFCURVE",
"358 501 CURVE SMOOTH",
"269 501 OFFCURVE",
"209 468 OFFCURVE",
"184 439 CURVE",
"180 440 LINE",
"180 714 LINE",
"90 714 LINE",
"90 255 LINE SMOOTH",
"90 66 OFFCURVE",
"180 -15 OFFCURVE",
"336 -15 CURVE SMOOTH"
);
},
{
closed = 1;
nodes = (
"235 64 OFFCURVE",
"180 133 OFFCURVE",
"180 259 CURVE SMOOTH",
"180 338 LINE",
"200 372 OFFCURVE",
"253 422 OFFCURVE",
"357 422 CURVE SMOOTH",
"454 422 OFFCURVE",
"510 372 OFFCURVE",
"524 300 CURVE",
"524 179 LINE",
"506 131 OFFCURVE",
"467 64 OFFCURVE",
"347 64 CURVE SMOOTH"
);
}
);
userData = {
com.schriftgestaltung.Glyphs.category = Letter;
com.schriftgestaltung.Glyphs.lastChange = "2017/01/05 17:36:54";
com.schriftgestaltung.Glyphs.subCategory = Uppercase;
};
width = 724;
},
{
anchors = (
{
name = top;
position = "{382, 663}";
}
);
layerId = "201D1995-4E5E-441E-AFED-969F1360B126";
paths = (
{
closed = 1;
nodes = (
"451 -15 OFFCURVE",
"500 36 OFFCURVE",
"518 62 CURVE",
"523 61 LINE",
"523 0 LINE",
"674 0 LINE",
"674 605 LINE SMOOTH",
"674 683 OFFCURVE",
"656 714 OFFCURVE",
"572 714 CURVE SMOOTH",
"334 714 LINE",
"334 589 LINE",
"474 589 LINE SMOOTH",
"514 589 OFFCURVE",
"523 573 OFFCURVE",
"523 530 CURVE SMOOTH",
"523 431 LINE",
"518 429 LINE",
"505 450 OFFCURVE",
"468 491 OFFCURVE",
"382 491 CURVE SMOOTH",
"299 491 OFFCURVE",
"264 457 OFFCURVE",
"246 436 CURVE",
"241 437 LINE",
"241 714 LINE",
"90 714 LINE",
"90 255 LINE SMOOTH",
"90 66 OFFCURVE",
"180 -15 OFFCURVE",
"323 -15 CURVE SMOOTH"
);
},
{
closed = 1;
nodes = (
"296 110 OFFCURVE",
"241 158 OFFCURVE",
"241 255 CURVE SMOOTH",
"241 288 LINE",
"261 322 OFFCURVE",
"302 366 OFFCURVE",
"387 366 CURVE SMOOTH",
"478 366 OFFCURVE",
"515 321 OFFCURVE",
"523 272 CURVE",
"523 190 LINE",
"509 161 OFFCURVE",
"466 110 OFFCURVE",
"382 110 CURVE SMOOTH"
);
}
);
userData = {
com.schriftgestaltung.Glyphs.category = Letter;
com.schriftgestaltung.Glyphs.lastChange = "2017/01/05 17:36:54";
com.schriftgestaltung.Glyphs.subCategory = Uppercase;
};
width = 764;
}
);
unicode = 1E90D;
},
{
glyphname = "Yhe-adlam";
lastChange = "2019-11-19 20:41:57 +0000";
layers = (
{
anchors = (
{
name = top;
position = "{345, 663}";
}
);
layerId = master01;
paths = (
{
closed = 1;
nodes = (
"593 0 LINE",
"593 79 LINE",
"342 79 LINE SMOOTH",
"242 79 OFFCURVE",
"165 152 OFFCURVE",
"165 268 CURVE SMOOTH",
"165 379 OFFCURVE",
"210 449 OFFCURVE",
"342 449 CURVE SMOOTH",
"583 449 LINE",
"583 528 LINE",
"520 572 OFFCURVE",
"377 696 OFFCURVE",
"343 735 CURVE",
"278 677 LINE",
"308 645 OFFCURVE",
"412 559 OFFCURVE",
"452 533 CURVE",
"450 528 LINE",
"341 528 LINE SMOOTH",
"154 528 OFFCURVE",
"70 415 OFFCURVE",
"70 266 CURVE SMOOTH",
"70 94 OFFCURVE",
"169 0 OFFCURVE",
"341 0 CURVE SMOOTH"
);
}
);
userData = {
com.schriftgestaltung.Glyphs.category = Letter;
com.schriftgestaltung.Glyphs.lastChange = "2017/01/05 17:36:54";
com.schriftgestaltung.Glyphs.subCategory = Uppercase;
};
width = 648;
},
{
anchors = (
{
name = top;
position = "{364, 666}";
}
);
layerId = "201D1995-4E5E-441E-AFED-969F1360B126";
paths = (
{
closed = 1;
nodes = (
"628 0 LINE",
"628 125 LINE",
"395 125 LINE SMOOTH",
"280 125 OFFCURVE",
"231 173 OFFCURVE",
"231 268 CURVE SMOOTH",
"231 358 OFFCURVE",
"272 413 OFFCURVE",
"375 413 CURVE SMOOTH",
"628 413 LINE",
"628 538 LINE",
"558 580 OFFCURVE",
"391 703 OFFCURVE",
"351 745 CURVE",
"268 651 LINE",
"304 614 OFFCURVE",
"379 562 OFFCURVE",
"415 543 CURVE",
"413 538 LINE",
"375 538 LINE SMOOTH",
"161 538 OFFCURVE",
"75 437 OFFCURVE",
"75 268 CURVE SMOOTH",
"75 84 OFFCURVE",
"166 0 OFFCURVE",
"395 0 CURVE SMOOTH"
);
}
);
userData = {
com.schriftgestaltung.Glyphs.category = Letter;
com.schriftgestaltung.Glyphs.lastChange = "2017/01/05 17:36:54";
com.schriftgestaltung.Glyphs.subCategory = Uppercase;
};
width = 683;
}
);
unicode = 1E90E;
},
{
glyphname = "Waw-adlam";
lastChange = "2019-10-30 17:52:34 +0000";
layers = (
{
anchors = (
{
name = top;
position = "{351, 663}";
}
);
layerId = master01;
paths = (
{
closed = 1;
nodes = (
"200 0 LINE",
"200 298 LINE",
"282 298 LINE SMOOTH",
"339 298 OFFCURVE",
"356 284 OFFCURVE",
"367 273 CURVE",
"413 338 LINE",
"402 351 OFFCURVE",
"379 377 OFFCURVE",
"306 377 CURVE SMOOTH",
"200 377 LINE",
"200 577 LINE SMOOTH",
"200 619 OFFCURVE",
"209 635 OFFCURVE",
"249 635 CURVE SMOOTH",
"489 635 LINE",
"489 0 LINE",
"579 0 LINE",
"579 714 LINE",
"228 714 LINE SMOOTH",
"128 714 OFFCURVE",
"110 682 OFFCURVE",
"110 596 CURVE SMOOTH",
"110 0 LINE"
);
}
);
userData = {
com.schriftgestaltung.Glyphs.category = Letter;
com.schriftgestaltung.Glyphs.lastChange = "2017/01/05 17:36:54";
com.schriftgestaltung.Glyphs.subCategory = Uppercase;
};
width = 689;
},
{
anchors = (
{
name = top;
position = "{366, 663}";
}
);
layerId = "201D1995-4E5E-441E-AFED-969F1360B126";
paths = (
{
closed = 1;
nodes = (
"241 0 LINE",
"241 275 LINE",
"270 275 LINE SMOOTH",
"327 275 OFFCURVE",
"344 261 OFFCURVE",
"355 250 CURVE",
"422 361 LINE",
"411 374 OFFCURVE",
"388 400 OFFCURVE",
"315 400 CURVE SMOOTH",
"241 400 LINE",
"241 531 LINE SMOOTH",
"241 573 OFFCURVE",
"250 589 OFFCURVE",
"290 589 CURVE SMOOTH",
"468 589 LINE",
"468 0 LINE",
"619 0 LINE",
"619 714 LINE",
"208 714 LINE SMOOTH",
"108 714 OFFCURVE",
"90 682 OFFCURVE",
"90 596 CURVE SMOOTH",
"90 0 LINE"
);
}
);
userData = {
com.schriftgestaltung.Glyphs.category = Letter;
com.schriftgestaltung.Glyphs.lastChange = "2017/01/05 17:36:54";
com.schriftgestaltung.Glyphs.subCategory = Uppercase;
};
width = 709;
}
);
unicode = 1E90F;
},
{
glyphname = "Nun-adlam";
lastChange = "2019-10-30 17:52:34 +0000";
layers = (
{
anchors = (
{
name = top;
position = "{339, 663}";
}
);
layerId = master01;
paths = (
{
closed = 1;
nodes = (
"385 0 LINE",
"385 79 LINE",
"286 79 LINE SMOOTH",
"183 79 OFFCURVE",
"145 98 OFFCURVE",
"145 186 CURVE SMOOTH",
"145 285 OFFCURVE",
"208 315 OFFCURVE",
"343 354 CURVE SMOOTH",
"485 396 OFFCURVE",
"567 427 OFFCURVE",
"567 554 CURVE SMOOTH",
"567 673 OFFCURVE",
"497 714 OFFCURVE",
"369 714 CURVE SMOOTH",
"294 714 LINE SMOOTH",
"163 714 OFFCURVE",
"110 645 OFFCURVE",
"94 617 CURVE",
"159 570 LINE",
"174 597 OFFCURVE",
"203 635 OFFCURVE",
"294 635 CURVE SMOOTH",
"367 635 LINE SMOOTH",
"443 635 OFFCURVE",
"477 609 OFFCURVE",
"477 554 CURVE SMOOTH",
"477 480 OFFCURVE",
"422 460 OFFCURVE",
"286 419 CURVE SMOOTH",
"140 374 OFFCURVE",
"55 324 OFFCURVE",
"55 177 CURVE SMOOTH",
"55 41 OFFCURVE",
"129 0 OFFCURVE",
"274 0 CURVE SMOOTH"
);
},
{
closed = 1;
nodes = (
"576 38 LINE",
"562 52 OFFCURVE",
"548 72 OFFCURVE",
"548 129 CURVE SMOOTH",
"548 333 LINE",
"458 333 LINE",
"458 111 LINE SMOOTH",
"458 35 OFFCURVE",
"489 -4 OFFCURVE",
"505 -15 CURVE"
);
}
);
userData = {
com.schriftgestaltung.Glyphs.category = Letter;
com.schriftgestaltung.Glyphs.lastChange = "2017/01/05 17:36:54";
com.schriftgestaltung.Glyphs.subCategory = Uppercase;
};
width = 671;
},
{
anchors = (
{
name = top;
position = "{369, 663}";
}
);
layerId = "201D1995-4E5E-441E-AFED-969F1360B126";
paths = (
{
closed = 1;
nodes = (
"384 0 LINE",
"384 125 LINE",
"336 125 LINE SMOOTH",
"264 125 OFFCURVE",
"211 144 OFFCURVE",
"211 208 CURVE SMOOTH",
"211 268 OFFCURVE",
"269 290 OFFCURVE",
"400 332 CURVE SMOOTH",
"542 377 OFFCURVE",
"627 405 OFFCURVE",
"627 538 CURVE SMOOTH",
"627 662 OFFCURVE",
"557 714 OFFCURVE",
"403 714 CURVE SMOOTH",
"340 714 LINE SMOOTH",
"163 714 OFFCURVE",
"110 645 OFFCURVE",
"94 617 CURVE",
"211 531 LINE",
"226 558 OFFCURVE",
"264 589 OFFCURVE",
"340 589 CURVE SMOOTH",
"401 589 LINE SMOOTH",
"444 589 OFFCURVE",
"471 578 OFFCURVE",
"471 538 CURVE SMOOTH",
"471 495 OFFCURVE",
"447 484 OFFCURVE",
"296 436 CURVE SMOOTH",
"144 388 OFFCURVE",
"55 347 OFFCURVE",
"55 201 CURVE SMOOTH",
"55 41 OFFCURVE",
"157 0 OFFCURVE",
"304 0 CURVE SMOOTH"
);
},
{
closed = 1;
nodes = (
"632 58 LINE",
"618 72 OFFCURVE",
"604 92 OFFCURVE",
"604 149 CURVE SMOOTH",
"604 308 LINE",
"453 308 LINE",
"453 111 LINE SMOOTH",
"453 35 OFFCURVE",
"484 -4 OFFCURVE",
"500 -15 CURVE"
);
}
);
userData = {
com.schriftgestaltung.Glyphs.category = Letter;
com.schriftgestaltung.Glyphs.lastChange = "2017/01/05 17:36:54";
com.schriftgestaltung.Glyphs.subCategory = Uppercase;
};
width = 712;
}
);
unicode = 1E910;
},
{
glyphname = "Kaf-adlam";
lastChange = "2019-11-18 21:27:39 +0000";
layers = (
{
anchors = (
{
name = top;
position = "{352, 663}";
}
);
layerId = master01;
paths = (
{
closed = 1;
nodes = (
"271 0 LINE SMOOTH",
"365 0 OFFCURVE",
"383 32 OFFCURVE",
"383 118 CURVE SMOOTH",
"383 320 LINE",
"573 320 LINE",
"573 0 LINE",
"663 0 LINE",
"663 597 LINE SMOOTH",
"663 683 OFFCURVE",
"645 714 OFFCURVE",
"551 714 CURVE SMOOTH",
"40 714 LINE",
"40 635 LINE",
"523 635 LINE SMOOTH",
"564 635 OFFCURVE",
"573 619 OFFCURVE",
"573 576 CURVE SMOOTH",
"573 399 LINE",
"383 399 LINE",
"383 558 LINE",
"293 558 LINE",
"293 399 LINE",
"142 399 LINE",
"142 320 LINE",
"293 320 LINE",
"293 137 LINE SMOOTH",
"293 95 OFFCURVE",
"284 79 OFFCURVE",
"243 79 CURVE SMOOTH",
"40 79 LINE",
"40 0 LINE"
);
}
);
userData = {
com.schriftgestaltung.Glyphs.category = Letter;
com.schriftgestaltung.Glyphs.lastChange = "2017/01/05 17:36:54";
com.schriftgestaltung.Glyphs.subCategory = Uppercase;
};
width = 773;
},
{
anchors = (
{
name = top;
position = "{363, 663}";
}
);
layerId = "201D1995-4E5E-441E-AFED-969F1360B126";
paths = (
{
closed = 1;
nodes = (
"312 0 LINE SMOOTH",
"406 0 OFFCURVE",
"424 32 OFFCURVE",
"424 118 CURVE SMOOTH",
"424 286 LINE",
"563 286 LINE",
"563 0 LINE",
"714 0 LINE",
"714 597 LINE SMOOTH",
"714 683 OFFCURVE",
"696 714 OFFCURVE",
"602 714 CURVE SMOOTH",
"30 714 LINE",
"30 589 LINE",
"513 589 LINE SMOOTH",
"554 589 OFFCURVE",
"563 573 OFFCURVE",
"563 530 CURVE SMOOTH",
"563 411 LINE",
"424 411 LINE",
"424 522 LINE",
"273 522 LINE",
"273 411 LINE",
"122 411 LINE",
"122 286 LINE",
"273 286 LINE",
"273 183 LINE SMOOTH",
"273 141 OFFCURVE",
"264 125 OFFCURVE",
"223 125 CURVE SMOOTH",
"30 125 LINE",
"30 0 LINE"
);
}
);
userData = {
com.schriftgestaltung.Glyphs.category = Letter;
com.schriftgestaltung.Glyphs.lastChange = "2017/01/05 17:36:54";
com.schriftgestaltung.Glyphs.subCategory = Uppercase;
};
width = 804;
}
);
unicode = 1E911;
},
{
glyphname = "Ya-adlam";
lastChange = "2019-11-20 21:34:47 +0000";
layers = (
{
anchors = (
{
name = top;
position = "{271, 663}";
}
);
layerId = master01;
paths = (
{
closed = 1;
nodes = (
"275 0 LINE SMOOTH",
"425 0 OFFCURVE",
"520 42 OFFCURVE",
"520 207 CURVE SMOOTH",
"520 350 OFFCURVE",
"432 387 OFFCURVE",
"401 399 CURVE",
"401 404 LINE",
"431 416 OFFCURVE",
"503 454 OFFCURVE",
"503 554 CURVE SMOOTH",
"503 668 OFFCURVE",
"425 714 OFFCURVE",
"302 714 CURVE SMOOTH",
"241 714 LINE SMOOTH",
"112 714 OFFCURVE",
"64 649 OFFCURVE",
"50 622 CURVE",
"110 575 LINE",
"122 597 OFFCURVE",
"154 635 OFFCURVE",
"237 635 CURVE SMOOTH",
"302 635 LINE SMOOTH",
"363 635 OFFCURVE",
"410 613 OFFCURVE",
"410 554 CURVE SMOOTH",
"410 488 OFFCURVE",
"341 459 OFFCURVE",
"211 422 CURVE SMOOTH",
"119 396 LINE",
"140 322 LINE",
"186 337 OFFCURVE",
"267 360 OFFCURVE",
"280 360 CURVE SMOOTH",
"363 360 OFFCURVE",
"427 309 OFFCURVE",
"427 204 CURVE SMOOTH",
"427 108 OFFCURVE",
"372 79 OFFCURVE",
"275 79 CURVE SMOOTH",
"67 79 LINE",
"67 0 LINE"
);
}
);
userData = {
com.schriftgestaltung.Glyphs.category = Letter;
com.schriftgestaltung.Glyphs.lastChange = "2017/01/05 17:36:54";
com.schriftgestaltung.Glyphs.subCategory = Uppercase;
};
width = 585;
},
{
anchors = (
{
name = top;
position = "{261, 663}";
}
);
layerId = "201D1995-4E5E-441E-AFED-969F1360B126";
paths = (
{
closed = 1;
nodes = (
"253 0 LINE SMOOTH",
"428 0 OFFCURVE",
"522 42 OFFCURVE",
"522 199 CURVE SMOOTH",
"522 340 OFFCURVE",
"441 378 OFFCURVE",
"400 388 CURVE",
"400 394 LINE",
"441 412 OFFCURVE",
"505 456 OFFCURVE",
"505 553 CURVE SMOOTH",
"505 671 OFFCURVE",
"427 714 OFFCURVE",
"300 714 CURVE SMOOTH",
"222 714 LINE SMOOTH",
"82 714 OFFCURVE",
"34 649 OFFCURVE",
"20 622 CURVE",
"111 546 LINE",
"123 568 OFFCURVE",
"143 589 OFFCURVE",
"217 589 CURVE SMOOTH",
"261 589 LINE SMOOTH",
"328 589 OFFCURVE",
"349 569 OFFCURVE",
"349 533 CURVE SMOOTH",
"349 492 OFFCURVE",
"308 478 OFFCURVE",
"185 442 CURVE SMOOTH",
"89 414 LINE",
"123 298 LINE",
"162 311 OFFCURVE",
"249 337 OFFCURVE",
"267 337 CURVE SMOOTH",
"328 337 OFFCURVE",
"366 271 OFFCURVE",
"366 207 CURVE SMOOTH",
"366 155 OFFCURVE",
"343 125 OFFCURVE",
"252 125 CURVE SMOOTH",
"37 125 LINE",
"37 0 LINE"
);
}
);
userData = {
com.schriftgestaltung.Glyphs.category = Letter;
com.schriftgestaltung.Glyphs.lastChange = "2017/01/05 17:36:54";
com.schriftgestaltung.Glyphs.subCategory = Uppercase;
};
width = 577;
}
);
unicode = 1E912;
},
{
glyphname = "U-adlam";
lastChange = "2019-11-12 21:48:12 +0000";
layers = (
{
anchors = (
{
name = "vowellengthencomb-adlam.case";
position = "{464, 548}";
}
);
layerId = master01;
paths = (
{
closed = 1;
nodes = (
"669 -10 OFFCURVE",
"742 84 OFFCURVE",
"742 218 CURVE SMOOTH",
"742 640 LINE SMOOTH",
"742 700 OFFCURVE",
"727 719 OFFCURVE",
"671 719 CURVE SMOOTH",
"628 719 OFFCURVE",
"572 721 OFFCURVE",
"541 728 CURVE",
"530 649 LINE",
"549 643 OFFCURVE",
"591 641 OFFCURVE",
"617 640 CURVE SMOOTH",
"645 639 OFFCURVE",
"652 629 OFFCURVE",
"652 602 CURVE SMOOTH",
"652 555 LINE SMOOTH",
"652 517 OFFCURVE",
"645 513 OFFCURVE",
"577 472 CURVE SMOOTH",
"524 440 OFFCURVE",
"510 431 OFFCURVE",
"496 421 CURVE",
"491 422 LINE",
"492 433 OFFCURVE",
"492 444 OFFCURVE",
"492 461 CURVE SMOOTH",
"492 664 OFFCURVE",
"401 724 OFFCURVE",
"285 724 CURVE SMOOTH",
"172 724 OFFCURVE",
"119 664 OFFCURVE",
"105 631 CURVE",
"105 218 LINE SMOOTH",
"105 84 OFFCURVE",
"174 -10 OFFCURVE",
"424 -10 CURVE SMOOTH"
);
},
{
closed = 1;
nodes = (
"249 69 OFFCURVE",
"195 125 OFFCURVE",
"195 236 CURVE SMOOTH",
"195 601 LINE",
"208 624 OFFCURVE",
"237 645 OFFCURVE",
"285 645 CURVE SMOOTH",
"339 645 OFFCURVE",
"402 604 OFFCURVE",
"402 455 CURVE SMOOTH",
"402 273 OFFCURVE",
"302 202 OFFCURVE",
"279 186 CURVE",
"339 122 LINE",
"369 145 OFFCURVE",
"423 197 OFFCURVE",
"458 275 CURVE SMOOTH",
"483 331 OFFCURVE",
"489 338 OFFCURVE",
"552 376 CURVE SMOOTH",
"617 414 OFFCURVE",
"632 425 OFFCURVE",
"647 436 CURVE",
"652 435 LINE",
"652 236 LINE SMOOTH",
"652 125 OFFCURVE",
"597 69 OFFCURVE",
"423 69 CURVE SMOOTH"
);
}
);
userData = {
com.schriftgestaltung.Glyphs.category = Letter;
com.schriftgestaltung.Glyphs.lastChange = "2017/01/05 17:36:54";
com.schriftgestaltung.Glyphs.subCategory = Uppercase;
};
width = 847;
},
{
anchors = (
{
name = "vowellengthencomb-adlam.case";
position = "{479, 578}";
}
);
background = {
paths = (
{
closed = 1;
nodes = (
"714 -10 OFFCURVE",
"788 84 OFFCURVE",
"788 218 CURVE SMOOTH",
"788 610 LINE SMOOTH",
"788 700 OFFCURVE",
"743 719 OFFCURVE",
"680 719 CURVE SMOOTH",
"605 719 OFFCURVE",
"584 723 OFFCURVE",
"566 728 CURVE",
"555 603 LINE",
"565 599 OFFCURVE",
"584 595 OFFCURVE",
"608 594 CURVE SMOOTH",
"630 593 OFFCURVE",
"637 589 OFFCURVE",
"637 567 CURVE SMOOTH",
"637 546 LINE SMOOTH",
"637 510 OFFCURVE",
"621 502 OFFCURVE",
"583 476 CURVE SMOOTH",
"555 457 OFFCURVE",
"545 448 OFFCURVE",
"532 436 CURVE",
"527 437 LINE",
"528 445 OFFCURVE",
"529 458 OFFCURVE",
"529 473 CURVE SMOOTH",
"529 642 OFFCURVE",
"446 724 OFFCURVE",
"296 724 CURVE SMOOTH",
"157 724 OFFCURVE",
"104 658 OFFCURVE",
"90 625 CURVE",
"90 218 LINE SMOOTH",
"90 84 OFFCURVE",
"159 -10 OFFCURVE",
"439 -10 CURVE SMOOTH"
);
},
{
closed = 1;
nodes = (
"276 115 OFFCURVE",
"241 171 OFFCURVE",
"241 282 CURVE SMOOTH",
"241 578 LINE",
"249 588 OFFCURVE",
"265 599 OFFCURVE",
"292 599 CURVE SMOOTH",
"330 599 OFFCURVE",
"378 571 OFFCURVE",
"378 458 CURVE SMOOTH",
"378 345 OFFCURVE",
"333 276 OFFCURVE",
"302 243 CURVE",
"419 151 LINE",
"442 172 OFFCURVE",
"481 225 OFFCURVE",
"503 283 CURVE SMOOTH",
"525 342 OFFCURVE",
"530 351 OFFCURVE",
"571 379 CURVE SMOOTH",
"604 402 OFFCURVE",
"618 412 OFFCURVE",
"632 424 CURVE",
"637 423 LINE",
"637 282 LINE SMOOTH",
"637 171 OFFCURVE",
"613 115 OFFCURVE",
"439 115 CURVE SMOOTH"
);
}
);
};
layerId = "201D1995-4E5E-441E-AFED-969F1360B126";
paths = (
{
closed = 1;
nodes = (
"714 -10 OFFCURVE",
"788 84 OFFCURVE",
"788 218 CURVE SMOOTH",
"788 610 LINE SMOOTH",
"788 700 OFFCURVE",
"743 719 OFFCURVE",
"680 719 CURVE SMOOTH",
"605 719 OFFCURVE",
"584 723 OFFCURVE",
"566 728 CURVE",
"555 603 LINE",
"565 599 OFFCURVE",
"584 595 OFFCURVE",
"608 594 CURVE SMOOTH",
"630 593 OFFCURVE",
"637 589 OFFCURVE",
"637 567 CURVE SMOOTH",
"637 546 LINE SMOOTH",
"637 510 OFFCURVE",
"621 502 OFFCURVE",
"583 476 CURVE SMOOTH",
"555 457 OFFCURVE",
"545 450 OFFCURVE",
"532 438 CURVE",
"527 439 LINE",
"528 447 OFFCURVE",
"529 458 OFFCURVE",
"529 473 CURVE SMOOTH",
"529 642 OFFCURVE",
"446 724 OFFCURVE",
"296 724 CURVE SMOOTH",
"157 724 OFFCURVE",
"104 658 OFFCURVE",
"90 625 CURVE",
"90 218 LINE SMOOTH",
"90 84 OFFCURVE",
"159 -10 OFFCURVE",
"439 -10 CURVE SMOOTH"
);
},
{
closed = 1;
nodes = (
"276 115 OFFCURVE",
"241 171 OFFCURVE",
"241 282 CURVE SMOOTH",
"241 578 LINE",
"249 588 OFFCURVE",
"265 599 OFFCURVE",
"292 599 CURVE SMOOTH",
"330 599 OFFCURVE",
"378 571 OFFCURVE",
"378 458 CURVE SMOOTH",
"378 345 OFFCURVE",
"333 276 OFFCURVE",
"302 243 CURVE",
"419 151 LINE",
"442 172 OFFCURVE",
"483 229 OFFCURVE",
"501 278 CURVE SMOOTH",
"517 321 OFFCURVE",
"530 331 OFFCURVE",
"571 359 CURVE SMOOTH",
"604 382 OFFCURVE",
"618 392 OFFCURVE",
"632 404 CURVE",
"637 403 LINE",
"637 282 LINE SMOOTH",
"637 171 OFFCURVE",
"613 115 OFFCURVE",
"439 115 CURVE SMOOTH"
);
}
);
userData = {
com.schriftgestaltung.Glyphs.category = Letter;
com.schriftgestaltung.Glyphs.lastChange = "2017/01/05 17:36:54";
com.schriftgestaltung.Glyphs.subCategory = Uppercase;
};
width = 878;
}
);
unicode = 1E913;
},
{
glyphname = "Jiim-adlam";
lastChange = "2019-10-30 17:52:34 +0000";
layers = (
{
anchors = (
{
name = bottom;
position = "{448, 0}";
},
{
name = gemconsonanttop;
position = "{464, 665}";
},
{
name = top;
position = "{473, 665}";
}
);
layerId = master01;
paths = (
{
closed = 1;
nodes = (
"800 -12 OFFCURVE",
"822 42 OFFCURVE",
"822 117 CURVE SMOOTH",
"822 476 LINE SMOOTH",
"822 614 OFFCURVE",
"765 687 OFFCURVE",
"641 687 CURVE SMOOTH",
"533 687 OFFCURVE",
"497 633 OFFCURVE",
"486 613 CURVE",
"481 613 LINE",
"472 645 OFFCURVE",
"439 724 OFFCURVE",
"305 724 CURVE SMOOTH",
"159 724 OFFCURVE",
"105 630 OFFCURVE",
"105 511 CURVE SMOOTH",
"105 270 LINE",
"195 270 LINE",
"195 499 LINE SMOOTH",
"195 604 OFFCURVE",
"238 645 OFFCURVE",
"305 645 CURVE SMOOTH",
"369 645 OFFCURVE",
"414 594 OFFCURVE",
"414 486 CURVE SMOOTH",
"414 147 LINE SMOOTH",
"414 100 OFFCURVE",
"393 79 OFFCURVE",
"328 79 CURVE SMOOTH",
"105 79 LINE",
"105 0 LINE",
"328 0 LINE SMOOTH",
"468 0 OFFCURVE",
"504 42 OFFCURVE",
"504 146 CURVE SMOOTH",
"504 452 LINE SMOOTH",
"504 558 OFFCURVE",
"550 608 OFFCURVE",
"628 608 CURVE SMOOTH",
"700 608 OFFCURVE",
"732 554 OFFCURVE",
"732 455 CURVE SMOOTH",
"732 117 LINE SMOOTH",
"732 71 OFFCURVE",
"719 22 OFFCURVE",
"686 -8 CURVE",
"758 -54 LINE"
);
}
);
userData = {
com.schriftgestaltung.Glyphs.category = Letter;
com.schriftgestaltung.Glyphs.lastChange = "2017/01/05 17:36:54";
com.schriftgestaltung.Glyphs.subCategory = Uppercase;
};
width = 927;
},
{
anchors = (
{
name = bottom;
position = "{448, 0}";
},
{
name = gemconsonanttop;
position = "{494, 665}";
},
{
name = top;
position = "{503, 665}";
}
);
layerId = "201D1995-4E5E-441E-AFED-969F1360B126";
paths = (
{
closed = 1;
nodes = (
"843 -6 OFFCURVE",
"852 51 OFFCURVE",
"852 138 CURVE SMOOTH",
"852 477 LINE SMOOTH",
"852 615 OFFCURVE",
"795 688 OFFCURVE",
"664 688 CURVE SMOOTH",
"572 688 OFFCURVE",
"526 649 OFFCURVE",
"517 637 CURVE",
"512 637 LINE",
"502 658 OFFCURVE",
"450 724 OFFCURVE",
"315 724 CURVE SMOOTH",
"129 724 OFFCURVE",
"75 630 OFFCURVE",
"75 494 CURVE SMOOTH",
"75 270 LINE",
"226 270 LINE",
"226 484 LINE SMOOTH",
"226 578 OFFCURVE",
"258 599 OFFCURVE",
"305 599 CURVE SMOOTH",
"352 599 OFFCURVE",
"383 578 OFFCURVE",
"383 484 CURVE SMOOTH",
"383 193 LINE SMOOTH",
"383 146 OFFCURVE",
"362 125 OFFCURVE",
"297 125 CURVE SMOOTH",
"75 125 LINE",
"75 0 LINE",
"358 0 LINE SMOOTH",
"498 0 OFFCURVE",
"534 42 OFFCURVE",
"534 146 CURVE SMOOTH",
"534 445 LINE SMOOTH",
"534 532 OFFCURVE",
"565 563 OFFCURVE",
"618 563 CURVE SMOOTH",
"671 563 OFFCURVE",
"701 532 OFFCURVE",
"701 445 CURVE SMOOTH",
"701 138 LINE SMOOTH",
"701 80 OFFCURVE",
"683 33 OFFCURVE",
"663 15 CURVE",
"791 -52 LINE"
);
}
);
userData = {
com.schriftgestaltung.Glyphs.category = Letter;
com.schriftgestaltung.Glyphs.lastChange = "2017/01/05 17:36:54";
com.schriftgestaltung.Glyphs.subCategory = Uppercase;
};
width = 942;
}
);
unicode = 1E914;
},
{
glyphname = "Chi-adlam";
lastChange = "2019-10-30 17:52:34 +0000";
layers = (
{
anchors = (
{
name = top;
position = "{362, 663}";
}
);
layerId = master01;
paths = (
{
closed = 1;
nodes = (
"459 0 LINE",
"459 79 LINE",
"327 79 LINE SMOOTH",
"243 79 OFFCURVE",
"174 105 OFFCURVE",
"174 209 CURVE SMOOTH",
"174 336 OFFCURVE",
"250 397 OFFCURVE",
"362 397 CURVE SMOOTH",
"465 397 OFFCURVE",
"512 352 OFFCURVE",
"530 326 CURVE",
"530 0 LINE",
"620 0 LINE",
"620 597 LINE SMOOTH",
"620 683 OFFCURVE",
"602 714 OFFCURVE",
"508 714 CURVE SMOOTH",
"316 714 LINE",
"316 635 LINE",
"481 635 LINE SMOOTH",
"521 635 OFFCURVE",
"530 619 OFFCURVE",
"530 579 CURVE SMOOTH",
"530 429 LINE",
"526 427 LINE",
"508 447 OFFCURVE",
"467 466 OFFCURVE",
"359 479 CURVE SMOOTH",
"244 493 OFFCURVE",
"188 514 OFFCURVE",
"188 635 CURVE SMOOTH",
"188 743 LINE",
"98 743 LINE",
"98 636 LINE SMOOTH",
"98 489 OFFCURVE",
"155 448 OFFCURVE",
"239 437 CURVE",
"239 432 LINE",
"158 413 OFFCURVE",
"80 350 OFFCURVE",
"80 209 CURVE SMOOTH",
"80 54 OFFCURVE",
"158 0 OFFCURVE",
"326 0 CURVE SMOOTH"
);
}
);
userData = {
com.schriftgestaltung.Glyphs.category = Letter;
com.schriftgestaltung.Glyphs.lastChange = "2017/01/05 17:36:54";
com.schriftgestaltung.Glyphs.subCategory = Uppercase;
};
width = 730;
},
{
anchors = (
{
name = top;
position = "{392, 663}";
}
);
layerId = "201D1995-4E5E-441E-AFED-969F1360B126";
paths = (
{
closed = 1;
nodes = (
"458 0 LINE",
"458 125 LINE",
"369 125 LINE SMOOTH",
"273 125 OFFCURVE",
"235 156 OFFCURVE",
"235 231 CURVE SMOOTH",
"235 300 OFFCURVE",
"280 354 OFFCURVE",
"386 354 CURVE SMOOTH",
"473 354 OFFCURVE",
"511 314 OFFCURVE",
"529 291 CURVE",
"529 0 LINE",
"680 0 LINE",
"680 597 LINE SMOOTH",
"680 683 OFFCURVE",
"662 714 OFFCURVE",
"568 714 CURVE SMOOTH",
"346 714 LINE",
"346 589 LINE",
"480 589 LINE SMOOTH",
"520 589 OFFCURVE",
"529 573 OFFCURVE",
"529 533 CURVE SMOOTH",
"529 438 LINE",
"525 436 LINE",
"504 454 OFFCURVE",
"481 471 OFFCURVE",
"377 483 CURVE SMOOTH",
"274 495 OFFCURVE",
"249 517 OFFCURVE",
"249 638 CURVE SMOOTH",
"249 743 LINE",
"98 743 LINE",
"98 616 LINE SMOOTH",
"98 469 OFFCURVE",
"155 428 OFFCURVE",
"239 417 CURVE",
"239 411 LINE",
"158 392 OFFCURVE",
"80 330 OFFCURVE",
"80 213 CURVE SMOOTH",
"80 52 OFFCURVE",
"170 0 OFFCURVE",
"369 0 CURVE SMOOTH"
);
}
);
userData = {
com.schriftgestaltung.Glyphs.category = Letter;
com.schriftgestaltung.Glyphs.lastChange = "2017/01/05 17:36:54";
com.schriftgestaltung.Glyphs.subCategory = Uppercase;
};
width = 770;
}
);
unicode = 1E915;
},
{
glyphname = "Ha-adlam";
lastChange = "2019-11-18 21:23:18 +0000";
layers = (
{
anchors = (
{
name = gemconsonanttop;
position = "{327, 663}";
},
{
name = top;
position = "{331, 663}";
}
);
layerId = master01;
paths = (
{
closed = 1;
nodes = (
"293 0 LINE SMOOTH",
"490 0 OFFCURVE",
"573 72 OFFCURVE",
"573 249 CURVE SMOOTH",
"573 440 OFFCURVE",
"471 508 OFFCURVE",
"288 508 CURVE SMOOTH",
"231 508 LINE SMOOTH",
"190 508 OFFCURVE",
"181 524 OFFCURVE",
"181 566 CURVE SMOOTH",
"181 714 LINE",
"91 714 LINE",
"91 547 LINE SMOOTH",
"91 461 OFFCURVE",
"109 429 OFFCURVE",
"204 429 CURVE SMOOTH",
"283 429 LINE SMOOTH",
"394 429 OFFCURVE",
"480 391 OFFCURVE",
"480 244 CURVE SMOOTH",
"480 126 OFFCURVE",
"425 79 OFFCURVE",
"293 79 CURVE SMOOTH",
"90 79 LINE",
"90 0 LINE"
);
}
);
userData = {
com.schriftgestaltung.Glyphs.category = Letter;
com.schriftgestaltung.Glyphs.lastChange = "2017/01/05 17:36:54";
com.schriftgestaltung.Glyphs.subCategory = Uppercase;
};
width = 643;
},
{
anchors = (
{
name = gemconsonanttop;
position = "{342, 663}";
},
{
name = top;
position = "{346, 663}";
}
);
layerId = "201D1995-4E5E-441E-AFED-969F1360B126";
paths = (
{
closed = 1;
nodes = (
"303 0 LINE SMOOTH",
"518 0 OFFCURVE",
"620 72 OFFCURVE",
"620 265 CURVE SMOOTH",
"620 463 OFFCURVE",
"518 531 OFFCURVE",
"323 531 CURVE SMOOTH",
"277 531 LINE SMOOTH",
"236 531 OFFCURVE",
"227 547 OFFCURVE",
"227 589 CURVE SMOOTH",
"227 714 LINE",
"76 714 LINE",
"76 524 LINE SMOOTH",
"76 438 OFFCURVE",
"94 406 OFFCURVE",
"189 406 CURVE SMOOTH",
"277 406 LINE SMOOTH",
"388 406 OFFCURVE",
"464 368 OFFCURVE",
"464 260 CURVE SMOOTH",
"464 172 OFFCURVE",
"419 125 OFFCURVE",
"287 125 CURVE SMOOTH",
"75 125 LINE",
"75 0 LINE"
);
}
);
userData = {
com.schriftgestaltung.Glyphs.category = Letter;
com.schriftgestaltung.Glyphs.lastChange = "2017/01/05 17:36:54";
com.schriftgestaltung.Glyphs.subCategory = Uppercase;
};
width = 680;
}
);
unicode = 1E916;
},
{
glyphname = "Qaaf-adlam";
lastChange = "2019-11-19 20:45:42 +0000";
layers = (
{
anchors = (
{
name = top;
position = "{436, 666}";
}
);
layerId = master01;
paths = (
{
closed = 1;
nodes = (
"335 0 LINE SMOOTH",
"429 0 OFFCURVE",
"447 32 OFFCURVE",
"447 118 CURVE SMOOTH",
"447 275 LINE",
"490 275 OFFCURVE",
"554 284 OFFCURVE",
"589 294 CURVE",
"589 0 LINE",
"679 0 LINE",
"679 714 LINE",
"589 714 LINE",
"589 375 LINE",
"558 365 OFFCURVE",
"493 355 OFFCURVE",
"447 354 CURVE",
"447 552 LINE SMOOTH",
"447 675 OFFCURVE",
"391 724 OFFCURVE",
"289 724 CURVE SMOOTH",
"163 724 OFFCURVE",
"70 651 OFFCURVE",
"70 513 CURVE SMOOTH",
"70 358 OFFCURVE",
"184 285 OFFCURVE",
"357 275 CURVE",
"357 137 LINE SMOOTH",
"357 95 OFFCURVE",
"348 79 OFFCURVE",
"308 79 CURVE SMOOTH",
"81 79 LINE",
"81 0 LINE"
);
},
{
closed = 1;
nodes = (
"248 365 OFFCURVE",
"163 407 OFFCURVE",
"163 516 CURVE SMOOTH",
"163 598 OFFCURVE",
"209 645 OFFCURVE",
"279 645 CURVE SMOOTH",
"336 645 OFFCURVE",
"357 612 OFFCURVE",
"357 545 CURVE SMOOTH",
"357 354 LINE"
);
}
);
userData = {
com.schriftgestaltung.Glyphs.category = Letter;
com.schriftgestaltung.Glyphs.lastChange = "2017/01/05 17:36:54";
com.schriftgestaltung.Glyphs.subCategory = Uppercase;
};
width = 789;
},
{
anchors = (
{
name = top;
position = "{443, 666}";
}
);
layerId = "201D1995-4E5E-441E-AFED-969F1360B126";
paths = (
{
closed = 1;
nodes = (
"373 0 LINE SMOOTH",
"467 0 OFFCURVE",
"485 32 OFFCURVE",
"485 118 CURVE SMOOTH",
"485 257 LINE",
"516 258 OFFCURVE",
"578 269 OFFCURVE",
"596 276 CURVE",
"596 0 LINE",
"747 0 LINE",
"747 714 LINE",
"596 714 LINE",
"596 403 LINE",
"575 393 OFFCURVE",
"515 383 OFFCURVE",
"485 382 CURVE",
"485 535 LINE SMOOTH",
"485 658 OFFCURVE",
"432 724 OFFCURVE",
"292 724 CURVE SMOOTH",
"154 724 OFFCURVE",
"45 649 OFFCURVE",
"45 501 CURVE SMOOTH",
"45 348 OFFCURVE",
"131 262 OFFCURVE",
"334 252 CURVE",
"334 183 LINE SMOOTH",
"334 141 OFFCURVE",
"325 125 OFFCURVE",
"285 125 CURVE SMOOTH",
"56 125 LINE",
"56 0 LINE"
);
},
{
closed = 1;
nodes = (
"267 382 OFFCURVE",
"201 419 OFFCURVE",
"201 500 CURVE SMOOTH",
"201 566 OFFCURVE",
"243 599 OFFCURVE",
"285 599 CURVE SMOOTH",
"320 599 OFFCURVE",
"334 582 OFFCURVE",
"334 530 CURVE SMOOTH",
"334 377 LINE"
);
}
);
userData = {
com.schriftgestaltung.Glyphs.category = Letter;
com.schriftgestaltung.Glyphs.lastChange = "2017/01/05 17:36:54";
com.schriftgestaltung.Glyphs.subCategory = Uppercase;
};
width = 837;
}
);
unicode = 1E917;
},
{
glyphname = "Ga-adlam";
lastChange = "2019-11-01 20:29:01 +0000";
layers = (
{
anchors = (
{
name = gemconsonanttop;
position = "{330, 663}";
},
{
name = top;
position = "{317, 663}";
}
);
layerId = master01;
paths = (
{
closed = 1;
nodes = (
"350 0 LINE SMOOTH",
"483 0 OFFCURVE",
"562 48 OFFCURVE",
"562 189 CURVE SMOOTH",
"562 327 OFFCURVE",
"482 365 OFFCURVE",
"435 377 CURVE",
"435 383 LINE",
"493 404 OFFCURVE",
"550 464 OFFCURVE",
"550 559 CURVE SMOOTH",
"550 683 OFFCURVE",
"488 714 OFFCURVE",
"375 714 CURVE SMOOTH",
"296 714 LINE",
"296 635 LINE",
"375 635 LINE SMOOTH",
"425 635 OFFCURVE",
"460 615 OFFCURVE",
"460 546 CURVE SMOOTH",
"460 466 OFFCURVE",
"409 411 OFFCURVE",
"282 411 CURVE SMOOTH",
"186 411 OFFCURVE",
"175 421 OFFCURVE",
"175 475 CURVE SMOOTH",
"174 714 LINE",
"84 714 LINE",
"84 473 LINE SMOOTH",
"84 346 OFFCURVE",
"99 332 OFFCURVE",
"275 332 CURVE SMOOTH",
"403 332 OFFCURVE",
"469 302 OFFCURVE",
"469 189 CURVE SMOOTH",
"469 114 OFFCURVE",
"426 79 OFFCURVE",
"347 79 CURVE SMOOTH",
"75 79 LINE",
"75 0 LINE"
);
}
);
userData = {
com.schriftgestaltung.Glyphs.category = Letter;
com.schriftgestaltung.Glyphs.lastChange = "2017/01/05 17:36:54";
com.schriftgestaltung.Glyphs.subCategory = Uppercase;
};
width = 652;
},
{
anchors = (
{
name = gemconsonanttop;
position = "{350, 663}";
},
{
name = top;
position = "{337, 663}";
}
);
layerId = "201D1995-4E5E-441E-AFED-969F1360B126";
paths = (
{
closed = 1;
nodes = (
"372 0 LINE SMOOTH",
"553 0 OFFCURVE",
"614 52 OFFCURVE",
"614 202 CURVE SMOOTH",
"614 323 OFFCURVE",
"540 376 OFFCURVE",
"485 391 CURVE",
"485 396 LINE",
"535 409 OFFCURVE",
"605 457 OFFCURVE",
"605 556 CURVE SMOOTH",
"605 675 OFFCURVE",
"540 714 OFFCURVE",
"388 714 CURVE SMOOTH",
"328 714 LINE",
"328 589 LINE",
"372 589 LINE SMOOTH",
"432 589 OFFCURVE",
"449 563 OFFCURVE",
"449 521 CURVE SMOOTH",
"449 477 OFFCURVE",
"422 434 OFFCURVE",
"299 434 CURVE SMOOTH",
"228 434 OFFCURVE",
"226 450 OFFCURVE",
"226 498 CURVE SMOOTH",
"225 714 LINE",
"74 714 LINE",
"74 448 LINE SMOOTH",
"74 323 OFFCURVE",
"80 309 OFFCURVE",
"261 309 CURVE SMOOTH",
"428 309 OFFCURVE",
"458 277 OFFCURVE",
"458 211 CURVE SMOOTH",
"458 155 OFFCURVE",
"435 125 OFFCURVE",
"367 125 CURVE SMOOTH",
"65 125 LINE",
"65 0 LINE"
);
}
);
userData = {
com.schriftgestaltung.Glyphs.category = Letter;
com.schriftgestaltung.Glyphs.lastChange = "2017/01/05 17:36:54";
com.schriftgestaltung.Glyphs.subCategory = Uppercase;
};
width = 680;
}
);
unicode = 1E918;
},
{
glyphname = "Nya-adlam";
lastChange = "2019-10-30 17:52:34 +0000";
layers = (
{
anchors = (
{
name = top;
position = "{367, 663}";
}
);
layerId = master01;
paths = (
{
closed = 1;
nodes = (
"631 -52 LINE",
"631 159 LINE SMOOTH",
"631 374 OFFCURVE",
"536 396 OFFCURVE",
"366 439 CURVE SMOOTH",
"236 472 OFFCURVE",
"191 488 OFFCURVE",
"191 550 CURVE SMOOTH",
"191 606 OFFCURVE",
"231 635 OFFCURVE",
"321 635 CURVE SMOOTH",
"391 635 LINE SMOOTH",
"499 635 OFFCURVE",
"530 600 OFFCURVE",
"544 580 CURVE",
"606 638 LINE",
"590 661 OFFCURVE",
"546 714 OFFCURVE",
"392 714 CURVE SMOOTH",
"321 714 LINE SMOOTH",
"172 714 OFFCURVE",
"98 656 OFFCURVE",
"98 544 CURVE SMOOTH",
"98 450 OFFCURVE",
"156 412 OFFCURVE",
"206 396 CURVE",
"206 391 LINE",
"146 369 OFFCURVE",
"65 308 OFFCURVE",
"65 186 CURVE SMOOTH",
"65 48 OFFCURVE",
"158 0 OFFCURVE",
"295 0 CURVE SMOOTH",
"471 0 LINE",
"471 79 LINE",
"295 79 LINE SMOOTH",
"213 79 OFFCURVE",
"158 109 OFFCURVE",
"158 191 CURVE SMOOTH",
"158 296 OFFCURVE",
"242 353 OFFCURVE",
"321 367 CURVE",
"480 333 OFFCURVE",
"541 312 OFFCURVE",
"541 158 CURVE SMOOTH",
"541 -52 LINE"
);
}
);
userData = {
com.schriftgestaltung.Glyphs.category = Letter;
com.schriftgestaltung.Glyphs.lastChange = "2017/01/05 17:36:54";
com.schriftgestaltung.Glyphs.subCategory = Uppercase;
};
width = 696;
},
{
anchors = (
{
name = top;
position = "{384, 663}";
}
);
layerId = "201D1995-4E5E-441E-AFED-969F1360B126";
paths = (
{
closed = 1;
nodes = (
"678 -52 LINE",
"678 209 LINE SMOOTH",
"678 373 OFFCURVE",
"586 405 OFFCURVE",
"405 448 CURVE SMOOTH",
"259 483 OFFCURVE",
"239 490 OFFCURVE",
"239 534 CURVE SMOOTH",
"239 570 OFFCURVE",
"265 589 OFFCURVE",
"343 589 CURVE SMOOTH",
"439 589 LINE SMOOTH",
"527 589 OFFCURVE",
"554 563 OFFCURVE",
"568 543 CURVE",
"662 639 LINE",
"634 679 OFFCURVE",
"593 714 OFFCURVE",
"439 714 CURVE SMOOTH",
"343 714 LINE SMOOTH",
"175 714 OFFCURVE",
"83 656 OFFCURVE",
"83 525 CURVE SMOOTH",
"83 432 OFFCURVE",
"139 388 OFFCURVE",
"189 365 CURVE",
"189 359 LINE",
"129 337 OFFCURVE",
"55 283 OFFCURVE",
"55 181 CURVE SMOOTH",
"55 43 OFFCURVE",
"150 0 OFFCURVE",
"306 0 CURVE SMOOTH",
"463 0 LINE",
"463 125 LINE",
"314 125 LINE SMOOTH",
"235 125 OFFCURVE",
"211 150 OFFCURVE",
"211 199 CURVE SMOOTH",
"211 260 OFFCURVE",
"262 307 OFFCURVE",
"330 325 CURVE",
"492 289 OFFCURVE",
"527 271 OFFCURVE",
"527 163 CURVE SMOOTH",
"527 -52 LINE"
);
}
);
userData = {
com.schriftgestaltung.Glyphs.category = Letter;
com.schriftgestaltung.Glyphs.lastChange = "2017/01/05 17:36:54";
com.schriftgestaltung.Glyphs.subCategory = Uppercase;
};
width = 733;
}
);
unicode = 1E919;
},
{
glyphname = "Tu-adlam";
lastChange = "2019-11-20 21:41:59 +0000";
layers = (
{
anchors = (
{
name = gemconsonanttop;
position = "{467, 666}";
},
{
name = top;
position = "{471, 666}";
}
);
layerId = master01;
paths = (
{
closed = 1;
nodes = (
"200 0 LINE",
"200 593 LINE",
"209 615 OFFCURVE",
"243 645 OFFCURVE",
"304 645 CURVE SMOOTH",
"387 645 OFFCURVE",
"423 598 OFFCURVE",
"433 569 CURVE",
"433 54 LINE SMOOTH",
"433 17 OFFCURVE",
"447 0 OFFCURVE",
"484 0 CURVE SMOOTH",
"838 0 LINE",
"838 79 LINE",
"558 79 LINE SMOOTH",
"532 79 OFFCURVE",
"523 90 OFFCURVE",
"523 117 CURVE SMOOTH",
"523 593 LINE",
"537 612 OFFCURVE",
"569 645 OFFCURVE",
"637 645 CURVE SMOOTH",
"708 645 OFFCURVE",
"763 587 OFFCURVE",
"763 449 CURVE SMOOTH",
"763 304 OFFCURVE",
"715 242 OFFCURVE",
"656 186 CURVE",
"716 127 LINE",
"797 199 OFFCURVE",
"853 275 OFFCURVE",
"853 449 CURVE SMOOTH",
"853 644 OFFCURVE",
"779 724 OFFCURVE",
"640 724 CURVE SMOOTH",
"550 724 OFFCURVE",
"483 677 OFFCURVE",
"467 659 CURVE",
"462 659 LINE",
"448 677 OFFCURVE",
"401 724 OFFCURVE",
"304 724 CURVE SMOOTH",
"176 724 OFFCURVE",
"120 647 OFFCURVE",
"110 613 CURVE",
"110 0 LINE"
);
}
);
userData = {
com.schriftgestaltung.Glyphs.category = Letter;
com.schriftgestaltung.Glyphs.lastChange = "2017/01/05 17:36:54";
com.schriftgestaltung.Glyphs.subCategory = Uppercase;
};
width = 953;
},
{
anchors = (
{
name = gemconsonanttop;
position = "{467, 666}";
},
{
name = top;
position = "{481, 666}";
}
);
layerId = "201D1995-4E5E-441E-AFED-969F1360B126";
paths = (
{
closed = 1;
nodes = (
"241 0 LINE",
"241 573 LINE",
"251 585 OFFCURVE",
"273 599 OFFCURVE",
"320 599 CURVE SMOOTH",
"378 599 OFFCURVE",
"403 568 OFFCURVE",
"412 553 CURVE",
"412 54 LINE SMOOTH",
"412 17 OFFCURVE",
"426 0 OFFCURVE",
"472 0 CURVE SMOOTH",
"878 0 LINE",
"878 125 LINE",
"604 125 LINE SMOOTH",
"572 125 OFFCURVE",
"563 136 OFFCURVE",
"563 168 CURVE SMOOTH",
"563 569 LINE",
"574 579 OFFCURVE",
"601 599 OFFCURVE",
"647 599 CURVE SMOOTH",
"695 599 OFFCURVE",
"742 566 OFFCURVE",
"742 461 CURVE SMOOTH",
"742 354 OFFCURVE",
"705 298 OFFCURVE",
"662 245 CURVE",
"783 162 LINE",
"839 227 OFFCURVE",
"893 308 OFFCURVE",
"893 473 CURVE SMOOTH",
"893 656 OFFCURVE",
"811 724 OFFCURVE",
"665 724 CURVE SMOOTH",
"559 724 OFFCURVE",
"491 681 OFFCURVE",
"468 659 CURVE",
"461 659 LINE",
"445 679 OFFCURVE",
"404 724 OFFCURVE",
"298 724 CURVE SMOOTH",
"158 724 OFFCURVE",
"110 656 OFFCURVE",
"90 620 CURVE",
"90 0 LINE"
);
}
);
userData = {
com.schriftgestaltung.Glyphs.category = Letter;
com.schriftgestaltung.Glyphs.lastChange = "2017/01/05 17:36:54";
com.schriftgestaltung.Glyphs.subCategory = Uppercase;
};
width = 973;
}
);
unicode = 1E91A;
},
{
glyphname = "Nha-adlam";
lastChange = "2019-11-19 20:47:41 +0000";
layers = (
{
anchors = (
{
name = top;
position = "{392, 663}";
}
);
layerId = master01;
paths = (
{
closed = 1;
nodes = (
"250 54 LINE",
"206 64 OFFCURVE",
"138 84 OFFCURVE",
"138 184 CURVE SMOOTH",
"138 279 OFFCURVE",
"196 315 OFFCURVE",
"342 348 CURVE",
"342 118 LINE SMOOTH",
"342 32 OFFCURVE",
"360 0 OFFCURVE",
"458 0 CURVE SMOOTH",
"648 0 LINE",
"648 79 LINE",
"482 79 LINE SMOOTH",
"441 79 OFFCURVE",
"432 95 OFFCURVE",
"432 137 CURVE SMOOTH",
"432 366 LINE",
"594 399 OFFCURVE",
"668 434 OFFCURVE",
"668 553 CURVE SMOOTH",
"668 661 OFFCURVE",
"607 714 OFFCURVE",
"435 714 CURVE SMOOTH",
"365 714 LINE SMOOTH",
"202 714 OFFCURVE",
"140 658 OFFCURVE",
"118 618 CURVE",
"178 570 LINE",
"193 595 OFFCURVE",
"226 630 OFFCURVE",
"342 635 CURVE",
"342 426 LINE",
"147 388 OFFCURVE",
"45 326 OFFCURVE",
"45 180 CURVE SMOOTH",
"45 39 OFFCURVE",
"143 -10 OFFCURVE",
"230 -24 CURVE"
);
},
{
closed = 1;
nodes = (
"432 635 LINE",
"533 635 OFFCURVE",
"575 610 OFFCURVE",
"575 550 CURVE SMOOTH",
"575 488 OFFCURVE",
"546 470 OFFCURVE",
"432 445 CURVE"
);
}
);
userData = {
com.schriftgestaltung.Glyphs.category = Letter;
com.schriftgestaltung.Glyphs.lastChange = "2017/01/05 17:36:54";
com.schriftgestaltung.Glyphs.subCategory = Uppercase;
};
width = 738;
},
{
anchors = (
{
name = top;
position = "{419, 663}";
}
);
layerId = "201D1995-4E5E-441E-AFED-969F1360B126";
paths = (
{
closed = 1;
nodes = (
"287 103 LINE",
"230 116 OFFCURVE",
"196 131 OFFCURVE",
"196 178 CURVE SMOOTH",
"196 223 OFFCURVE",
"221 253 OFFCURVE",
"343 282 CURVE",
"343 118 LINE SMOOTH",
"343 32 OFFCURVE",
"361 0 OFFCURVE",
"459 0 CURVE SMOOTH",
"708 0 LINE",
"708 125 LINE",
"534 125 LINE SMOOTH",
"493 125 OFFCURVE",
"484 141 OFFCURVE",
"484 183 CURVE SMOOTH",
"484 310 LINE",
"616 343 OFFCURVE",
"728 388 OFFCURVE",
"728 532 CURVE SMOOTH",
"728 674 OFFCURVE",
"644 714 OFFCURVE",
"465 714 CURVE SMOOTH",
"375 714 LINE SMOOTH",
"204 714 OFFCURVE",
"113 646 OFFCURVE",
"91 606 CURVE",
"187 514 LINE",
"202 539 OFFCURVE",
"250 589 OFFCURVE",
"343 589 CURVE",
"343 406 LINE",
"173 368 OFFCURVE",
"40 316 OFFCURVE",
"40 173 CURVE SMOOTH",
"40 39 OFFCURVE",
"136 -18 OFFCURVE",
"255 -32 CURVE"
);
},
{
closed = 1;
nodes = (
"484 589 LINE",
"530 589 OFFCURVE",
"572 577 OFFCURVE",
"572 519 CURVE SMOOTH",
"572 467 OFFCURVE",
"543 449 OFFCURVE",
"484 435 CURVE"
);
}
);
userData = {
com.schriftgestaltung.Glyphs.category = Letter;
com.schriftgestaltung.Glyphs.lastChange = "2017/01/05 17:36:54";
com.schriftgestaltung.Glyphs.subCategory = Uppercase;
};
width = 768;
}
);
unicode = 1E91B;
},
{
glyphname = "Va-adlam";
lastChange = "2019-10-30 17:52:34 +0000";
layers = (
{
anchors = (
{
name = top;
position = "{350, 663}";
}
);
layerId = master01;
paths = (
{
closed = 1;
nodes = (
"200 0 LINE",
"200 577 LINE SMOOTH",
"200 619 OFFCURVE",
"209 635 OFFCURVE",
"249 635 CURVE SMOOTH",
"489 635 LINE",
"489 377 LINE",
"305 377 LINE",
"305 298 LINE",
"489 298 LINE",
"489 0 LINE",
"579 0 LINE",
"579 714 LINE",
"222 714 LINE SMOOTH",
"128 714 OFFCURVE",
"110 682 OFFCURVE",
"110 596 CURVE SMOOTH",
"110 0 LINE"
);
}
);
userData = {
com.schriftgestaltung.Glyphs.category = Letter;
com.schriftgestaltung.Glyphs.lastChange = "2017/01/05 17:36:54";
com.schriftgestaltung.Glyphs.subCategory = Uppercase;
};
width = 689;
},
{
anchors = (
{
name = top;
position = "{355, 663}";
}
);
layerId = "201D1995-4E5E-441E-AFED-969F1360B126";
paths = (
{
closed = 1;
nodes = (
"241 0 LINE",
"241 531 LINE SMOOTH",
"241 573 OFFCURVE",
"250 589 OFFCURVE",
"290 589 CURVE SMOOTH",
"468 589 LINE",
"468 400 LINE",
"316 400 LINE",
"316 275 LINE",
"468 275 LINE",
"468 0 LINE",
"619 0 LINE",
"619 714 LINE",
"202 714 LINE SMOOTH",
"108 714 OFFCURVE",
"90 682 OFFCURVE",
"90 596 CURVE SMOOTH",
"90 0 LINE"
);
}
);
userData = {
com.schriftgestaltung.Glyphs.category = Letter;
com.schriftgestaltung.Glyphs.lastChange = "2017/01/05 17:36:54";
com.schriftgestaltung.Glyphs.subCategory = Uppercase;
};
width = 709;
}
);
unicode = 1E91C;
},
{
glyphname = "Kha-adlam";
lastChange = "2019-11-18 21:26:30 +0000";
layers = (
{
anchors = (
{
name = top;
position = "{441, 663}";
}
);
layerId = master01;
paths = (
{
closed = 1;
nodes = (
"200 0 LINE",
"199 321 LINE",
"386 321 LINE",
"386 118 LINE SMOOTH",
"386 32 OFFCURVE",
"404 0 OFFCURVE",
"498 0 CURVE SMOOTH",
"733 0 LINE",
"733 79 LINE",
"526 79 LINE SMOOTH",
"485 79 OFFCURVE",
"476 95 OFFCURVE",
"476 137 CURVE SMOOTH",
"476 321 LINE",
"627 321 LINE",
"627 400 LINE",
"476 400 LINE",
"476 558 LINE",
"386 558 LINE",
"386 400 LINE",
"199 400 LINE",
"199 576 LINE SMOOTH",
"199 619 OFFCURVE",
"208 635 OFFCURVE",
"249 635 CURVE SMOOTH",
"733 635 LINE",
"733 714 LINE",
"222 714 LINE SMOOTH",
"128 714 OFFCURVE",
"110 683 OFFCURVE",
"110 597 CURVE SMOOTH",
"110 0 LINE"
);
}
);
userData = {
com.schriftgestaltung.Glyphs.category = Letter;
com.schriftgestaltung.Glyphs.lastChange = "2017/01/05 17:36:54";
com.schriftgestaltung.Glyphs.subCategory = Uppercase;
};
width = 773;
},
{
anchors = (
{
name = top;
position = "{431, 663}";
}
);
layerId = "201D1995-4E5E-441E-AFED-969F1360B126";
paths = (
{
closed = 1;
nodes = (
"241 0 LINE",
"241 288 LINE",
"366 288 LINE",
"366 118 LINE SMOOTH",
"366 32 OFFCURVE",
"384 0 OFFCURVE",
"478 0 CURVE SMOOTH",
"743 0 LINE",
"743 125 LINE",
"567 125 LINE SMOOTH",
"526 125 OFFCURVE",
"517 141 OFFCURVE",
"517 183 CURVE SMOOTH",
"517 288 LINE",
"668 288 LINE",
"668 413 LINE",
"517 413 LINE",
"517 522 LINE",
"366 522 LINE",
"366 413 LINE",
"241 413 LINE",
"241 530 LINE SMOOTH",
"241 573 OFFCURVE",
"250 589 OFFCURVE",
"291 589 CURVE SMOOTH",
"743 589 LINE",
"743 714 LINE",
"202 714 LINE SMOOTH",
"108 714 OFFCURVE",
"90 683 OFFCURVE",
"90 597 CURVE SMOOTH",
"90 0 LINE"
);
}
);
userData = {
com.schriftgestaltung.Glyphs.category = Letter;
com.schriftgestaltung.Glyphs.lastChange = "2017/01/05 17:36:54";
com.schriftgestaltung.Glyphs.subCategory = Uppercase;
};
width = 773;
}
);
unicode = 1E91D;
},
{
glyphname = "Gbe-adlam";
lastChange = "2019-10-30 17:52:34 +0000";
layers = (
{
anchors = (
{
name = top;
position = "{366, 663}";
}
);
layerId = master01;
paths = (
{
closed = 1;
nodes = (
"200 0 LINE",
"200 148 LINE",
"287 148 LINE",
"291 53 OFFCURVE",
"336 0 OFFCURVE",
"488 0 CURVE SMOOTH",
"610 0 LINE",
"610 79 LINE",
"493 79 LINE SMOOTH",
"405 79 OFFCURVE",
"380 107 OFFCURVE",
"380 162 CURVE SMOOTH",
"380 225 OFFCURVE",
"404 264 OFFCURVE",
"488 328 CURVE SMOOTH",
"574 393 OFFCURVE",
"616 437 OFFCURVE",
"616 538 CURVE SMOOTH",
"616 683 OFFCURVE",
"516 714 OFFCURVE",
"377 714 CURVE SMOOTH",
"110 714 LINE",
"110 635 LINE",
"377 635 LINE SMOOTH",
"477 635 OFFCURVE",
"523 602 OFFCURVE",
"523 537 CURVE SMOOTH",
"523 464 OFFCURVE",
"480 427 OFFCURVE",
"413 376 CURVE SMOOTH",
"344 324 OFFCURVE",
"309 285 OFFCURVE",
"293 223 CURVE",
"200 223 LINE",
"200 556 LINE",
"110 556 LINE",
"110 0 LINE"
);
}
);
userData = {
com.schriftgestaltung.Glyphs.category = Letter;
com.schriftgestaltung.Glyphs.lastChange = "2017/01/05 17:36:54";
com.schriftgestaltung.Glyphs.subCategory = Uppercase;
};
width = 666;
},
{
anchors = (
{
name = top;
position = "{377, 663}";
}
);
layerId = "201D1995-4E5E-441E-AFED-969F1360B126";
paths = (
{
closed = 1;
nodes = (
"241 0 LINE",
"241 135 LINE",
"297 135 LINE",
"305 49 OFFCURVE",
"377 0 OFFCURVE",
"496 0 CURVE SMOOTH",
"653 0 LINE",
"653 125 LINE",
"544 125 LINE SMOOTH",
"476 125 OFFCURVE",
"451 148 OFFCURVE",
"451 189 CURVE SMOOTH",
"451 233 OFFCURVE",
"476 268 OFFCURVE",
"543 335 CURVE SMOOTH",
"617 411 OFFCURVE",
"659 457 OFFCURVE",
"659 546 CURVE SMOOTH",
"659 683 OFFCURVE",
"557 714 OFFCURVE",
"418 714 CURVE SMOOTH",
"90 714 LINE",
"90 589 LINE",
"388 589 LINE SMOOTH",
"476 589 OFFCURVE",
"503 568 OFFCURVE",
"503 524 CURVE SMOOTH",
"503 485 OFFCURVE",
"479 457 OFFCURVE",
"420 399 CURVE SMOOTH",
"347 328 OFFCURVE",
"313 279 OFFCURVE",
"303 236 CURVE",
"241 236 LINE",
"241 510 LINE",
"90 510 LINE",
"90 0 LINE"
);
}
);
userData = {
com.schriftgestaltung.Glyphs.category = Letter;
com.schriftgestaltung.Glyphs.lastChange = "2017/01/05 17:36:54";
com.schriftgestaltung.Glyphs.subCategory = Uppercase;
};
width = 714;
}
);
unicode = 1E91E;
},
{
glyphname = "Zal-adlam";
lastChange = "2019-11-20 21:41:59 +0000";
layers = (
{
anchors = (
{
name = top;
position = "{450, 663}";
}
);
background = {
paths = (
{
closed = 1;
nodes = (
"654 714 LINE",
"654 417 LINE",
"473 417 LINE",
"473 531 LINE SMOOTH",
"473 672 OFFCURVE",
"403 724 OFFCURVE",
"292 724 CURVE SMOOTH",
"182 724 OFFCURVE",
"110 672 OFFCURVE",
"110 531 CURVE SMOOTH",
"110 0 LINE",
"200 0 LINE",
"200 518 LINE SMOOTH",
"200 612 OFFCURVE",
"234 645 OFFCURVE",
"292 645 CURVE SMOOTH",
"349 645 OFFCURVE",
"383 612 OFFCURVE",
"383 518 CURVE SMOOTH",
"383 170 LINE",
"473 170 LINE",
"473 338 LINE",
"654 338 LINE",
"654 137 LINE SMOOTH",
"654 95 OFFCURVE",
"645 79 OFFCURVE",
"605 79 CURVE SMOOTH",
"386 79 LINE",
"386 0 LINE",
"633 0 LINE SMOOTH",
"727 0 OFFCURVE",
"744 32 OFFCURVE",
"744 118 CURVE SMOOTH",
"744 714 LINE"
);
}
);
};
layerId = master01;
paths = (
{
closed = 1;
nodes = (
"200 0 LINE",
"200 518 LINE SMOOTH",
"200 612 OFFCURVE",
"234 645 OFFCURVE",
"292 645 CURVE SMOOTH",
"351 645 OFFCURVE",
"373 613 OFFCURVE",
"383 592 CURVE",
"383 170 LINE",
"473 170 LINE",
"473 338 LINE",
"654 338 LINE",
"654 137 LINE SMOOTH",
"654 95 OFFCURVE",
"645 79 OFFCURVE",
"605 79 CURVE SMOOTH",
"386 79 LINE",
"386 0 LINE",
"633 0 LINE SMOOTH",
"727 0 OFFCURVE",
"744 32 OFFCURVE",
"744 118 CURVE SMOOTH",
"744 714 LINE",
"654 714 LINE",
"654 417 LINE",
"473 417 LINE",
"473 620 LINE",
"457 656 OFFCURVE",
"412 724 OFFCURVE",
"292 724 CURVE SMOOTH",
"182 724 OFFCURVE",
"110 672 OFFCURVE",
"110 531 CURVE SMOOTH",
"110 0 LINE"
);
}
);
userData = {
com.schriftgestaltung.Glyphs.category = Letter;
com.schriftgestaltung.Glyphs.lastChange = "2017/01/05 17:36:54";
com.schriftgestaltung.Glyphs.subCategory = Uppercase;
};
width = 854;
},
{
anchors = (
{
name = top;
position = "{460, 663}";
}
);
background = {
paths = (
{
closed = 1;
nodes = (
"633 714 LINE",
"633 450 LINE",
"513 450 LINE",
"513 531 LINE SMOOTH",
"513 672 OFFCURVE",
"443 724 OFFCURVE",
"302 724 CURVE SMOOTH",
"162 724 OFFCURVE",
"90 672 OFFCURVE",
"90 531 CURVE SMOOTH",
"90 0 LINE",
"241 0 LINE",
"241 504 LINE SMOOTH",
"241 576 OFFCURVE",
"262 599 OFFCURVE",
"302 599 CURVE SMOOTH",
"341 599 OFFCURVE",
"362 576 OFFCURVE",
"362 504 CURVE SMOOTH",
"362 200 LINE",
"513 200 LINE",
"513 325 LINE",
"633 325 LINE",
"633 183 LINE SMOOTH",
"633 141 OFFCURVE",
"624 125 OFFCURVE",
"584 125 CURVE SMOOTH",
"365 125 LINE",
"365 0 LINE",
"673 0 LINE SMOOTH",
"767 0 OFFCURVE",
"784 32 OFFCURVE",
"784 118 CURVE SMOOTH",
"784 714 LINE"
);
}
);
};
layerId = "201D1995-4E5E-441E-AFED-969F1360B126";
paths = (
{
closed = 1;
nodes = (
"241 0 LINE",
"241 504 LINE SMOOTH",
"241 576 OFFCURVE",
"262 599 OFFCURVE",
"305 599 CURVE SMOOTH",
"341 599 OFFCURVE",
"357 580 OFFCURVE",
"362 570 CURVE",
"362 200 LINE",
"513 200 LINE",
"513 325 LINE",
"633 325 LINE",
"633 183 LINE SMOOTH",
"633 141 OFFCURVE",
"624 125 OFFCURVE",
"584 125 CURVE SMOOTH",
"365 125 LINE",
"365 0 LINE",
"673 0 LINE SMOOTH",
"767 0 OFFCURVE",
"784 32 OFFCURVE",
"784 118 CURVE SMOOTH",
"784 714 LINE",
"633 714 LINE",
"633 450 LINE",
"513 450 LINE",
"513 615 LINE",
"501 637 OFFCURVE",
"453 724 OFFCURVE",
"302 724 CURVE SMOOTH",
"162 724 OFFCURVE",
"90 672 OFFCURVE",
"90 531 CURVE SMOOTH",
"90 0 LINE"
);
}
);
userData = {
com.schriftgestaltung.Glyphs.category = Letter;
com.schriftgestaltung.Glyphs.lastChange = "2017/01/05 17:36:54";
com.schriftgestaltung.Glyphs.subCategory = Uppercase;
};
width = 874;
}
);
unicode = 1E91F;
},
{
glyphname = "Kpo-adlam";
lastChange = "2019-11-19 20:51:02 +0000";
layers = (
{
anchors = (
{
name = top;
position = "{359, 666}";
}
);
layerId = master01;
paths = (
{
closed = 1;
nodes = (
"608 0 LINE",
"608 79 LINE",
"249 79 LINE SMOOTH",
"209 79 OFFCURVE",
"200 95 OFFCURVE",
"200 137 CURVE SMOOTH",
"200 593 LINE",
"222 619 OFFCURVE",
"273 650 OFFCURVE",
"359 650 CURVE SMOOTH",
"443 650 OFFCURVE",
"521 611 OFFCURVE",
"521 477 CURVE SMOOTH",
"521 356 OFFCURVE",
"443 315 OFFCURVE",
"374 315 CURVE SMOOTH",
"322 315 OFFCURVE",
"297 332 OFFCURVE",
"284 342 CURVE",
"248 271 LINE",
"261 259 OFFCURVE",
"289 236 OFFCURVE",
"373 236 CURVE SMOOTH",
"495 236 OFFCURVE",
"614 291 OFFCURVE",
"614 482 CURVE SMOOTH",
"614 677 OFFCURVE",
"497 729 OFFCURVE",
"360 729 CURVE SMOOTH",
"213 729 OFFCURVE",
"142 673 OFFCURVE",
"110 634 CURVE",
"110 118 LINE SMOOTH",
"110 32 OFFCURVE",
"128 0 OFFCURVE",
"222 0 CURVE SMOOTH"
);
}
);
userData = {
com.schriftgestaltung.Glyphs.category = Letter;
com.schriftgestaltung.Glyphs.lastChange = "2017/01/05 17:36:54";
com.schriftgestaltung.Glyphs.subCategory = Uppercase;
};
width = 669;
},
{
anchors = (
{
name = top;
position = "{369, 663}";
}
);
layerId = "201D1995-4E5E-441E-AFED-969F1360B126";
paths = (
{
closed = 1;
nodes = (
"648 0 LINE",
"648 125 LINE",
"290 125 LINE SMOOTH",
"250 125 OFFCURVE",
"241 141 OFFCURVE",
"241 183 CURVE SMOOTH",
"241 563 LINE",
"263 587 OFFCURVE",
"306 604 OFFCURVE",
"364 604 CURVE SMOOTH",
"447 604 OFFCURVE",
"500 565 OFFCURVE",
"500 477 CURVE SMOOTH",
"500 391 OFFCURVE",
"453 361 OFFCURVE",
"392 361 CURVE SMOOTH",
"363 361 OFFCURVE",
"342 367 OFFCURVE",
"329 378 CURVE",
"284 263 LINE",
"297 252 OFFCURVE",
"338 236 OFFCURVE",
"394 236 CURVE SMOOTH",
"522 236 OFFCURVE",
"656 291 OFFCURVE",
"656 482 CURVE SMOOTH",
"656 670 OFFCURVE",
"531 729 OFFCURVE",
"369 729 CURVE SMOOTH",
"205 729 OFFCURVE",
"120 669 OFFCURVE",
"90 634 CURVE",
"90 118 LINE SMOOTH",
"90 32 OFFCURVE",
"108 0 OFFCURVE",
"202 0 CURVE SMOOTH"
);
}
);
userData = {
com.schriftgestaltung.Glyphs.category = Letter;
com.schriftgestaltung.Glyphs.lastChange = "2017/01/05 17:36:54";
com.schriftgestaltung.Glyphs.subCategory = Uppercase;
};
width = 701;
}
);
unicode = 1E920;
},
{
glyphname = "Sha-adlam";
lastChange = "2019-11-20 21:41:59 +0000";
layers = (
{
anchors = (
{
name = top;
position = "{450, 663}";
}
);
layerId = master01;
paths = (
{
closed = 1;
nodes = (
"408 -10 OFFCURVE",
"478 42 OFFCURVE",
"478 183 CURVE SMOOTH",
"478 297 LINE",
"674 297 LINE",
"674 0 LINE",
"764 0 LINE",
"764 596 LINE SMOOTH",
"764 682 OFFCURVE",
"747 714 OFFCURVE",
"653 714 CURVE SMOOTH",
"388 714 LINE",
"388 635 LINE",
"625 635 LINE SMOOTH",
"665 635 OFFCURVE",
"674 619 OFFCURVE",
"674 577 CURVE SMOOTH",
"674 376 LINE",
"478 376 LINE",
"478 544 LINE",
"388 544 LINE",
"388 183 LINE SMOOTH",
"388 102 OFFCURVE",
"354 69 OFFCURVE",
"292 69 CURVE SMOOTH",
"230 69 OFFCURVE",
"206 104 OFFCURVE",
"200 121 CURVE",
"200 714 LINE",
"110 714 LINE",
"110 94 LINE",
"118 74 OFFCURVE",
"160 -10 OFFCURVE",
"292 -10 CURVE SMOOTH"
);
}
);
userData = {
com.schriftgestaltung.Glyphs.category = Letter;
com.schriftgestaltung.Glyphs.lastChange = "2017/01/05 17:36:54";
com.schriftgestaltung.Glyphs.subCategory = Uppercase;
};
width = 884;
},
{
anchors = (
{
name = top;
position = "{460, 663}";
}
);
layerId = "201D1995-4E5E-441E-AFED-969F1360B126";
paths = (
{
closed = 1;
nodes = (
"448 -10 OFFCURVE",
"518 42 OFFCURVE",
"518 183 CURVE SMOOTH",
"518 264 LINE",
"653 264 LINE",
"653 0 LINE",
"804 0 LINE",
"804 596 LINE SMOOTH",
"804 682 OFFCURVE",
"787 714 OFFCURVE",
"693 714 CURVE SMOOTH",
"367 714 LINE",
"367 589 LINE",
"604 589 LINE SMOOTH",
"644 589 OFFCURVE",
"653 573 OFFCURVE",
"653 531 CURVE SMOOTH",
"653 389 LINE",
"518 389 LINE",
"518 508 LINE",
"367 508 LINE",
"367 213 LINE SMOOTH",
"367 138 OFFCURVE",
"344 115 OFFCURVE",
"302 115 CURVE SMOOTH",
"260 115 OFFCURVE",
"248 128 OFFCURVE",
"241 138 CURVE",
"241 714 LINE",
"90 714 LINE",
"90 86 LINE",
"103 61 OFFCURVE",
"150 -10 OFFCURVE",
"302 -10 CURVE SMOOTH"
);
}
);
userData = {
com.schriftgestaltung.Glyphs.category = Letter;
com.schriftgestaltung.Glyphs.lastChange = "2017/01/05 17:36:54";
com.schriftgestaltung.Glyphs.subCategory = Uppercase;
};
width = 894;
}
);
unicode = 1E921;
},
{
glyphname = "Alif-adlam.fina";
lastChange = "2019-11-22 21:35:03 +0000";
layers = (
{
anchors = (
{
name = gemconsonanttop;
position = "{365, 663}";
},
{
name = top;
position = "{351, 663}";
},
{
name = topAlif;
position = "{320, 745}";
}
);
layerId = master01;
paths = (
{
closed = 1;
nodes = (
"444 -10 OFFCURVE",
"511 12 OFFCURVE",
"559 48 CURVE",
"565 48 LINE",
"576 12 OFFCURVE",
"603 0 OFFCURVE",
"663 0 CURVE SMOOTH",
"714 0 LINE SMOOTH",
"744 0 OFFCURVE",
"754 12 OFFCURVE",
"754 48 CURVE SMOOTH",
"754 74 LINE",
"690 74 LINE SMOOTH",
"649 74 OFFCURVE",
"640 90 OFFCURVE",
"640 132 CURVE SMOOTH",
"640 219 LINE SMOOTH",
"638 313 OFFCURVE",
"590 352 OFFCURVE",
"566 366 CURVE",
"566 370 LINE",
"584 373 OFFCURVE",
"623 385 OFFCURVE",
"640 398 CURVE",
"613 471 LINE",
"591 458 OFFCURVE",
"519 433 OFFCURVE",
"434 433 CURVE SMOOTH",
"371 433 OFFCURVE",
"322 442 OFFCURVE",
"299 453 CURVE",
"278 376 LINE",
"297 366 OFFCURVE",
"352 358 OFFCURVE",
"418 352 CURVE SMOOTH",
"496 345 OFFCURVE",
"547 306 OFFCURVE",
"547 213 CURVE SMOOTH",
"547 119 OFFCURVE",
"471 69 OFFCURVE",
"360 69 CURVE SMOOTH",
"253 69 OFFCURVE",
"200 108 OFFCURVE",
"200 249 CURVE SMOOTH",
"200 577 LINE SMOOTH",
"200 619 OFFCURVE",
"209 635 OFFCURVE",
"249 635 CURVE SMOOTH",
"540 635 LINE",
"543 639 LINE",
"497 714 LINE",
"222 714 LINE SMOOTH",
"128 714 OFFCURVE",
"110 682 OFFCURVE",
"110 596 CURVE SMOOTH",
"110 249 LINE SMOOTH",
"110 56 OFFCURVE",
"180 -10 OFFCURVE",
"358 -10 CURVE SMOOTH"
);
}
);
userData = {
com.schriftgestaltung.Glyphs.category = Letter;
com.schriftgestaltung.Glyphs.lastChange = "2017/01/05 17:36:54";
com.schriftgestaltung.Glyphs.subCategory = Uppercase;
com.schriftgestaltung.hints = (
{
horizontal = 0;
options = 0;
place = (
819,
90
);
stem = -2;
},
{
horizontal = 0;
options = 0;
place = (
1275,
90
);
stem = -2;
},
{
horizontal = 0;
options = 0;
place = (
51,
95
);
stem = -2;
},
{
horizontal = 0;
options = 0;
place = (
615,
95
);
stem = -2;
},
{
horizontal = 1;
options = 0;
place = (
31,
21
);
stem = -2;
target = (
u,
p
);
type = BottomGhost;
},
{
horizontal = 1;
options = 0;
place = (
364,
79
);
stem = -2;
},
{
horizontal = 1;
options = 0;
place = (
745,
-20
);
stem = -2;
target = (
d,
o,
w,
n
);
type = TopGhost;
},
{
horizontal = 1;
options = 0;
place = (
-164,
78
);
stem = -2;
},
{
horizontal = 1;
options = 0;
place = (
492,
79
);
stem = -2;
}
);
};
width = 714;
},
{
anchors = (
{
name = gemconsonanttop;
position = "{405, 663}";
},
{
name = top;
position = "{391, 663}";
},
{
name = topAlif;
position = "{345, 739}";
}
);
layerId = "201D1995-4E5E-441E-AFED-969F1360B126";
paths = (
{
closed = 1;
nodes = (
"496 -10 OFFCURVE",
"556 20 OFFCURVE",
"585 40 CURVE",
"591 40 LINE",
"598 12 OFFCURVE",
"618 0 OFFCURVE",
"661 0 CURVE SMOOTH",
"765 0 LINE SMOOTH",
"790 0 OFFCURVE",
"805 7 OFFCURVE",
"805 38 CURVE SMOOTH",
"805 120 LINE",
"726 120 LINE SMOOTH",
"685 120 OFFCURVE",
"676 136 OFFCURVE",
"676 178 CURVE SMOOTH",
"676 225 LINE SMOOTH",
"676 297 OFFCURVE",
"647 331 OFFCURVE",
"625 346 CURVE",
"625 351 LINE",
"650 355 OFFCURVE",
"695 371 OFFCURVE",
"710 382 CURVE",
"673 491 LINE",
"647 475 OFFCURVE",
"555 453 OFFCURVE",
"462 453 CURVE SMOOTH",
"384 453 OFFCURVE",
"335 464 OFFCURVE",
"318 471 CURVE",
"299 348 LINE",
"311 343 OFFCURVE",
"363 333 OFFCURVE",
"416 328 CURVE SMOOTH",
"474 323 OFFCURVE",
"520 302 OFFCURVE",
"520 225 CURVE SMOOTH",
"520 154 OFFCURVE",
"474 115 OFFCURVE",
"384 115 CURVE SMOOTH",
"292 115 OFFCURVE",
"241 154 OFFCURVE",
"241 277 CURVE SMOOTH",
"241 531 LINE SMOOTH",
"241 573 OFFCURVE",
"250 589 OFFCURVE",
"290 589 CURVE SMOOTH",
"568 589 LINE",
"572 594 LINE",
"500 714 LINE",
"202 714 LINE SMOOTH",
"108 714 OFFCURVE",
"90 682 OFFCURVE",
"90 596 CURVE SMOOTH",
"90 277 LINE SMOOTH",
"90 72 OFFCURVE",
"170 -10 OFFCURVE",
"384 -10 CURVE SMOOTH"
);
}
);
userData = {
com.schriftgestaltung.Glyphs.category = Letter;
com.schriftgestaltung.Glyphs.lastChange = "2017/01/05 17:36:54";
com.schriftgestaltung.Glyphs.subCategory = Uppercase;
com.schriftgestaltung.hints = (
{
horizontal = 0;
options = 0;
place = (
819,
90
);
stem = -2;
},
{
horizontal = 0;
options = 0;
place = (
1275,
90
);
stem = -2;
},
{
horizontal = 0;
options = 0;
place = (
51,
95
);
stem = -2;
},
{
horizontal = 0;
options = 0;
place = (
615,
95
);
stem = -2;
},
{
horizontal = 1;
options = 0;
place = (
31,
21
);
stem = -2;
target = (
u,
p
);
type = BottomGhost;
},
{
horizontal = 1;
options = 0;
place = (
364,
79
);
stem = -2;
},
{
horizontal = 1;
options = 0;
place = (
745,
-20
);
stem = -2;
target = (
d,
o,
w,
n
);
type = TopGhost;
},
{
horizontal = 1;
options = 0;
place = (
-164,
78
);
stem = -2;
},
{
horizontal = 1;
options = 0;
place = (
492,
79
);
stem = -2;
}
);
};
width = 765;
}
);
},
{
glyphname = "Daali-adlam.fina";
lastChange = "2019-11-22 21:35:03 +0000";
layers = (
{
anchors = (
{
name = gemconsonanttop;
position = "{309, 663}";
},
{
name = top;
position = "{304, 663}";
}
);
layerId = master01;
paths = (
{
closed = 1;
nodes = (
"419 0 LINE SMOOTH",
"475 0 OFFCURVE",
"494 12 OFFCURVE",
"505 37 CURVE",
"511 37 LINE",
"521 12 OFFCURVE",
"535 0 OFFCURVE",
"576 0 CURVE SMOOTH",
"636 0 LINE SMOOTH",
"666 0 OFFCURVE",
"676 12 OFFCURVE",
"676 48 CURVE SMOOTH",
"676 74 LINE",
"576 74 LINE SMOOTH",
"535 74 OFFCURVE",
"526 90 OFFCURVE",
"526 132 CURVE SMOOTH",
"526 714 LINE",
"436 714 LINE",
"436 304 LINE",
"433 302 LINE",
"421 313 OFFCURVE",
"387 329 OFFCURVE",
"287 350 CURVE SMOOTH",
"190 370 OFFCURVE",
"171 388 OFFCURVE",
"171 464 CURVE SMOOTH",
"171 714 LINE",
"81 714 LINE",
"81 454 LINE SMOOTH",
"81 321 OFFCURVE",
"132 296 OFFCURVE",
"257 272 CURVE SMOOTH",
"389 247 OFFCURVE",
"436 219 OFFCURVE",
"436 156 CURVE SMOOTH",
"436 132 LINE SMOOTH",
"436 90 OFFCURVE",
"427 74 OFFCURVE",
"386 74 CURVE SMOOTH",
"75 74 LINE",
"75 0 LINE"
);
}
);
userData = {
com.schriftgestaltung.Glyphs.category = Letter;
com.schriftgestaltung.Glyphs.lastChange = "2017/01/05 17:36:54";
com.schriftgestaltung.Glyphs.subCategory = Uppercase;
com.schriftgestaltung.hints = (
{
horizontal = 0;
options = 0;
place = (
100,
90
);
stem = -2;
},
{
horizontal = 0;
options = 0;
place = (
556,
90
);
stem = -2;
},
{
horizontal = 0;
options = 0;
place = (
41,
495
);
stem = -2;
},
{
horizontal = 1;
options = 0;
place = (
0,
21
);
stem = -2;
target = (
u,
p
);
type = BottomGhost;
},
{
horizontal = 1;
options = 0;
place = (
333,
79
);
stem = -2;
},
{
horizontal = 1;
options = 0;
place = (
714,
-20
);
stem = -2;
target = (
d,
o,
w,
n
);
type = TopGhost;
},
{
horizontal = 1;
options = 0;
place = (
0,
80
);
stem = -2;
},
{
horizontal = 1;
options = 0;
place = (
634,
80
);
stem = -2;
}
);
};
width = 636;
},
{
anchors = (
{
name = gemconsonanttop;
position = "{319, 663}";
},
{
name = top;
position = "{315, 663}";
}
);
layerId = "201D1995-4E5E-441E-AFED-969F1360B126";
paths = (
{
closed = 1;
nodes = (
"455 0 LINE SMOOTH",
"513 0 OFFCURVE",
"543 12 OFFCURVE",
"557 40 CURVE",
"563 40 LINE",
"572 12 OFFCURVE",
"595 0 OFFCURVE",
"618 0 CURVE SMOOTH",
"658 0 LINE SMOOTH",
"683 0 OFFCURVE",
"698 7 OFFCURVE",
"698 38 CURVE SMOOTH",
"698 120 LINE",
"618 120 LINE SMOOTH",
"577 120 OFFCURVE",
"568 136 OFFCURVE",
"568 178 CURVE SMOOTH",
"568 714 LINE",
"417 714 LINE",
"417 333 LINE",
"412 331 LINE",
"400 342 OFFCURVE",
"380 349 OFFCURVE",
"309 366 CURVE SMOOTH",
"231 385 OFFCURVE",
"212 398 OFFCURVE",
"212 483 CURVE SMOOTH",
"212 714 LINE",
"61 714 LINE",
"61 453 LINE SMOOTH",
"61 321 OFFCURVE",
"98 294 OFFCURVE",
"244 258 CURVE SMOOTH",
"406 219 OFFCURVE",
"417 204 OFFCURVE",
"417 168 CURVE SMOOTH",
"417 157 LINE SMOOTH",
"417 121 OFFCURVE",
"408 120 OFFCURVE",
"367 120 CURVE SMOOTH",
"55 120 LINE",
"55 0 LINE"
);
}
);
userData = {
com.schriftgestaltung.Glyphs.category = Letter;
com.schriftgestaltung.Glyphs.lastChange = "2017/01/05 17:36:54";
com.schriftgestaltung.Glyphs.subCategory = Uppercase;
com.schriftgestaltung.hints = (
{
horizontal = 0;
options = 0;
place = (
100,
90
);
stem = -2;
},
{
horizontal = 0;
options = 0;
place = (
556,
90
);
stem = -2;
},
{
horizontal = 0;
options = 0;
place = (
41,
495
);
stem = -2;
},
{
horizontal = 1;
options = 0;
place = (
0,
21
);
stem = -2;
target = (
u,
p
);
type = BottomGhost;
},
{
horizontal = 1;
options = 0;
place = (
333,
79
);
stem = -2;
},
{
horizontal = 1;
options = 0;
place = (
714,
-20
);
stem = -2;
target = (
d,
o,
w,
n
);
type = TopGhost;
},
{
horizontal = 1;
options = 0;
place = (
0,
80
);
stem = -2;
},
{
horizontal = 1;
options = 0;
place = (
634,
80
);
stem = -2;
}
);
};
width = 658;
}
);
},
{
glyphname = "Laam-adlam.fina";
lastChange = "2019-11-22 21:35:03 +0000";
layers = (
{
anchors = (
{
name = top;
position = "{373, 663}";
}
);
layerId = master01;
paths = (
{
closed = 1;
nodes = (
"353 0 LINE SMOOTH",
"447 0 OFFCURVE",
"465 32 OFFCURVE",
"465 118 CURVE SMOOTH",
"465 233 LINE SMOOTH",
"465 285 OFFCURVE",
"476 300 OFFCURVE",
"535 347 CURVE SMOOTH",
"575 380 OFFCURVE",
"600 399 OFFCURVE",
"614 413 CURVE",
"616 412 LINE",
"616 118 LINE SMOOTH",
"616 32 OFFCURVE",
"634 0 OFFCURVE",
"729 0 CURVE SMOOTH",
"816 0 LINE SMOOTH",
"846 0 OFFCURVE",
"856 12 OFFCURVE",
"856 48 CURVE SMOOTH",
"856 74 LINE",
"756 74 LINE SMOOTH",
"715 74 OFFCURVE",
"706 90 OFFCURVE",
"706 132 CURVE SMOOTH",
"706 714 LINE",
"616 714 LINE",
"616 563 LINE SMOOTH",
"616 512 OFFCURVE",
"600 500 OFFCURVE",
"541 450 CURVE SMOOTH",
"493 409 OFFCURVE",
"481 398 OFFCURVE",
"468 384 CURVE",
"465 384 LINE",
"465 550 LINE SMOOTH",
"465 675 OFFCURVE",
"411 726 OFFCURVE",
"283 726 CURVE SMOOTH",
"124 726 OFFCURVE",
"65 625 OFFCURVE",
"50 595 CURVE",
"50 374 LINE",
"140 374 LINE",
"140 575 LINE",
"153 597 OFFCURVE",
"195 647 OFFCURVE",
"277 647 CURVE SMOOTH",
"350 647 OFFCURVE",
"375 614 OFFCURVE",
"375 550 CURVE SMOOTH",
"375 132 LINE SMOOTH",
"375 90 OFFCURVE",
"366 74 OFFCURVE",
"326 74 CURVE SMOOTH",
"51 74 LINE",
"51 0 LINE"
);
}
);
userData = {
com.schriftgestaltung.Glyphs.category = Letter;
com.schriftgestaltung.Glyphs.lastChange = "2017/01/05 17:36:54";
com.schriftgestaltung.Glyphs.subCategory = Uppercase;
};
width = 816;
},
{
anchors = (
{
name = top;
position = "{408, 663}";
}
);
layerId = "201D1995-4E5E-441E-AFED-969F1360B126";
paths = (
{
closed = 1;
nodes = (
"403 0 LINE SMOOTH",
"497 0 OFFCURVE",
"515 32 OFFCURVE",
"515 118 CURVE SMOOTH",
"515 244 LINE SMOOTH",
"515 297 OFFCURVE",
"521 304 OFFCURVE",
"569 339 CURVE SMOOTH",
"614 372 OFFCURVE",
"623 379 OFFCURVE",
"629 385 CURVE",
"631 384 LINE",
"631 118 LINE SMOOTH",
"631 32 OFFCURVE",
"650 0 OFFCURVE",
"745 0 CURVE SMOOTH",
"872 0 LINE SMOOTH",
"897 0 OFFCURVE",
"912 7 OFFCURVE",
"912 38 CURVE SMOOTH",
"912 120 LINE",
"832 120 LINE SMOOTH",
"791 120 OFFCURVE",
"782 136 OFFCURVE",
"782 178 CURVE SMOOTH",
"782 714 LINE",
"631 714 LINE",
"631 536 LINE SMOOTH",
"631 499 OFFCURVE",
"624 493 OFFCURVE",
"579 462 CURVE SMOOTH",
"543 437 OFFCURVE",
"528 426 OFFCURVE",
"518 416 CURVE",
"515 416 LINE",
"515 522 LINE SMOOTH",
"515 681 OFFCURVE",
"445 726 OFFCURVE",
"312 726 CURVE SMOOTH",
"132 726 OFFCURVE",
"58 614 OFFCURVE",
"40 571 CURVE",
"40 374 LINE",
"191 374 LINE",
"191 543 LINE",
"202 566 OFFCURVE",
"231 600 OFFCURVE",
"293 600 CURVE SMOOTH",
"347 600 OFFCURVE",
"364 573 OFFCURVE",
"364 522 CURVE SMOOTH",
"364 178 LINE SMOOTH",
"364 136 OFFCURVE",
"355 120 OFFCURVE",
"315 120 CURVE SMOOTH",
"51 120 LINE",
"51 0 LINE"
);
}
);
userData = {
com.schriftgestaltung.Glyphs.category = Letter;
com.schriftgestaltung.Glyphs.lastChange = "2017/01/05 17:36:54";
com.schriftgestaltung.Glyphs.subCategory = Uppercase;
};
width = 872;
}
);
},
